<?xml version="1.0" standalone="no"?>
<!DOCTYPE svg PUBLIC "-//W3C//DTD SVG 1.1//EN" "http://www.w3.org/Graphics/SVG/1.1/DTD/svg11.dtd" >
<svg xmlns="http://www.w3.org/2000/svg" xmlns:xlink="http://www.w3.org/1999/xlink" version="1.1">
<metadata>
Created by FontForge 20160407 at Wed May 18 15:39:14 2016
 By Jimmy Wärting
(c) 2005-2016 Typodermic Fonts Inc.
</metadata>
<defs>
<font id="ExpresswayRg-Regular" horiz-adv-x="608" >
  <font-face 
    font-family="Expressway Rg"
    font-weight="400"
    font-stretch="expanded"
    units-per-em="1000"
    panose-1="2 11 6 4 2 2 0 2 2 4"
    ascent="800"
    descent="-200"
    x-height="529"
    cap-height="692"
    bbox="-502 -219 1240 1132"
    underline-thickness="20"
    underline-position="-143"
    unicode-range="U+0017-F64C"
  />
<missing-glyph horiz-adv-x="614" 
d="M506 782q59 0 59 -86v-762q0 -86 -59 -86h-400q-58 0 -58 86v762q0 86 58 86h400zM207 519q15 15 31.5 23.5t38.5 8.5q17 0 34.5 -5.5t31.5 -16t23 -25.5t9 -34q0 -22 -13 -37.5t-33 -28t-44.5 -25t-48 -30t-43.5 -41.5t-31 -60l114 -44q9 25 27.5 41t41.5 28.5t47 23.5
t42 26q15 12 29 29.5t25.5 39t18 46t6.5 50.5q0 49 -23.5 87.5t-59 64.5t-78 39.5t-80.5 13.5q-42 0 -75 -14.5t-58 -36.5zM162 151q-32 0 -53.5 -25t-21.5 -60q0 -37 23 -59.5t52 -22.5t51.5 24t22.5 61q0 36 -22.5 59t-51.5 23z" />
    <glyph glyph-name=".notdef" horiz-adv-x="614" 
d="M506 782q59 0 59 -86v-762q0 -86 -59 -86h-400q-58 0 -58 86v762q0 86 58 86h400zM207 519q15 15 31.5 23.5t38.5 8.5q17 0 34.5 -5.5t31.5 -16t23 -25.5t9 -34q0 -22 -13 -37.5t-33 -28t-44.5 -25t-48 -30t-43.5 -41.5t-31 -60l114 -44q9 25 27.5 41t41.5 28.5t47 23.5
t42 26q15 12 29 29.5t25.5 39t18 46t6.5 50.5q0 49 -23.5 87.5t-59 64.5t-78 39.5t-80.5 13.5q-42 0 -75 -14.5t-58 -36.5zM162 151q-32 0 -53.5 -25t-21.5 -60q0 -37 23 -59.5t52 -22.5t51.5 24t22.5 61q0 36 -22.5 59t-51.5 23z" />
    <glyph glyph-name="uni0017" horiz-adv-x="299" 
 />
    <glyph glyph-name="space" unicode=" " horiz-adv-x="262" 
 />
    <glyph glyph-name="exclam" unicode="!" horiz-adv-x="226" 
d="M165 704l-17 -498h-71l-17 498h105zM112 107q24 0 39.5 -15.5t15.5 -41.5q0 -25 -15.5 -41t-39.5 -16t-39 16t-15 41q0 26 15 41.5t39 15.5z" />
    <glyph glyph-name="quotedbl" unicode="&#x22;" horiz-adv-x="316" 
d="M36 408zM280 739l-17 -331h-58l-17 331h92zM128 739l-17 -331h-58l-17 331h92z" />
    <glyph glyph-name="numbersign" unicode="#" 
d="M155 245l36 192h-120v54h130l38 201h56l-38 -201h158l38 201h55l-38 -201h102v-54h-112l-36 -192h113v-54h-123l-35 -191h-55l35 191h-158l-36 -191h-55l35 191h-109v54h119zM211 245h158l36 192h-158z" />
    <glyph glyph-name="dollar" unicode="$" 
d="M355 757v-97q68 -8 111.5 -35.5t67.5 -57.5l-62 -55q-26 29 -66 49.5t-99 20.5q-58 0 -91.5 -22.5t-33.5 -60.5q0 -25 15.5 -40.5t41.5 -26.5q21 -8 46.5 -13.5t52 -11t53 -11.5t49.5 -15q47 -19 78 -53.5t31 -94.5q0 -41 -14.5 -72t-40 -53.5t-61.5 -36t-78 -18.5v-118
h-76v116q-78 5 -133.5 35t-87.5 72l67 55q31 -38 76.5 -61t111.5 -23q67 0 108 26.5t41 76.5q0 32 -18 50.5t-47 28.5q-20 7 -44 13t-50.5 11.5t-53 12t-50.5 16.5q-48 19 -75.5 49.5t-27.5 81.5q0 68 47 112.5t136 52.5v97h76z" />
    <glyph glyph-name="percent" unicode="%" 
d="M0 0zM552 692l-426 -692h-68l425 692h69zM470 366q61 0 100 -50t39 -148q0 -97 -39 -147t-100 -50q-60 0 -98.5 50t-38.5 147q0 98 38.5 148t98.5 50zM470 307q-35 0 -56.5 -35t-21.5 -104t21.5 -103.5t56.5 -34.5q36 0 58 34.5t22 103.5t-22 104t-58 35zM136 721
q61 0 100 -50t39 -148q0 -97 -39 -147t-100 -50q-60 0 -98.5 50t-38.5 147q0 98 38.5 148t98.5 50zM136 662q-35 0 -56.5 -35t-21.5 -104t21.5 -103.5t56.5 -34.5q36 0 58 34.5t22 103.5t-22 104t-58 35z" />
    <glyph glyph-name="ampersand" unicode="&#x26;" horiz-adv-x="673" 
d="M417 576q-16 36 -45 59t-71 23q-48 0 -75.5 -30t-27.5 -76q0 -17 4.5 -38t17 -46.5t34.5 -56.5t56 -68q32 -35 71 -71t80 -69q19 35 29 75.5t10 82.5h94q-1 -59 -14 -115t-39 -104q32 -24 62 -43.5t56 -33.5l-49 -87q-28 17 -60.5 38.5t-67.5 47.5q-37 -36 -87 -56.5
t-115 -20.5q-56 0 -100.5 15.5t-75.5 44.5t-48 71t-17 95q0 71 29 117t84 75q-25 44 -35.5 82t-10.5 73q0 84 51 135t142 51q72 0 119 -32.5t68 -80.5zM276 75q36 0 68.5 14t58.5 38q-38 32 -76 68t-73 75q-18 19 -33 37t-28 35q-29 -19 -46 -49t-17 -71q0 -35 11.5 -62.5
t31.5 -46.5t46.5 -28.5t56.5 -9.5z" />
    <glyph glyph-name="quotesingle" unicode="'" horiz-adv-x="164" 
d="M128 739l-17 -331h-58l-17 331h92z" />
    <glyph glyph-name="parenleft" unicode="(" horiz-adv-x="377" 
d="M346 892q-94 -135 -135.5 -272.5t-41.5 -277.5t41.5 -277.5t135.5 -272.5h-72q-90 134 -130 270t-40 280t40 280t130 270h72z" />
    <glyph glyph-name="parenright" unicode=")" horiz-adv-x="377" 
d="M31 -208q94 135 135.5 272.5t41.5 277.5t-41.5 277.5t-135.5 272.5h72q90 -134 130 -270t40 -280t-40 -280t-130 -270h-72z" />
    <glyph glyph-name="asterisk" unicode="*" horiz-adv-x="452" 
d="M204 548l-11 191h65l-10 -190l176 68l21 -62l-182 -48l118 -149l-52 -38l-102 160l-102 -161l-53 38l118 149l-182 48l19 62z" />
    <glyph glyph-name="plus" unicode="+" 
d="M336 614v-235h228v-65h-228v-235h-64v235h-227v65h227v235h64z" />
    <glyph glyph-name="comma" unicode="," horiz-adv-x="189" 
d="M163 81l-87 -221l-54 18l47 232z" />
    <glyph glyph-name="hyphen" unicode="-" horiz-adv-x="359" 
d="M330 366v-74h-301v74h301z" />
    <glyph glyph-name="period" unicode="." horiz-adv-x="188" 
d="M94 107q24 0 39.5 -15.5t15.5 -41.5q0 -25 -15.5 -41t-39.5 -16q-23 0 -38.5 16t-15.5 41q0 26 15.5 41.5t38.5 15.5z" />
    <glyph glyph-name="slash" unicode="/" horiz-adv-x="327" 
d="M320 792l-245 -900h-69l245 900h69z" />
    <glyph glyph-name="zero" unicode="0" horiz-adv-x="636" 
d="M317 705q55 0 101.5 -23t80 -68.5t52 -113t18.5 -155.5t-18.5 -155t-52 -112t-80 -68t-101.5 -23q-54 0 -100 23t-79.5 68t-52 112t-18.5 155t18.5 155.5t52 113t79.5 68.5t100 23zM317 615q-72 0 -116 -68t-44 -202t44 -201t116 -67q73 0 117.5 67t44.5 201t-44.5 202
t-117.5 68z" />
    <glyph glyph-name="one" unicode="1" horiz-adv-x="298" 
d="M71 617q29 0 43 18.5t17 56.5h85v-692h-95v531h-88v86h38z" />
    <glyph glyph-name="two" unicode="2" horiz-adv-x="574" 
d="M58 583q40 60 102 91t136 31q46 0 87 -12.5t72 -37t49 -62t18 -88.5q0 -52 -20 -89t-61 -66q-23 -15 -50 -28.5t-55 -26t-55.5 -26.5t-51.5 -31q-46 -33 -59.5 -68t-13.5 -79h364v-91h-471v32q0 83 19 143.5t70 104.5q24 19 53.5 35t59 29.5t57.5 26t49 24.5
q36 21 53.5 45.5t17.5 60.5q0 30 -10.5 51.5t-28 35.5t-41 20.5t-49.5 6.5q-55 0 -100 -25.5t-77 -70.5z" />
    <glyph glyph-name="three" unicode="3" horiz-adv-x="578" 
d="M93 615q44 42 97.5 66t113.5 24q38 0 74 -10.5t64 -33.5t45 -59t17 -87q0 -88 -53 -133q42 -19 67 -57.5t25 -104.5q0 -54 -17.5 -97t-50 -73t-78.5 -46.5t-104 -16.5q-46 0 -83 10t-67 28t-54.5 42t-44.5 51l73 62q28 -44 75 -73.5t107 -29.5q30 0 57.5 8.5t48.5 26
t33.5 44t12.5 62.5q0 59 -35.5 85t-110.5 26h-71v87h72q48 0 79 19.5t31 73.5q0 30 -10 50t-26 32.5t-36.5 18t-42.5 5.5q-46 0 -87 -18.5t-68 -47.5z" />
    <glyph glyph-name="four" unicode="4" horiz-adv-x="595" 
d="M483 692v-467h72v-82h-72v-143h-95v143h-348v90l353 459h90zM388 225v323l-250 -323h250z" />
    <glyph glyph-name="five" unicode="5" horiz-adv-x="616" 
d="M512 692v-91h-326l-14 -165q35 22 77 35t89 13q45 0 85 -13.5t70.5 -42.5t48 -73.5t17.5 -106.5q0 -70 -22.5 -119.5t-60 -81t-86 -46t-99.5 -14.5q-48 0 -85.5 11.5t-67.5 30t-53 42t-41 47.5l73 63q27 -42 72.5 -72.5t108.5 -30.5q35 0 65 11t52.5 32.5t35 53.5
t12.5 73q0 78 -42 115t-105 37q-45 0 -85 -19.5t-72 -54.5l-82 26l31 340h404z" />
    <glyph glyph-name="six" unicode="6" horiz-adv-x="614" 
d="M451 601q-130 -2 -200 -59t-88 -160q31 33 76 55t103 22q49 0 88.5 -16t67.5 -45t43.5 -69.5t15.5 -89.5q0 -51 -17 -97t-48.5 -80.5t-77.5 -54.5t-103 -20q-66 0 -112 25.5t-75.5 69t-43 99.5t-13.5 118q0 87 25.5 159t74.5 123.5t120.5 80.5t163.5 30v-91zM330 380
q-53 0 -97.5 -24.5t-76.5 -66.5q1 -46 11 -84.5t29 -67t48.5 -44.5t69.5 -16q37 0 66 13t49.5 35.5t31 51.5t10.5 62q0 63 -36.5 102t-104.5 39z" />
    <glyph glyph-name="seven" unicode="7" horiz-adv-x="527" 
d="M497 692v-79q-61 -71 -103 -143t-70.5 -147t-46 -155t-29.5 -168h-96q10 85 26.5 165t43 155t64 145t88.5 136h-345v91h468z" />
    <glyph glyph-name="eight" unicode="8" horiz-adv-x="565" 
d="M35 204q0 67 28.5 109.5t73.5 65.5q-29 23 -46 58.5t-17 83.5q0 49 18 84t47.5 57t67 32.5t76.5 10.5q38 0 75 -10.5t66.5 -32.5t47.5 -57t18 -84q0 -48 -16.5 -83.5t-45.5 -58.5q45 -23 73.5 -65.5t28.5 -109.5q0 -48 -16 -88t-47 -68.5t-77.5 -44.5t-106.5 -16
q-61 0 -107 16t-77.5 44.5t-47.5 68.5t-16 88zM128 208q0 -31 12 -55.5t32.5 -41t49 -25.5t61.5 -9t61 9t48.5 25.5t32.5 41t12 55.5t-12 54t-33 38.5t-49 23t-60 7.5q-33 0 -61 -7.5t-49 -23t-33 -38.5t-12 -54zM162 512q0 -26 10 -45t26.5 -31t38.5 -18t46 -6t45.5 6
t38 18t26.5 31t10 45q0 27 -10 46t-26.5 32t-38.5 19t-45 6q-24 0 -45.5 -6t-38.5 -19t-27 -32t-10 -46z" />
    <glyph glyph-name="nine" unicode="9" horiz-adv-x="614" 
d="M163 91q129 1 199.5 59t88.5 160q-31 -33 -76 -55t-104 -22q-48 0 -87.5 16t-67.5 45t-43.5 69.5t-15.5 89.5q0 51 17 97t49 80.5t77.5 54.5t103.5 20q65 0 111 -25.5t75.5 -69t43 -100t13.5 -117.5q0 -87 -25.5 -159t-74.5 -123.5t-120.5 -80.5t-163.5 -30v91zM284 312
q53 0 97.5 24t76.5 66q-1 46 -11 85t-29 67.5t-48.5 44.5t-69.5 16q-37 0 -66 -13t-49.5 -35.5t-31 -51.5t-10.5 -62q0 -63 36.5 -102t104.5 -39z" />
    <glyph glyph-name="colon" unicode=":" horiz-adv-x="221" 
d="M56 63zM110 507q24 0 39.5 -15.5t15.5 -41.5q0 -25 -15.5 -41t-39.5 -16q-23 0 -38.5 16t-15.5 41q0 26 15.5 41.5t38.5 15.5zM110 177q24 0 39.5 -15.5t15.5 -41.5q0 -25 -15.5 -41t-39.5 -16q-23 0 -38.5 16t-15.5 41q0 26 15.5 41.5t38.5 15.5z" />
    <glyph glyph-name="semicolon" unicode=";" horiz-adv-x="221" 
d="M26 0zM167 151l-87 -221l-54 18l47 232zM110 507q24 0 39.5 -15.5t15.5 -41.5q0 -25 -15.5 -41t-39.5 -16q-23 0 -38.5 16t-15.5 41q0 26 15.5 41.5t38.5 15.5z" />
    <glyph glyph-name="less" unicode="&#x3c;" 
d="M564 591v-69l-441 -176l441 -174v-69l-519 210v67z" />
    <glyph glyph-name="equal" unicode="=" 
d="M564 498v-64h-519v64h519zM564 258v-64h-519v64h519z" />
    <glyph glyph-name="greater" unicode="&#x3e;" 
d="M44 103v69l440 175l-440 175v69l519 -210v-67z" />
    <glyph glyph-name="question" unicode="?" horiz-adv-x="478" 
d="M14 610q14 23 33.5 43.5t46 36t60 24.5t75.5 9q51 0 90 -13.5t65.5 -38t40 -58.5t13.5 -74q0 -42 -12.5 -73t-31.5 -54q-24 -30 -54 -53.5t-50 -48.5q-21 -25 -26.5 -48t-5.5 -56h-84q0 48 8.5 78.5t28.5 57.5q22 29 49 50t49 44q18 20 28.5 42t10.5 50q0 48 -33 77.5
t-92 29.5q-52 0 -85.5 -22t-54.5 -60zM213 107q23 0 38.5 -15.5t15.5 -41.5q0 -25 -15.5 -41t-38.5 -16q-25 0 -40 16t-15 41q0 26 15 41.5t40 15.5z" />
    <glyph glyph-name="at" unicode="@" horiz-adv-x="754" 
d="M521 409v-239q0 -31 11.5 -41t27.5 -10q22 0 38.5 12t27 34t16 52t5.5 65q0 71 -20.5 121.5t-54.5 82t-78.5 46t-92.5 14.5q-64 0 -115 -22.5t-86.5 -64t-54.5 -99.5t-19 -128q0 -85 25.5 -145t66 -98.5t90 -57.5t97.5 -22l-19 -64q-62 4 -121.5 28t-106 70.5t-75.5 117
t-29 168.5q0 93 26.5 164.5t73 120t110 73t136.5 24.5q62 0 118.5 -19t99 -58t67.5 -100t25 -145q0 -107 -42 -167.5t-114 -60.5q-35 0 -57.5 14t-31.5 40q-17 -24 -41 -39t-57 -15t-56.5 15.5t-38 41t-21.5 57t-7 64.5t6.5 65t21.5 57.5t38.5 41t56.5 15.5q31 0 54.5 -13.5
t40.5 -35.5v40h59zM382 119q26 0 44.5 14.5t31.5 40.5v131q-14 26 -32.5 41t-44.5 15q-22 0 -36.5 -10t-23.5 -27t-13 -39t-4 -45q0 -24 4.5 -45.5t13.5 -38.5t24 -27t36 -10z" />
    <glyph glyph-name="A" unicode="A" horiz-adv-x="668" 
d="M387 692l266 -692h-108l-55 149h-313l-54 -149h-108l263 692h109zM210 240h246l-124 335z" />
    <glyph glyph-name="B" unicode="B" horiz-adv-x="643" 
d="M381 692q45 0 82.5 -11.5t64.5 -35t42 -58t15 -79.5q0 -108 -86 -148q50 -20 79.5 -60t29.5 -106q0 -93 -58.5 -143.5t-168.5 -50.5h-300v692h300zM181 92h199q66 0 99 27.5t33 80.5q0 57 -37 84t-106 27h-188v-219zM181 395h203q44 0 74.5 26t30.5 78q0 51 -29.5 75.5
t-75.5 24.5h-203v-204z" />
    <glyph glyph-name="C" unicode="C" horiz-adv-x="673" 
d="M551 496q-30 54 -72 84t-106 30q-94 0 -151 -66.5t-57 -198.5q0 -131 57 -197.5t151 -66.5q57 0 98 25t76 81l76 -55q-87 -145 -252 -145q-66 0 -122.5 23t-97.5 68t-64.5 112t-23.5 156q0 88 23.5 155t64.5 112.5t98 68.5t124 23q95 0 157 -43t95 -110z" />
    <glyph glyph-name="D" unicode="D" horiz-adv-x="705" 
d="M284 692q75 0 140.5 -24t114 -68.5t76 -108t27.5 -143.5t-28 -144.5t-76.5 -109.5t-113.5 -69.5t-140 -24.5h-203v692h203zM184 94h101q53 0 99 17t80.5 49.5t54.5 79.5t20 107q0 59 -19.5 105.5t-54 78.5t-81 49t-99.5 17h-101v-503z" />
    <glyph glyph-name="E" unicode="E" horiz-adv-x="574" 
d="M518 692v-95h-335v-197h249v-92h-249v-213h342v-95h-444v692h437z" />
    <glyph glyph-name="F" unicode="F" horiz-adv-x="523" 
d="M497 692v-95h-314v-208h234v-93h-234v-296h-102v692h416z" />
    <glyph glyph-name="G" unicode="G" horiz-adv-x="705" 
d="M648 369v-81q0 -68 -18.5 -123t-53.5 -95t-86.5 -61.5t-117.5 -21.5q-67 0 -123.5 23t-98 68t-64.5 111.5t-23 154.5t23.5 155.5t64.5 113t98 69t124 23.5q95 0 157 -43t95 -110l-74 -56q-29 54 -71.5 84t-107.5 30q-93 0 -150 -67t-57 -198t57 -197.5t150 -66.5
q78 0 127 50t51 150h-157v88h255z" />
    <glyph glyph-name="H" unicode="H" horiz-adv-x="683" 
d="M183 692v-291h317v291h102v-692h-102v306h-317v-306h-102v692h102z" />
    <glyph glyph-name="I" unicode="I" horiz-adv-x="265" 
d="M184 692v-692h-103v692h103z" />
    <glyph glyph-name="J" unicode="J" horiz-adv-x="576" 
d="M504 692v-433q0 -57 -18.5 -105.5t-52 -84t-81 -55.5t-105.5 -20q-38 0 -73.5 10t-66.5 29t-55 47t-38 64l77 57q23 -57 65.5 -85t92.5 -28q69 0 111 45t42 126v433h102z" />
    <glyph glyph-name="K" unicode="K" horiz-adv-x="634" 
d="M583 692l-221 -272l258 -420h-114l-208 341l-115 -141v-200h-102v692h102v-357l287 357h113z" />
    <glyph glyph-name="L" unicode="L" horiz-adv-x="562" 
d="M183 692v-597h354v-95h-456v692h102z" />
    <glyph glyph-name="M" unicode="M" horiz-adv-x="815" 
d="M187 692l228 -513l228 513h101v-692h-102v453l-207 -453h-45l-207 456v-456h-102v692h106z" />
    <glyph glyph-name="N" unicode="N" horiz-adv-x="686" 
d="M183 692l330 -510v510h102v-692h-95l-337 505v-505h-102v692h102z" />
    <glyph glyph-name="O" unicode="O" horiz-adv-x="729" 
d="M363 705q66 0 121.5 -23t95.5 -68.5t62.5 -113t22.5 -155.5t-22.5 -155t-62.5 -112t-95.5 -68t-121.5 -23t-121 23t-94.5 68t-62 112t-22.5 155t22.5 155.5t62 113t94.5 68.5t121 23zM363 610q-44 0 -80.5 -17t-62.5 -50t-40.5 -82.5t-14.5 -115.5q0 -65 14.5 -114.5
t40.5 -82.5t62.5 -50t80.5 -17q45 0 82 17t63.5 50t41 82.5t14.5 114.5q0 66 -14.5 115.5t-41 82.5t-63.5 50t-82 17z" />
    <glyph glyph-name="P" unicode="P" horiz-adv-x="643" 
d="M369 692q53 0 96 -14t74 -41t47.5 -67.5t16.5 -94.5t-16.5 -94.5t-47.5 -68t-74 -41t-96 -13.5h-186v-258h-102v692h288zM183 348h187q62 0 99.5 31t37.5 95q0 63 -37.5 94t-99.5 31h-187v-251z" />
    <glyph glyph-name="Q" unicode="Q" horiz-adv-x="729" 
d="M363 705q66 0 121.5 -23t95.5 -68.5t62.5 -113t22.5 -155.5q0 -92 -24 -160t-66 -113l57 -76l-72 -55l-58 77q-64 -31 -139 -31q-66 0 -121 23t-94.5 68t-62 112t-22.5 155t22.5 155.5t62 113t94.5 68.5t121 23zM418 281l95 -127q24 33 37.5 80.5t13.5 110.5
q0 66 -14.5 115.5t-41 82.5t-63.5 50t-82 17q-44 0 -80.5 -17t-62.5 -50t-40.5 -82.5t-14.5 -115.5q0 -65 14.5 -114.5t40.5 -82.5t62.5 -50t80.5 -17t79 16l-96 129z" />
    <glyph glyph-name="R" unicode="R" horiz-adv-x="653" 
d="M364 692q52 0 95 -13.5t74 -40t47.5 -66.5t16.5 -93q0 -83 -39 -133t-106 -69l178 -277h-116l-166 266h-165v-266h-102v692h283zM183 354h183q60 0 97 30t37 93t-37 92.5t-97 29.5h-183v-245z" />
    <glyph glyph-name="S" unicode="S" horiz-adv-x="635" 
d="M107 179q36 -43 90.5 -70t129.5 -27q78 0 125 31t47 89q0 39 -21 59t-54 32q-24 9 -52.5 15.5t-58 13t-59.5 14t-58 18.5q-55 22 -86.5 57.5t-31.5 95.5q0 42 16.5 77t48 60.5t78 40t105.5 14.5q50 0 90 -9.5t71.5 -25.5t55 -35.5t38.5 -39.5l-71 -63q-30 34 -76 57.5
t-112 23.5q-68 0 -107 -26t-39 -70q0 -33 20 -50.5t46 -28.5q24 -9 52.5 -15.5t58.5 -12.5t60.5 -13.5t59.5 -18.5q25 -10 47.5 -23.5t39.5 -34t27.5 -47.5t10.5 -64q0 -53 -21 -92.5t-58.5 -65.5t-88 -39.5t-109.5 -13.5q-104 0 -176.5 36t-113.5 89z" />
    <glyph glyph-name="T" unicode="T" horiz-adv-x="571" 
d="M545 692v-95h-208v-597h-102v597h-210v95h520z" />
    <glyph glyph-name="U" unicode="U" horiz-adv-x="668" 
d="M175 692v-433q0 -42 12 -74t33.5 -53.5t50.5 -32.5t62 -11t62 11t51 32.5t34.5 53.5t12.5 74v433h102v-433q0 -66 -20.5 -116t-56.5 -83t-83.5 -49.5t-101.5 -16.5t-101.5 16.5t-83 49.5t-56 83t-20.5 116v433h103z" />
    <glyph glyph-name="V" unicode="V" horiz-adv-x="668" 
d="M125 692l210 -569l207 569h111l-264 -692h-109l-265 692h110z" />
    <glyph glyph-name="W" unicode="W" horiz-adv-x="884" 
d="M124 692l123 -507l146 507h99l144 -507l126 507h106l-174 -692h-99l-153 507l-158 -507h-97l-171 692h108z" />
    <glyph glyph-name="X" unicode="X" horiz-adv-x="648" 
d="M618 692l-231 -334l246 -358h-122l-191 284l-187 -284h-118l249 368l-229 324h117l177 -259l175 259h114z" />
    <glyph glyph-name="Y" unicode="Y" horiz-adv-x="642" 
d="M128 692l194 -344l196 344h114l-260 -437v-255h-101v255l-261 437h118z" />
    <glyph glyph-name="Z" unicode="Z" horiz-adv-x="591" 
d="M535 692v-98l-355 -499h355v-95h-476v101l361 496h-346v95h461z" />
    <glyph glyph-name="bracketleft" unicode="[" horiz-adv-x="377" 
d="M327 892v-65h-139v-970h139v-65h-203v1100h203z" />
    <glyph glyph-name="backslash" unicode="\" horiz-adv-x="327" 
d="M75 792l245 -900h-69l-245 900h69z" />
    <glyph glyph-name="bracketright" unicode="]" horiz-adv-x="377" 
d="M50 -208v65h139v970h-139v65h203v-1100h-203z" />
    <glyph glyph-name="asciicircum" unicode="^" 
d="M338 692l180 -415h-69l-145 339l-145 -339h-69l180 415h68z" />
    <glyph glyph-name="underscore" unicode="_" horiz-adv-x="524" 
d="M528 -71v-65h-528v65h528z" />
    <glyph glyph-name="grave" unicode="`" horiz-adv-x="290" 
d="M121 822l116 -218l-48 -31l-136 204z" />
    <glyph glyph-name="a" unicode="a" horiz-adv-x="559" 
d="M93 486q29 22 76 39t113 17q45 0 82.5 -10.5t65 -34.5t42.5 -63.5t15 -97.5v-336h-88v38q-68 -45 -156 -45q-40 0 -74.5 10t-60 31t-40.5 53t-15 76q0 43 15 76.5t42 55.5t64 33.5t81 11.5q35 0 71 -7t68 -21v18q0 35 -8.5 58.5t-24.5 37.5t-39 20t-51 6q-42 0 -76.5 -11
t-63.5 -31zM264 72q32 0 66.5 8t63.5 23v147q-27 10 -57.5 15t-58.5 5q-57 0 -96 -24.5t-39 -77.5q0 -26 9.5 -44t26 -29.5t38.5 -17t47 -5.5z" />
    <glyph glyph-name="b" unicode="b" horiz-adv-x="584" 
d="M171 739v-271q26 32 64 53t90 21q55 0 93.5 -24t62.5 -63.5t35 -89.5t11 -101t-11 -101t-35 -89t-62.5 -63t-93.5 -24q-54 0 -93.5 22.5t-65.5 57.5v-67h-90v706zM303 455q-48 0 -80 -24.5t-52 -61.5v-208q20 -39 51.5 -62.5t79.5 -23.5q38 0 63.5 15.5t41.5 42
t22.5 60.5t6.5 72q0 37 -6.5 71.5t-22.5 60.5t-41.5 42t-62.5 16z" />
    <glyph glyph-name="c" unicode="c" horiz-adv-x="508" 
d="M414 376q-17 38 -47.5 58t-70.5 20q-30 0 -57 -12t-46.5 -35.5t-31 -59t-11.5 -83.5t11.5 -83.5t30.5 -59t44.5 -35t54.5 -11.5q41 0 71 20.5t50 53.5l68 -50q-9 -15 -24.5 -34.5t-39.5 -36.5t-56.5 -29t-73.5 -12q-47 0 -89 18t-73 53t-49 87t-18 120t18 119.5
t50.5 86.5t76 53t94.5 18q72 0 119.5 -31t67.5 -79z" />
    <glyph glyph-name="d" unicode="d" horiz-adv-x="584" 
d="M508 739v-739h-89v68q-26 -35 -66 -58t-95 -23t-93 24t-62 63t-34.5 89t-10.5 101t10.5 101t34.5 89.5t62 63.5t93 24q52 0 90.5 -21t64.5 -53v239zM282 75q47 0 78.5 23.5t52.5 61.5v209q-21 37 -52.5 61.5t-79.5 24.5q-38 0 -63 -16t-41 -42.5t-22.5 -61t-6.5 -71.5
t6.5 -71t22.5 -60.5t41.5 -42t63.5 -15.5z" />
    <glyph glyph-name="e" unicode="e" horiz-adv-x="561" 
d="M146 232q4 -41 17 -71t32.5 -49.5t44 -29t50.5 -9.5q39 0 68.5 18t47.5 44l63 -55q-11 -15 -27.5 -31.5t-39 -30t-51.5 -22.5t-65 -9q-47 0 -89 17.5t-73 52.5t-49 87.5t-18 122.5q0 66 16.5 117.5t46 86.5t70.5 53t90 18t90 -18t71 -53t46.5 -86.5t16.5 -117.5
q0 -10 -0.5 -18.5t-1.5 -16.5h-356zM281 456q-55 0 -91 -39.5t-44 -113.5h269q-8 76 -44 114.5t-90 38.5z" />
    <glyph glyph-name="f" unicode="f" horiz-adv-x="302" 
d="M283 659q-7 2 -20 3.5t-28 1.5q-25 0 -41.5 -12t-16.5 -46v-77h104v-78h-104v-451h-95v451h-60v78h60v92q0 37 9.5 60.5t26.5 37.5t40.5 19.5t51.5 5.5q26 0 44 -2t29 -5v-78z" />
    <glyph glyph-name="g" unicode="g" horiz-adv-x="584" 
d="M508 529v-428q0 -72 -17 -124t-52 -88t-89.5 -59t-130.5 -38l-11 85q55 13 95 29.5t66 40.5t38 55.5t12 74.5v19q-26 -32 -66 -53t-94 -21q-55 0 -93.5 23t-62.5 59.5t-34.5 83t-10.5 94.5t10.5 94.5t34.5 83t62.5 59.5t93.5 23q54 0 94 -21.5t66 -53.5v62h89zM282 105
q51 0 83.5 24.5t53.5 62.5v178q-21 38 -53.5 62t-82.5 24q-38 0 -64 -14.5t-42 -39t-22.5 -56t-6.5 -65.5t6.5 -66t22.5 -56.5t41.5 -39t63.5 -14.5z" />
    <glyph glyph-name="h" unicode="h" horiz-adv-x="586" 
d="M171 739v-269q60 72 162 72q40 0 73.5 -11.5t57.5 -36.5t37 -64.5t13 -94.5v-335h-95v325q0 69 -31.5 98t-84.5 29q-42 0 -76 -20t-56 -73v-359h-95v707z" />
    <glyph glyph-name="i" unicode="i" horiz-adv-x="247" 
d="M69 0zM171 529v-529h-95v529h95zM123 731q24 0 39.5 -15.5t15.5 -41.5q0 -25 -15.5 -41t-39.5 -16t-39 16t-15 41q0 26 15 41.5t39 15.5z" />
    <glyph glyph-name="j" unicode="j" horiz-adv-x="286" 
d="M15 0zM209 529v-588q0 -53 -13.5 -83t-38.5 -44.5t-61 -18t-81 -3.5v86q56 0 77.5 14.5t21.5 58.5v578h95zM162 731q24 0 39.5 -15.5t15.5 -41.5q0 -25 -15.5 -41t-39.5 -16t-39 16t-15 41q0 26 15 41.5t39 15.5z" />
    <glyph glyph-name="k" unicode="k" horiz-adv-x="546" 
d="M503 529l-183 -208l212 -321h-103l-168 253l-90 -102v-151h-95v707l95 32v-472l229 262h103z" />
    <glyph glyph-name="l" unicode="l" horiz-adv-x="247" 
d="M171 739v-739h-95v707z" />
    <glyph glyph-name="m" unicode="m" horiz-adv-x="897" 
d="M166 529v-63q56 76 158 76q54 0 94.5 -22.5t60.5 -73.5q58 96 172 96q39 0 71 -11.5t55 -36.5t35.5 -64.5t12.5 -94.5v-335h-95v325q0 69 -29.5 98t-79.5 29q-40 0 -71 -20t-52 -71v-361h-95v325q0 69 -29.5 98t-78.5 29q-39 0 -71.5 -19.5t-52.5 -70.5v-362h-95v529h90z
" />
    <glyph glyph-name="n" unicode="n" horiz-adv-x="586" 
d="M166 529v-65q60 78 167 78q40 0 73.5 -11.5t57.5 -36.5t37 -64.5t13 -94.5v-335h-95v325q0 69 -31.5 98t-84.5 29q-42 0 -76 -20t-56 -73v-359h-95v529h90z" />
    <glyph glyph-name="o" unicode="o" horiz-adv-x="561" 
d="M281 542q48 0 89 -18t71 -53t46.5 -86.5t16.5 -119.5t-16.5 -120t-46 -87t-70.5 -53t-90 -18q-50 0 -91 18t-70.5 53t-46 87t-16.5 120t16.5 119.5t46.5 86.5t71 53t90 18zM281 454q-60 0 -96.5 -48t-36.5 -142t36.5 -141.5t96.5 -47.5q59 0 96 47.5t37 141.5t-37 142
t-96 48z" />
    <glyph glyph-name="p" unicode="p" horiz-adv-x="584" 
d="M166 529v-67q26 35 65.5 57.5t93.5 22.5q55 0 93.5 -24t62.5 -63t35 -89t11 -101t-11 -101t-35 -89.5t-62.5 -63.5t-93.5 -24q-52 0 -90 21t-64 53v-237l-95 -32v737h90zM302 455q-48 0 -79.5 -24.5t-51.5 -62.5v-208q20 -37 52 -61t80 -24q37 0 62.5 15.5t41.5 42
t22.5 60.5t6.5 72q0 37 -6.5 71.5t-22.5 61t-41.5 42t-63.5 15.5z" />
    <glyph glyph-name="q" unicode="q" horiz-adv-x="584" 
d="M508 529v-695l-95 -33v259q-26 -32 -64.5 -52.5t-90.5 -20.5q-55 0 -93 24t-62 63.5t-34.5 89.5t-10.5 101t10.5 101t34.5 89t62 63t93 24t95 -23t66 -58v68h89zM282 75q47 0 78.5 24t52.5 61v210q-21 38 -52.5 61.5t-78.5 23.5q-38 0 -63.5 -15.5t-41.5 -42t-22.5 -61
t-6.5 -71.5q0 -38 6.5 -72t22.5 -60.5t41.5 -42t63.5 -15.5z" />
    <glyph glyph-name="r" unicode="r" horiz-adv-x="429" 
d="M376 426q-14 14 -33 20t-43 6q-41 0 -73.5 -19.5t-55.5 -75.5v-357h-95v529h90v-64q57 77 152 77q35 0 57 -9.5t36 -22.5z" />
    <glyph glyph-name="s" unicode="s" horiz-adv-x="476" 
d="M404 390q-26 28 -68.5 47.5t-93.5 19.5t-75 -19t-24 -46q0 -20 12 -33t33 -22q18 -8 40.5 -14t46.5 -13t49 -15t47 -19q41 -20 60.5 -48.5t19.5 -74.5q0 -47 -18 -78.5t-48 -51t-68 -28t-77 -8.5q-36 0 -68.5 6t-59.5 16.5t-48.5 24t-36.5 28.5l37 80q29 -27 75 -47
t100 -20q51 0 84.5 20t33.5 58q0 22 -13.5 36t-43.5 26q-21 9 -45 16t-47.5 13.5t-45 13.5t-38.5 15q-34 17 -54.5 45t-20.5 72q0 36 15 64.5t41 48t62.5 29.5t78.5 10q68 0 117 -22t76 -48z" />
    <glyph glyph-name="t" unicode="t" horiz-adv-x="333" 
d="M82 529v143l95 31v-174h135v-78h-135v-300q0 -64 62 -64q21 0 39.5 7.5t36.5 24.5l-16 -87q-14 -17 -41.5 -27t-56.5 -10q-49 0 -84 33.5t-35 101.5v321h-60v78h60z" />
    <glyph glyph-name="u" unicode="u" horiz-adv-x="586" 
d="M167 529v-333q0 -63 32.5 -91t83.5 -28q42 0 75.5 20t56.5 74v358h95v-529h-90v66q-61 -79 -167 -79q-40 0 -73.5 11.5t-57.5 35t-37 60t-13 86.5v349h95z" />
    <glyph glyph-name="v" unicode="v" horiz-adv-x="526" 
d="M110 529l153 -419l152 419h97l-202 -529h-94l-202 529h96z" />
    <glyph glyph-name="w" unicode="w" horiz-adv-x="694" 
d="M106 529l91 -372l113 372h76l111 -372l93 372h89l-133 -529h-83l-116 383l-118 -383h-83l-130 529h90z" />
    <glyph glyph-name="x" unicode="x" horiz-adv-x="552" 
d="M512 529l-179 -244l205 -285h-107l-156 222l-155 -222h-106l206 291l-172 238h103l129 -180l128 180h104z" />
    <glyph glyph-name="y" unicode="y" horiz-adv-x="534" 
d="M112 529l151 -402l162 402h96l-288 -715h-96l80 199l-203 516h98z" />
    <glyph glyph-name="z" unicode="z" horiz-adv-x="527" 
d="M469 529v-80l-300 -371h305v-78h-417v82l304 369h-291v78h399z" />
    <glyph glyph-name="braceleft" unicode="{" horiz-adv-x="377" 
d="M327 819q-7 3 -18.5 5t-22.5 2q-23 0 -36.5 -11.5t-21.5 -36.5t-11.5 -66t-5.5 -99q-2 -59 -5 -104.5t-10.5 -78.5t-20.5 -55t-34 -34q21 -12 34 -34t20.5 -55.5t10.5 -78.5t5 -104t5.5 -99.5t11.5 -65.5t21.5 -36.5t36.5 -11.5q11 0 22.5 2t18.5 6v-66q-8 -4 -22.5 -5
t-25.5 -1q-45 0 -70 19.5t-38 55.5t-17.5 87.5t-6.5 114.5q-2 67 -5 113t-11.5 75t-25 42t-46.5 13h-23v59h23q30 0 46.5 13t25 42t11.5 75t5 113q2 63 6.5 114.5t17.5 87.5t38 55.5t70 19.5q11 0 25.5 -1.5t22.5 -4.5v-66z" />
    <glyph glyph-name="bar" unicode="|" 
d="M336 792v-900h-64v900h64z" />
    <glyph glyph-name="braceright" unicode="}" horiz-adv-x="377" 
d="M50 -136q7 -3 18.5 -5t22.5 -2q22 0 36 11.5t22 36.5t11.5 65.5t5.5 99.5t5 104.5t10.5 78.5t20.5 55t34 34q-21 12 -34 34t-20.5 55.5t-10.5 78.5t-5 104q-2 58 -5.5 99t-11.5 66t-22 36.5t-36 11.5q-11 0 -22.5 -2t-18.5 -6v66q8 4 22.5 5t25.5 1q45 0 70 -19.5
t38 -55.5t17.5 -87.5t6.5 -114.5q2 -67 5 -113t11.5 -75t25 -42t46.5 -13h23v-59h-23q-30 0 -46.5 -13t-25 -42t-11.5 -75t-5 -113q-2 -63 -6.5 -114.5t-17.5 -87.5t-38 -55.5t-70 -19.5q-11 0 -25.5 1.5t-22.5 4.5v66z" />
    <glyph glyph-name="asciitilde" unicode="~" 
d="M46 321q22 45 55 76.5t86 31.5q39 0 69.5 -17t57 -37t52 -37t56.5 -17q33 0 54 22t35 60l52 -36q-23 -53 -59 -81.5t-84 -28.5q-39 0 -68.5 16.5t-56.5 37t-53 37t-57 16.5q-33 0 -53 -21t-34 -58z" />
    <glyph glyph-name="nonbreakingspace" unicode="&#xa0;" horiz-adv-x="262" 
 />
    <glyph glyph-name="exclamdown" unicode="&#xa1;" horiz-adv-x="226" 
d="M61 -136l17 498h71l17 -498h-105zM114 461q-24 0 -39.5 15.5t-15.5 41.5q0 25 15.5 41t39.5 16t39 -16t15 -41q0 -26 -15 -41.5t-39 -15.5z" />
    <glyph glyph-name="cent" unicode="&#xa2;" 
d="M364 757v-97q67 -8 110.5 -42.5t69.5 -85.5l-65 -49q-25 47 -60.5 72t-89.5 25q-81 0 -129 -56.5t-48 -169.5q0 -112 48 -167t127 -55q49 0 85 21.5t65 67.5l64 -48q-64 -107 -177 -121v-117h-76v117q-49 6 -90 28.5t-71 60.5t-46.5 91.5t-16.5 122.5q0 68 16.5 122
t46 92t70.5 61t91 29v98h76z" />
    <glyph glyph-name="sterling" unicode="&#xa3;" 
d="M169 377v125q0 103 47.5 153t130.5 50q69 0 116.5 -32.5t76.5 -89.5l-59 -64q-20 42 -50.5 69t-78.5 27q-49 0 -69 -30t-20 -87v-121h211v-55h-211v-100q0 -50 -11.5 -81t-29.5 -50h317v-91h-471v79q52 9 76.5 44t24.5 102v97h-100v55h100z" />
    <glyph glyph-name="currency" unicode="&#xa4;" horiz-adv-x="598" 
d="M175 516q26 20 57.5 32t66.5 12t67 -12t58 -33l86 86l46 -46l-88 -88q18 -26 28.5 -57t10.5 -65q0 -35 -10.5 -66t-28.5 -57l88 -87l-46 -46l-86 86q-26 -20 -58 -32t-67 -12t-66.5 11.5t-57.5 31.5l-85 -85l-46 46l86 86q-18 26 -28 57.5t-10 66.5q0 34 10 65.5t28 57.5
l-86 87l46 46zM299 499q-31 0 -58 -12.5t-47 -33.5t-31.5 -49t-11.5 -60t11.5 -60t31.5 -49t47 -33t58 -12q30 0 57 12t47 33t32 49t12 60t-12 60t-32 49t-47 33.5t-57 12.5z" />
    <glyph glyph-name="yen" unicode="&#xa5;" 
d="M257 171v109h-212v65h177l-205 347h110l178 -318l180 318h106l-205 -347h177v-65h-212v-109h212v-65h-212v-106h-94v106h-212v65h212z" />
    <glyph glyph-name="brokenbar" unicode="&#xa6;" 
d="M336 792v-370h-64v370h64zM336 262v-370h-64v370h64z" />
    <glyph glyph-name="section" unicode="&#xa7;" horiz-adv-x="522" 
d="M408 561q-23 27 -59 46.5t-91 19.5q-50 0 -80 -18.5t-30 -54.5q0 -33 24.5 -51t61 -29.5t79.5 -22t79.5 -28.5t61 -48t24.5 -80q0 -42 -18 -77t-52 -58q29 -18 48 -48t19 -75q0 -39 -15 -69.5t-42 -51t-65 -31t-84 -10.5q-42 0 -77 8.5t-63 22t-48.5 31t-35.5 36.5l62 53
q26 -30 65.5 -52.5t100.5 -22.5q59 0 90.5 23t31.5 61q0 35 -24.5 53t-61 29t-79.5 20.5t-79.5 27.5t-61 49.5t-24.5 87.5q0 89 70 134q-31 18 -49 45.5t-18 69.5q0 69 51 111.5t143 42.5q40 0 73 -8.5t58 -21.5t43.5 -29t30.5 -32zM397 288q0 35 -19.5 55.5t-48.5 32
t-62.5 17.5t-61.5 13q-32 -20 -45.5 -45t-13.5 -54q0 -35 16 -54t42.5 -29.5t59.5 -16.5t66 -15q67 32 67 96z" />
    <glyph glyph-name="dieresis" unicode="&#xa8;" horiz-adv-x="414" 
d="M316 731q24 0 39 -15.5t15 -41.5q0 -25 -15 -41t-39 -16t-39.5 16t-15.5 41q0 26 15.5 41.5t39.5 15.5zM98 731q24 0 39.5 -15.5t15.5 -41.5q0 -25 -15.5 -41t-39.5 -16t-39 16t-15 41q0 26 15 41.5t39 15.5z" />
    <glyph glyph-name="copyright" unicode="&#xa9;" horiz-adv-x="795" 
d="M397 705q73 0 134.5 -27.5t106 -76t69.5 -114t25 -141.5t-25 -141.5t-69.5 -114t-106 -76t-134.5 -27.5q-74 0 -135 27.5t-105.5 76t-69 114t-24.5 141.5t24.5 141.5t69 114t105.5 76t135 27.5zM397 651q-62 0 -113 -23.5t-88.5 -64.5t-58 -97t-20.5 -120
q0 -65 20.5 -120.5t58 -96.5t88.5 -64.5t113 -23.5q61 0 112.5 23.5t89 64.5t58 96.5t20.5 120.5q0 64 -20.5 120t-58 97t-89 64.5t-112.5 23.5zM511 440q-17 32 -41.5 49.5t-62.5 17.5q-56 0 -89 -39t-33 -117q0 -77 33 -115.5t89 -38.5q33 0 57.5 14.5t44.5 47.5l44 -33
q-51 -85 -147 -85q-39 0 -72 13.5t-57.5 40t-38 66t-13.5 91.5q0 51 13.5 90.5t38 66.5t58 40.5t72.5 13.5q56 0 92 -25.5t56 -64.5z" />
    <glyph glyph-name="ordfeminine" unicode="&#xaa;" horiz-adv-x="449" 
d="M94 662q23 17 56.5 30t82.5 13q33 0 60.5 -8t48 -26t31.5 -48t11 -74v-255h-67v27q-50 -33 -113 -33q-29 0 -54.5 8t-44 23.5t-29.5 40t-11 57.5q0 67 42 101t107 34q52 0 99 -21v13q0 54 -23 73.5t-65 19.5q-32 0 -56 -8.5t-46 -25.5zM221 348q48 0 92 22v114
q-20 7 -41 10.5t-41 3.5q-42 0 -70 -18t-28 -60q0 -38 25 -55t63 -17z" />
    <glyph glyph-name="guillemotleft" unicode="&#xab;" horiz-adv-x="384" 
d="M17 0zM366 529l-121 -264l121 -265h-68l-121 265l121 264h68zM206 529l-121 -264l121 -265h-68l-121 265l121 264h68z" />
    <glyph glyph-name="logicalnot" unicode="&#xac;" 
d="M564 396v-396h-65v331h-454v65h519z" />
    <glyph glyph-name="softhyphen" unicode="&#xad;" horiz-adv-x="359" 
d="M29 292zM330 366v-74h-301v74h301z" />
    <glyph glyph-name="registered" unicode="&#xae;" horiz-adv-x="795" 
d="M397 705q73 0 134.5 -27.5t106 -76t69.5 -114t25 -141.5t-25 -141.5t-69.5 -114t-106 -76t-134.5 -27.5q-74 0 -135 27.5t-105.5 76t-69 114t-24.5 141.5t24.5 141.5t69 114t105.5 76t135 27.5zM397 651q-62 0 -113 -23.5t-88.5 -64.5t-58 -97t-20.5 -120
q0 -65 20.5 -120.5t58 -96.5t88.5 -64.5t113 -23.5q61 0 112.5 23.5t89 64.5t58 96.5t20.5 120.5q0 64 -20.5 120t-58 97t-89 64.5t-112.5 23.5zM420 555q62 0 99 -31t37 -94q0 -49 -23 -78.5t-62 -40.5l105 -162h-68l-98 156h-97v-156h-59v406h166zM313 357h108
q35 0 56.5 17.5t21.5 54.5t-21.5 54t-56.5 17h-108v-143z" />
    <glyph glyph-name="macron" unicode="&#xaf;" horiz-adv-x="502" 
d="M458 724v-67h-414v67h414z" />
    <glyph glyph-name="degree" unicode="&#xb0;" horiz-adv-x="422" 
d="M211 698q30 0 56.5 -12t46.5 -32t31.5 -47.5t11.5 -57.5q0 -31 -11.5 -58t-31.5 -47.5t-46.5 -32t-56.5 -11.5t-56.5 11.5t-46 32t-31 47.5t-11.5 58q0 30 11.5 57.5t31 47.5t46 32t56.5 12zM211 643q-19 0 -35.5 -7.5t-29 -20t-19.5 -30t-7 -37.5t7 -37t19.5 -30t29 -20
t35.5 -7q38 0 64.5 27t26.5 67t-26.5 67.5t-64.5 27.5z" />
    <glyph glyph-name="plusminus" unicode="&#xb1;" horiz-adv-x="604" 
d="M43 17zM334 684v-235h228v-65h-228v-235h-64v235h-227v65h227v235h64zM562 82v-65h-519v65h519z" />
    <glyph glyph-name="twosuperior" unicode="&#xb2;" horiz-adv-x="374" 
d="M56 311zM63 629q19 30 52.5 50t81.5 20q55 0 87 -28t32 -82q0 -29 -10.5 -50.5t-33.5 -38.5t-54.5 -29.5t-59.5 -32.5q-20 -14 -27 -29.5t-7 -38.5h191v-59h-259q0 32 2.5 56.5t8.5 43t15.5 32.5t23.5 26q15 12 31 21t31.5 16t30 13.5t25.5 13.5q18 11 24 23.5t6 29.5
q0 29 -15 41.5t-45 12.5q-32 0 -53.5 -13t-38.5 -37z" />
    <glyph glyph-name="threesuperior" unicode="&#xb3;" horiz-adv-x="376" 
d="M53 304zM80 649q23 23 52.5 36.5t64.5 13.5q22 0 42 -6t36 -19t25.5 -33t9.5 -48q0 -47 -28 -72q21 -12 34 -34t13 -57q0 -60 -37.5 -93t-100.5 -33q-50 0 -82.5 20t-55.5 52l42 43q16 -28 42.5 -42t56.5 -14q33 0 53.5 16t20.5 51q0 32 -18 44.5t-53 12.5h-40v58h41
q29 0 42 9.5t13 34.5q0 29 -16.5 40t-41.5 11q-28 0 -48.5 -10.5t-35.5 -25.5z" />
    <glyph glyph-name="acute" unicode="&#xb4;" horiz-adv-x="290" 
d="M237 777l-135 -204l-49 31l116 218z" />
    <glyph glyph-name="paragraph" unicode="&#xb6;" horiz-adv-x="607" 
d="M526 739v-948h-54v894h-167v-894h-54v692h-74q-60 0 -95.5 32.5t-35.5 96.5q0 63 35.5 95t95.5 32h349z" />
    <glyph glyph-name="periodcentered" unicode="&#xb7;" horiz-adv-x="188" 
d="M40 269zM94 383q24 0 39.5 -15.5t15.5 -41.5q0 -25 -15.5 -41t-39.5 -16q-23 0 -38.5 16t-15.5 41q0 26 15.5 41.5t38.5 15.5z" />
    <glyph glyph-name="cedilla" unicode="&#xb8;" horiz-adv-x="222" 
d="M162 -38l-56 -181l-53 13l33 187z" />
    <glyph glyph-name="onesuperior" unicode="&#xb9;" horiz-adv-x="258" 
d="M46 311zM87 633q22 0 31.5 14.5t11.5 44.5h53v-381h-62v265h-75v57h41z" />
    <glyph glyph-name="ordmasculine" unicode="&#xba;" horiz-adv-x="449" 
d="M225 705q35 0 65 -13.5t52 -40t34.5 -66t12.5 -90.5q0 -52 -12.5 -91.5t-34 -66t-51.5 -40t-66 -13.5q-73 0 -119 53.5t-46 157.5q0 103 46 156.5t119 53.5zM225 638q-43 0 -69.5 -36t-26.5 -108q0 -71 26 -107t70 -36q42 0 68.5 36t26.5 107q0 72 -26.5 108t-68.5 36z
" />
    <glyph glyph-name="guillemotright" unicode="&#xbb;" horiz-adv-x="384" 
d="M17 0zM245 529l121 -264l-121 -265h-68l121 265l-121 264h68zM85 529l121 -264l-121 -265h-68l121 265l-121 264h68z" />
    <glyph glyph-name="onequarter" unicode="&#xbc;" 
d="M16 0zM521 692l-426 -692h-68l425 692h69zM57 633q22 0 31.5 14.5t11.5 44.5h53v-381h-62v265h-75v57h41zM552 381v-245h39v-54h-39v-82h-62v82h-181v54l190 245h53zM490 136v145l-113 -145h113z" />
    <glyph glyph-name="onehalf" unicode="&#xbd;" 
d="M6 0zM505 692l-426 -692h-68l425 692h69zM47 633q22 0 31.5 14.5t11.5 44.5h53v-381h-62v265h-75v57h41zM349 318q19 30 52.5 50t81.5 20q55 0 87 -28t32 -82q0 -29 -10.5 -50.5t-33.5 -38.5t-54.5 -29.5t-59.5 -32.5q-20 -14 -27 -29.5t-7 -38.5h191v-59h-259
q0 32 2.5 56.5t8.5 43t15.5 32.5t23.5 26q15 12 31 21t31.5 16t30 13.5t25.5 13.5q18 11 24 23.5t6 29.5q0 29 -15 41.5t-45 12.5q-32 0 -53.5 -13t-38.5 -37z" />
    <glyph glyph-name="threequarters" unicode="&#xbe;" 
d="M0 0zM584 692l-426 -692h-68l425 692h69zM569 381v-245h39v-54h-39v-82h-62v82h-181v54l190 245h53zM507 136v145l-113 -145h113zM26 649q23 23 52.5 36.5t64.5 13.5q22 0 42 -6t36 -19t25.5 -33t9.5 -48q0 -47 -28 -72q21 -12 34 -34t13 -57q0 -60 -37.5 -93t-100.5 -33
q-50 0 -82.5 20t-55.5 52l42 43q16 -28 42.5 -42t56.5 -14q33 0 53.5 16t20.5 51q0 32 -18 44.5t-53 12.5h-40v58h41q29 0 42 9.5t13 34.5q0 29 -16.5 40t-41.5 11q-28 0 -48.5 -10.5t-35.5 -25.5z" />
    <glyph glyph-name="questiondown" unicode="&#xbf;" horiz-adv-x="477" 
d="M457 -44q-28 -47 -80 -80t-135 -33q-51 0 -90 13.5t-65.5 38t-40 58t-13.5 74.5q0 42 12.5 73t31.5 54q24 30 54 53.5t50 48.5q21 25 26.5 48t5.5 56h84q0 -48 -8.5 -78.5t-28.5 -57.5q-22 -29 -49 -50t-49 -44q-18 -20 -28.5 -42t-10.5 -50q0 -48 33 -77.5t92 -29.5
q52 0 85.5 22t54.5 60zM258 459q-23 0 -38.5 15.5t-15.5 41.5q0 25 15.5 41t38.5 16q25 0 40 -16t15 -41q0 -26 -15 -41.5t-40 -15.5z" />
    <glyph glyph-name="Agrave" unicode="&#xc0;" horiz-adv-x="668" 
d="M15 0zM387 692l266 -692h-108l-55 149h-313l-54 -149h-108l263 692h109zM210 240h246l-124 335zM281 981l116 -218l-48 -31l-136 204z" />
    <glyph glyph-name="Aacute" unicode="&#xc1;" horiz-adv-x="668" 
d="M15 0zM387 692l266 -692h-108l-55 149h-313l-54 -149h-108l263 692h109zM210 240h246l-124 335zM454 936l-135 -204l-49 31l116 218z" />
    <glyph glyph-name="Acircumflex" unicode="&#xc2;" horiz-adv-x="668" 
d="M15 0zM387 692l266 -692h-108l-55 149h-313l-54 -149h-108l263 692h109zM210 240h246l-124 335zM364 981l151 -197l-43 -43l-139 150l-137 -150l-44 43l151 197h61z" />
    <glyph glyph-name="Atilde" unicode="&#xc3;" horiz-adv-x="668" 
d="M15 0zM387 692l266 -692h-108l-55 149h-313l-54 -149h-108l263 692h109zM210 240h246l-124 335zM128 836q19 37 47.5 58t66.5 21q29 0 52.5 -10t44.5 -22t41 -22t42 -10q26 0 43.5 16t29.5 46l45 -44q-20 -42 -49.5 -62t-64.5 -20q-29 0 -52.5 10t-44.5 22t-42 22t-43 10
q-26 0 -42.5 -15.5t-28.5 -44.5z" />
    <glyph glyph-name="Adieresis" unicode="&#xc4;" horiz-adv-x="668" 
d="M15 0zM387 692l266 -692h-108l-55 149h-313l-54 -149h-108l263 692h109zM210 240h246l-124 335zM442 890q24 0 39 -15.5t15 -41.5q0 -25 -15 -41t-39 -16t-39.5 16t-15.5 41q0 26 15.5 41.5t39.5 15.5zM224 890q24 0 39.5 -15.5t15.5 -41.5q0 -25 -15.5 -41t-39.5 -16
t-39 16t-15 41q0 26 15 41.5t39 15.5z" />
    <glyph glyph-name="Aring" unicode="&#xc5;" horiz-adv-x="668" 
d="M15 0zM387 692l266 -692h-108l-55 149h-313l-54 -149h-108l263 692h109zM210 240h246l-124 335zM333 977q26 0 49 -10.5t40 -28t27 -41t10 -49.5q0 -27 -10 -50.5t-27.5 -41t-40.5 -28t-48 -10.5q-26 0 -49 10.5t-40 28t-27 41t-10 50.5q0 26 10 49.5t27 41t40 28
t49 10.5zM333 929q-33 0 -55.5 -24t-22.5 -58q0 -17 6 -32t16.5 -26t25 -17.5t30.5 -6.5t30.5 6.5t25 17.5t16.5 26t6 32t-6 32t-16.5 26t-25 17.5t-30.5 6.5z" />
    <glyph glyph-name="AE" unicode="&#xc6;" horiz-adv-x="909" 
d="M853 692v-95h-335v-197h248v-92h-248v-213h341v-95h-443v149h-239l-54 -149h-108l263 692h575zM339 597l-129 -357h206v357h-77z" />
    <glyph glyph-name="Ccedilla" unicode="&#xc7;" horiz-adv-x="673" 
d="M63 0zM551 496q-30 54 -72 84t-106 30q-94 0 -151 -66.5t-57 -198.5q0 -131 57 -197.5t151 -66.5q57 0 98 25t76 81l76 -55q-87 -145 -252 -145q-66 0 -122.5 23t-97.5 68t-64.5 112t-23.5 156q0 88 23.5 155t64.5 112.5t98 68.5t124 23q95 0 157 -43t95 -110zM398 -38
l-56 -181l-53 13l33 187z" />
    <glyph glyph-name="Egrave" unicode="&#xc8;" horiz-adv-x="574" 
d="M81 0zM518 692v-95h-335v-197h249v-92h-249v-213h342v-95h-444v692h437zM253 981l116 -218l-48 -31l-136 204z" />
    <glyph glyph-name="Eacute" unicode="&#xc9;" horiz-adv-x="574" 
d="M81 0zM518 692v-95h-335v-197h249v-92h-249v-213h342v-95h-444v692h437zM426 936l-135 -204l-49 31l116 218z" />
    <glyph glyph-name="Ecircumflex" unicode="&#xca;" horiz-adv-x="574" 
d="M81 0zM518 692v-95h-335v-197h249v-92h-249v-213h342v-95h-444v692h437zM336 981l151 -197l-43 -43l-139 150l-137 -150l-44 43l151 197h61z" />
    <glyph glyph-name="Edieresis" unicode="&#xcb;" horiz-adv-x="574" 
d="M81 0zM518 692v-95h-335v-197h249v-92h-249v-213h342v-95h-444v692h437zM412 890q24 0 39 -15.5t15 -41.5q0 -25 -15 -41t-39 -16t-39.5 16t-15.5 41q0 26 15.5 41.5t39.5 15.5zM194 890q24 0 39.5 -15.5t15.5 -41.5q0 -25 -15.5 -41t-39.5 -16t-39 16t-15 41
q0 26 15 41.5t39 15.5z" />
    <glyph glyph-name="Igrave" unicode="&#xcc;" horiz-adv-x="268" 
d="M14 0zM187 692v-692h-103v692h103zM82 981l116 -218l-48 -31l-136 204z" />
    <glyph glyph-name="Iacute" unicode="&#xcd;" horiz-adv-x="269" 
d="M70 0zM184 692v-692h-103v692h103zM254 936l-135 -204l-49 31l116 218z" />
    <glyph glyph-name="Icircumflex" unicode="&#xce;" horiz-adv-x="346" 
d="M0 0zM225 692v-692h-103v692h103zM203 981l151 -197l-43 -43l-139 150l-137 -150l-44 43l151 197h61z" />
    <glyph glyph-name="Idieresis" unicode="&#xcf;" horiz-adv-x="303" 
d="M0 0zM203 692v-692h-103v692h103zM261 890q24 0 39 -15.5t15 -41.5q0 -25 -15 -41t-39 -16t-39.5 16t-15.5 41q0 26 15.5 41.5t39.5 15.5zM43 890q24 0 39.5 -15.5t15.5 -41.5q0 -25 -15.5 -41t-39.5 -16t-39 16t-15 41q0 26 15 41.5t39 15.5z" />
    <glyph glyph-name="Eth" unicode="&#xd0;" horiz-adv-x="705" 
d="M284 692q75 0 140.5 -24t114 -68.5t76 -108t27.5 -143.5t-28 -144.5t-76.5 -109.5t-113.5 -69.5t-140 -24.5h-203v308h-66v92h66v292h203zM184 400h162v-92h-162v-214h101q53 0 99 17t80.5 49.5t54.5 79.5t20 107q0 59 -19.5 105.5t-54 78.5t-81 49t-99.5 17h-101v-197z
" />
    <glyph glyph-name="Ntilde" unicode="&#xd1;" horiz-adv-x="686" 
d="M81 0zM183 692l330 -510v510h102v-692h-95l-337 505v-505h-102v692h102zM137 823q19 37 47.5 58t66.5 21q29 0 52.5 -10t44.5 -22t41 -22t42 -10q26 0 43.5 16t29.5 46l45 -44q-20 -42 -49.5 -62t-64.5 -20q-29 0 -52.5 10t-44.5 22t-42 22t-43 10q-26 0 -42.5 -15.5
t-28.5 -44.5z" />
    <glyph glyph-name="Ograve" unicode="&#xd2;" horiz-adv-x="729" 
d="M63 0zM363 705q66 0 121.5 -23t95.5 -68.5t62.5 -113t22.5 -155.5t-22.5 -155t-62.5 -112t-95.5 -68t-121.5 -23t-121 23t-94.5 68t-62 112t-22.5 155t22.5 155.5t62 113t94.5 68.5t121 23zM363 610q-44 0 -80.5 -17t-62.5 -50t-40.5 -82.5t-14.5 -115.5
q0 -65 14.5 -114.5t40.5 -82.5t62.5 -50t80.5 -17q45 0 82 17t63.5 50t41 82.5t14.5 114.5q0 66 -14.5 115.5t-41 82.5t-63.5 50t-82 17zM312 981l116 -218l-48 -31l-136 204z" />
    <glyph glyph-name="Oacute" unicode="&#xd3;" horiz-adv-x="729" 
d="M63 0zM363 705q66 0 121.5 -23t95.5 -68.5t62.5 -113t22.5 -155.5t-22.5 -155t-62.5 -112t-95.5 -68t-121.5 -23t-121 23t-94.5 68t-62 112t-22.5 155t22.5 155.5t62 113t94.5 68.5t121 23zM363 610q-44 0 -80.5 -17t-62.5 -50t-40.5 -82.5t-14.5 -115.5
q0 -65 14.5 -114.5t40.5 -82.5t62.5 -50t80.5 -17q45 0 82 17t63.5 50t41 82.5t14.5 114.5q0 66 -14.5 115.5t-41 82.5t-63.5 50t-82 17zM484 936l-135 -204l-49 31l116 218z" />
    <glyph glyph-name="Ocircumflex" unicode="&#xd4;" horiz-adv-x="729" 
d="M63 0zM363 705q66 0 121.5 -23t95.5 -68.5t62.5 -113t22.5 -155.5t-22.5 -155t-62.5 -112t-95.5 -68t-121.5 -23t-121 23t-94.5 68t-62 112t-22.5 155t22.5 155.5t62 113t94.5 68.5t121 23zM363 610q-44 0 -80.5 -17t-62.5 -50t-40.5 -82.5t-14.5 -115.5
q0 -65 14.5 -114.5t40.5 -82.5t62.5 -50t80.5 -17q45 0 82 17t63.5 50t41 82.5t14.5 114.5q0 66 -14.5 115.5t-41 82.5t-63.5 50t-82 17zM394 981l151 -197l-43 -43l-139 150l-137 -150l-44 43l151 197h61z" />
    <glyph glyph-name="Otilde" unicode="&#xd5;" horiz-adv-x="729" 
d="M63 0zM363 705q66 0 121.5 -23t95.5 -68.5t62.5 -113t22.5 -155.5t-22.5 -155t-62.5 -112t-95.5 -68t-121.5 -23t-121 23t-94.5 68t-62 112t-22.5 155t22.5 155.5t62 113t94.5 68.5t121 23zM363 610q-44 0 -80.5 -17t-62.5 -50t-40.5 -82.5t-14.5 -115.5
q0 -65 14.5 -114.5t40.5 -82.5t62.5 -50t80.5 -17q45 0 82 17t63.5 50t41 82.5t14.5 114.5q0 66 -14.5 115.5t-41 82.5t-63.5 50t-82 17zM158 836q19 37 47.5 58t66.5 21q29 0 52.5 -10t44.5 -22t41 -22t42 -10q26 0 43.5 16t29.5 46l45 -44q-20 -42 -49.5 -62t-64.5 -20
q-29 0 -52.5 10t-44.5 22t-42 22t-43 10q-26 0 -42.5 -15.5t-28.5 -44.5z" />
    <glyph glyph-name="Odieresis" unicode="&#xd6;" horiz-adv-x="729" 
d="M63 0zM363 705q66 0 121.5 -23t95.5 -68.5t62.5 -113t22.5 -155.5t-22.5 -155t-62.5 -112t-95.5 -68t-121.5 -23t-121 23t-94.5 68t-62 112t-22.5 155t22.5 155.5t62 113t94.5 68.5t121 23zM363 610q-44 0 -80.5 -17t-62.5 -50t-40.5 -82.5t-14.5 -115.5
q0 -65 14.5 -114.5t40.5 -82.5t62.5 -50t80.5 -17q45 0 82 17t63.5 50t41 82.5t14.5 114.5q0 66 -14.5 115.5t-41 82.5t-63.5 50t-82 17zM473 890q24 0 39 -15.5t15 -41.5q0 -25 -15 -41t-39 -16t-39.5 16t-15.5 41q0 26 15.5 41.5t39.5 15.5zM255 890q24 0 39.5 -15.5
t15.5 -41.5q0 -25 -15.5 -41t-39.5 -16t-39 16t-15 41q0 26 15 41.5t39 15.5z" />
    <glyph glyph-name="multiply" unicode="&#xd7;" 
d="M304 392l167 169l45 -45l-166 -170l166 -169l-45 -45l-167 169l-166 -169l-46 45l167 169l-167 170l46 45z" />
    <glyph glyph-name="Oslash" unicode="&#xd8;" horiz-adv-x="729" 
d="M363 705q95 0 166 -47l61 94h76l-89 -136q42 -45 65 -112.5t23 -158.5q0 -88 -22.5 -155t-62.5 -112t-95.5 -68t-121.5 -23q-97 0 -165 46l-61 -93h-75l88 135q-42 45 -64.5 112t-22.5 158q0 88 22.5 155.5t62 113t94.5 68.5t121 23zM564 345q0 114 -45 182l-267 -411
q46 -35 111 -35q45 0 82 17t63.5 50t41 82.5t14.5 114.5zM363 610q-44 0 -80.5 -17t-62.5 -50t-40.5 -82.5t-14.5 -115.5q0 -113 43 -181l267 411q-47 35 -112 35z" />
    <glyph glyph-name="Ugrave" unicode="&#xd9;" horiz-adv-x="668" 
d="M72 0zM175 692v-433q0 -42 12 -74t33.5 -53.5t50.5 -32.5t62 -11t62 11t51 32.5t34.5 53.5t12.5 74v433h102v-433q0 -66 -20.5 -116t-56.5 -83t-83.5 -49.5t-101.5 -16.5t-101.5 16.5t-83 49.5t-56 83t-20.5 116v433h103zM281 981l116 -218l-48 -31l-136 204z" />
    <glyph glyph-name="Uacute" unicode="&#xda;" horiz-adv-x="668" 
d="M72 0zM175 692v-433q0 -42 12 -74t33.5 -53.5t50.5 -32.5t62 -11t62 11t51 32.5t34.5 53.5t12.5 74v433h102v-433q0 -66 -20.5 -116t-56.5 -83t-83.5 -49.5t-101.5 -16.5t-101.5 16.5t-83 49.5t-56 83t-20.5 116v433h103zM454 936l-135 -204l-49 31l116 218z" />
    <glyph glyph-name="Ucircumflex" unicode="&#xdb;" horiz-adv-x="668" 
d="M72 0zM175 692v-433q0 -42 12 -74t33.5 -53.5t50.5 -32.5t62 -11t62 11t51 32.5t34.5 53.5t12.5 74v433h102v-433q0 -66 -20.5 -116t-56.5 -83t-83.5 -49.5t-101.5 -16.5t-101.5 16.5t-83 49.5t-56 83t-20.5 116v433h103zM364 981l151 -197l-43 -43l-139 150l-137 -150
l-44 43l151 197h61z" />
    <glyph glyph-name="Udieresis" unicode="&#xdc;" horiz-adv-x="668" 
d="M72 0zM175 692v-433q0 -42 12 -74t33.5 -53.5t50.5 -32.5t62 -11t62 11t51 32.5t34.5 53.5t12.5 74v433h102v-433q0 -66 -20.5 -116t-56.5 -83t-83.5 -49.5t-101.5 -16.5t-101.5 16.5t-83 49.5t-56 83t-20.5 116v433h103zM444 890q24 0 39 -15.5t15 -41.5q0 -25 -15 -41
t-39 -16t-39.5 16t-15.5 41q0 26 15.5 41.5t39.5 15.5zM226 890q24 0 39.5 -15.5t15.5 -41.5q0 -25 -15.5 -41t-39.5 -16t-39 16t-15 41q0 26 15 41.5t39 15.5z" />
    <glyph glyph-name="Yacute" unicode="&#xdd;" horiz-adv-x="642" 
d="M10 0zM128 692l194 -344l196 344h114l-260 -437v-255h-101v255l-261 437h118zM441 936l-135 -204l-49 31l116 218z" />
    <glyph glyph-name="Thorn" unicode="&#xde;" horiz-adv-x="654" 
d="M183 692v-138h186q53 0 96 -13.5t74 -40.5t47.5 -67.5t16.5 -94.5t-16.5 -94t-47.5 -67t-74 -40.5t-96 -13.5h-186v-123h-102v692h102zM183 213h188q62 0 99 30.5t37 93.5t-37 94t-99 31h-188v-249z" />
    <glyph glyph-name="germandbls" unicode="&#xdf;" horiz-adv-x="597" 
d="M171 0h-95v537q0 52 15.5 91t43 65t64.5 39t80 13q40 0 76.5 -11.5t64 -35.5t43.5 -60.5t16 -86.5t-16.5 -84t-45.5 -54q27 -9 49.5 -23t39 -36.5t26 -53.5t9.5 -73q0 -55 -16 -99.5t-45.5 -75.5t-72 -48t-94.5 -17q-31 0 -58 6t-48 16l16 86q37 -20 80 -20
q66 0 105.5 40.5t39.5 115.5t-40.5 106.5t-126.5 31.5h-31v73h34q46 0 75.5 22.5t29.5 78.5q0 30 -9 51.5t-24 35.5t-34.5 20.5t-40.5 6.5q-22 0 -42 -7.5t-35 -22.5t-24 -37.5t-9 -52.5v-537z" />
    <glyph glyph-name="agrave" unicode="&#xe0;" horiz-adv-x="559" 
d="M53 0zM93 486q29 22 76 39t113 17q45 0 82.5 -10.5t65 -34.5t42.5 -63.5t15 -97.5v-336h-88v38q-68 -45 -156 -45q-40 0 -74.5 10t-60 31t-40.5 53t-15 76q0 43 15 76.5t42 55.5t64 33.5t81 11.5q35 0 71 -7t68 -21v18q0 35 -8.5 58.5t-24.5 37.5t-39 20t-51 6
q-42 0 -76.5 -11t-63.5 -31zM264 72q32 0 66.5 8t63.5 23v147q-27 10 -57.5 15t-58.5 5q-57 0 -96 -24.5t-39 -77.5q0 -26 9.5 -44t26 -29.5t38.5 -17t47 -5.5zM227 822l116 -218l-48 -31l-136 204z" />
    <glyph glyph-name="aacute" unicode="&#xe1;" horiz-adv-x="559" 
d="M53 0zM93 486q29 22 76 39t113 17q45 0 82.5 -10.5t65 -34.5t42.5 -63.5t15 -97.5v-336h-88v38q-68 -45 -156 -45q-40 0 -74.5 10t-60 31t-40.5 53t-15 76q0 43 15 76.5t42 55.5t64 33.5t81 11.5q35 0 71 -7t68 -21v18q0 35 -8.5 58.5t-24.5 37.5t-39 20t-51 6
q-42 0 -76.5 -11t-63.5 -31zM264 72q32 0 66.5 8t63.5 23v147q-27 10 -57.5 15t-58.5 5q-57 0 -96 -24.5t-39 -77.5q0 -26 9.5 -44t26 -29.5t38.5 -17t47 -5.5zM399 777l-135 -204l-49 31l116 218z" />
    <glyph glyph-name="acircumflex" unicode="&#xe2;" horiz-adv-x="559" 
d="M53 0zM93 486q29 22 76 39t113 17q45 0 82.5 -10.5t65 -34.5t42.5 -63.5t15 -97.5v-336h-88v38q-68 -45 -156 -45q-40 0 -74.5 10t-60 31t-40.5 53t-15 76q0 43 15 76.5t42 55.5t64 33.5t81 11.5q35 0 71 -7t68 -21v18q0 35 -8.5 58.5t-24.5 37.5t-39 20t-51 6
q-42 0 -76.5 -11t-63.5 -31zM264 72q32 0 66.5 8t63.5 23v147q-27 10 -57.5 15t-58.5 5q-57 0 -96 -24.5t-39 -77.5q0 -26 9.5 -44t26 -29.5t38.5 -17t47 -5.5zM310 822l151 -197l-43 -43l-139 150l-137 -150l-44 43l151 197h61z" />
    <glyph glyph-name="atilde" unicode="&#xe3;" horiz-adv-x="559" 
d="M53 0zM93 486q29 22 76 39t113 17q45 0 82.5 -10.5t65 -34.5t42.5 -63.5t15 -97.5v-336h-88v38q-68 -45 -156 -45q-40 0 -74.5 10t-60 31t-40.5 53t-15 76q0 43 15 76.5t42 55.5t64 33.5t81 11.5q35 0 71 -7t68 -21v18q0 35 -8.5 58.5t-24.5 37.5t-39 20t-51 6
q-42 0 -76.5 -11t-63.5 -31zM264 72q32 0 66.5 8t63.5 23v147q-27 10 -57.5 15t-58.5 5q-57 0 -96 -24.5t-39 -77.5q0 -26 9.5 -44t26 -29.5t38.5 -17t47 -5.5zM73 677q19 37 47.5 58t66.5 21q29 0 52.5 -10t44.5 -22t41 -22t42 -10q26 0 43.5 16t29.5 46l45 -44
q-20 -42 -49.5 -62t-64.5 -20q-29 0 -52.5 10t-44.5 22t-42 22t-43 10q-26 0 -42.5 -15.5t-28.5 -44.5z" />
    <glyph glyph-name="adieresis" unicode="&#xe4;" horiz-adv-x="559" 
d="M53 0zM93 486q29 22 76 39t113 17q45 0 82.5 -10.5t65 -34.5t42.5 -63.5t15 -97.5v-336h-88v38q-68 -45 -156 -45q-40 0 -74.5 10t-60 31t-40.5 53t-15 76q0 43 15 76.5t42 55.5t64 33.5t81 11.5q35 0 71 -7t68 -21v18q0 35 -8.5 58.5t-24.5 37.5t-39 20t-51 6
q-42 0 -76.5 -11t-63.5 -31zM264 72q32 0 66.5 8t63.5 23v147q-27 10 -57.5 15t-58.5 5q-57 0 -96 -24.5t-39 -77.5q0 -26 9.5 -44t26 -29.5t38.5 -17t47 -5.5zM390 731q24 0 39 -15.5t15 -41.5q0 -25 -15 -41t-39 -16t-39.5 16t-15.5 41q0 26 15.5 41.5t39.5 15.5zM172 731
q24 0 39.5 -15.5t15.5 -41.5q0 -25 -15.5 -41t-39.5 -16t-39 16t-15 41q0 26 15 41.5t39 15.5z" />
    <glyph glyph-name="aring" unicode="&#xe5;" horiz-adv-x="559" 
d="M53 0zM93 486q29 22 76 39t113 17q45 0 82.5 -10.5t65 -34.5t42.5 -63.5t15 -97.5v-336h-88v38q-68 -45 -156 -45q-40 0 -74.5 10t-60 31t-40.5 53t-15 76q0 43 15 76.5t42 55.5t64 33.5t81 11.5q35 0 71 -7t68 -21v18q0 35 -8.5 58.5t-24.5 37.5t-39 20t-51 6
q-42 0 -76.5 -11t-63.5 -31zM264 72q32 0 66.5 8t63.5 23v147q-27 10 -57.5 15t-58.5 5q-57 0 -96 -24.5t-39 -77.5q0 -26 9.5 -44t26 -29.5t38.5 -17t47 -5.5zM279 818q26 0 49 -10.5t40 -28t27 -41t10 -49.5q0 -27 -10 -50.5t-27.5 -41t-40.5 -28t-48 -10.5
q-26 0 -49 10.5t-40 28t-27 41t-10 50.5q0 26 10 49.5t27 41t40 28t49 10.5zM279 770q-33 0 -55.5 -24t-22.5 -58q0 -17 6 -32t16.5 -26t25 -17.5t30.5 -6.5t30.5 6.5t25 17.5t16.5 26t6 32t-6 32t-16.5 26t-25 17.5t-30.5 6.5z" />
    <glyph glyph-name="ae" unicode="&#xe6;" horiz-adv-x="901" 
d="M486 232q4 -41 17 -71t32.5 -49.5t44 -29t50.5 -9.5q39 0 68.5 18t47.5 44l63 -55q-11 -15 -27.5 -31.5t-39 -30t-51.5 -22.5t-65 -9q-49 0 -91.5 18.5t-74.5 56.5q-49 -35 -107 -52t-110 -17q-40 0 -74.5 10t-60 31t-40.5 53t-15 76q0 43 15 76.5t42 55.5t64 33.5
t81 11.5q35 0 71 -7t68 -21v18q0 35 -8.5 58.5t-24.5 37.5t-39 20t-51 6q-42 0 -76.5 -11t-63.5 -31l-38 76q29 22 76 39t113 17q59 0 102.5 -18t67.5 -63q30 40 73 60.5t95 20.5q49 0 90 -18t71 -53t46.5 -86.5t16.5 -117.5q0 -10 -0.5 -18.5t-1.5 -16.5h-356zM264 72
q35 0 73 9.5t89 35.5q-25 52 -29 124q-24 9 -42 15t-31.5 9t-24.5 4t-21 1q-57 0 -96 -24.5t-39 -77.5q0 -26 9.5 -44t26 -29.5t38.5 -17t47 -5.5zM621 456q-55 0 -91 -39.5t-44 -113.5h269q-8 76 -44 114.5t-90 38.5z" />
    <glyph glyph-name="ccedilla" unicode="&#xe7;" horiz-adv-x="508" 
d="M57 0zM414 376q-17 38 -47.5 58t-70.5 20q-30 0 -57 -12t-46.5 -35.5t-31 -59t-11.5 -83.5t11.5 -83.5t30.5 -59t44.5 -35t54.5 -11.5q41 0 71 20.5t50 53.5l68 -50q-9 -15 -24.5 -34.5t-39.5 -36.5t-56.5 -29t-73.5 -12q-47 0 -89 18t-73 53t-49 87t-18 120t18 119.5
t50.5 86.5t76 53t94.5 18q72 0 119.5 -31t67.5 -79zM323 -38l-56 -181l-53 13l33 187z" />
    <glyph glyph-name="egrave" unicode="&#xe8;" horiz-adv-x="561" 
d="M57 0zM146 232q4 -41 17 -71t32.5 -49.5t44 -29t50.5 -9.5q39 0 68.5 18t47.5 44l63 -55q-11 -15 -27.5 -31.5t-39 -30t-51.5 -22.5t-65 -9q-47 0 -89 17.5t-73 52.5t-49 87.5t-18 122.5q0 66 16.5 117.5t46 86.5t70.5 53t90 18t90 -18t71 -53t46.5 -86.5t16.5 -117.5
q0 -10 -0.5 -18.5t-1.5 -16.5h-356zM281 456q-55 0 -91 -39.5t-44 -113.5h269q-8 76 -44 114.5t-90 38.5zM228 822l116 -218l-48 -31l-136 204z" />
    <glyph glyph-name="eacute" unicode="&#xe9;" horiz-adv-x="561" 
d="M57 0zM146 232q4 -41 17 -71t32.5 -49.5t44 -29t50.5 -9.5q39 0 68.5 18t47.5 44l63 -55q-11 -15 -27.5 -31.5t-39 -30t-51.5 -22.5t-65 -9q-47 0 -89 17.5t-73 52.5t-49 87.5t-18 122.5q0 66 16.5 117.5t46 86.5t70.5 53t90 18t90 -18t71 -53t46.5 -86.5t16.5 -117.5
q0 -10 -0.5 -18.5t-1.5 -16.5h-356zM281 456q-55 0 -91 -39.5t-44 -113.5h269q-8 76 -44 114.5t-90 38.5zM400 777l-135 -204l-49 31l116 218z" />
    <glyph glyph-name="ecircumflex" unicode="&#xea;" horiz-adv-x="561" 
d="M57 0zM146 232q4 -41 17 -71t32.5 -49.5t44 -29t50.5 -9.5q39 0 68.5 18t47.5 44l63 -55q-11 -15 -27.5 -31.5t-39 -30t-51.5 -22.5t-65 -9q-47 0 -89 17.5t-73 52.5t-49 87.5t-18 122.5q0 66 16.5 117.5t46 86.5t70.5 53t90 18t90 -18t71 -53t46.5 -86.5t16.5 -117.5
q0 -10 -0.5 -18.5t-1.5 -16.5h-356zM281 456q-55 0 -91 -39.5t-44 -113.5h269q-8 76 -44 114.5t-90 38.5zM311 822l151 -197l-43 -43l-139 150l-137 -150l-44 43l151 197h61z" />
    <glyph glyph-name="edieresis" unicode="&#xeb;" horiz-adv-x="561" 
d="M57 0zM146 232q4 -41 17 -71t32.5 -49.5t44 -29t50.5 -9.5q39 0 68.5 18t47.5 44l63 -55q-11 -15 -27.5 -31.5t-39 -30t-51.5 -22.5t-65 -9q-47 0 -89 17.5t-73 52.5t-49 87.5t-18 122.5q0 66 16.5 117.5t46 86.5t70.5 53t90 18t90 -18t71 -53t46.5 -86.5t16.5 -117.5
q0 -10 -0.5 -18.5t-1.5 -16.5h-356zM281 456q-55 0 -91 -39.5t-44 -113.5h269q-8 76 -44 114.5t-90 38.5zM391 731q24 0 39 -15.5t15 -41.5q0 -25 -15 -41t-39 -16t-39.5 16t-15.5 41q0 26 15.5 41.5t39.5 15.5zM173 731q24 0 39.5 -15.5t15.5 -41.5q0 -25 -15.5 -41
t-39.5 -16t-39 16t-15 41q0 26 15 41.5t39 15.5z" />
    <glyph glyph-name="igrave" unicode="&#xec;" horiz-adv-x="252" 
d="M8 0zM76 822l116 -218l-48 -31l-136 204zM176 529v-529h-95v529h95z" />
    <glyph glyph-name="iacute" unicode="&#xed;" horiz-adv-x="253" 
d="M60 0zM244 777l-135 -204l-49 31l116 218zM171 529v-529h-95v529h95z" />
    <glyph glyph-name="icircumflex" unicode="&#xee;" horiz-adv-x="339" 
d="M0 0zM217 529v-529h-95v529h95zM200 822l151 -197l-43 -43l-139 150l-137 -150l-44 43l151 197h61z" />
    <glyph glyph-name="idieresis" unicode="&#xef;" horiz-adv-x="331" 
d="M2 0zM274 731q24 0 39 -15.5t15 -41.5q0 -25 -15 -41t-39 -16t-39.5 16t-15.5 41q0 26 15.5 41.5t39.5 15.5zM56 731q24 0 39.5 -15.5t15.5 -41.5q0 -25 -15.5 -41t-39.5 -16t-39 16t-15 41q0 26 15 41.5t39 15.5zM213 529v-529h-95v529h95z" />
    <glyph glyph-name="eth" unicode="&#xf0;" horiz-adv-x="574" 
d="M403 784l-37 -73q77 -50 109.5 -138.5t32.5 -218.5q0 -84 -12.5 -152t-40 -115.5t-70 -73.5t-102.5 -26q-54 0 -96 20.5t-71 56.5t-44 85t-15 106q0 109 51.5 169.5t142.5 60.5q58 0 98 -24.5t68 -59.5q-3 90 -23.5 146t-66.5 88l-49 -98l-34 18l49 99q-36 16 -86 27
l11 86q67 -14 113 -37l37 72zM281 75q35 0 60 16.5t41 47.5t24.5 76t10.5 101q-29 42 -67 69t-85 27q-59 0 -89.5 -43t-30.5 -112q0 -36 8.5 -69t25.5 -58t42.5 -40t59.5 -15z" />
    <glyph glyph-name="ntilde" unicode="&#xf1;" horiz-adv-x="586" 
d="M76 0zM166 529v-65q60 78 167 78q40 0 73.5 -11.5t57.5 -36.5t37 -64.5t13 -94.5v-335h-95v325q0 69 -31.5 98t-84.5 29q-42 0 -76 -20t-56 -73v-359h-95v529h90zM86 677q19 37 47.5 58t66.5 21q29 0 52.5 -10t44.5 -22t41 -22t42 -10q26 0 43.5 16t29.5 46l45 -44
q-20 -42 -49.5 -62t-64.5 -20q-29 0 -52.5 10t-44.5 22t-42 22t-43 10q-26 0 -42.5 -15.5t-28.5 -44.5z" />
    <glyph glyph-name="ograve" unicode="&#xf2;" horiz-adv-x="561" 
d="M57 0zM281 542q48 0 89 -18t71 -53t46.5 -86.5t16.5 -119.5t-16.5 -120t-46 -87t-70.5 -53t-90 -18q-50 0 -91 18t-70.5 53t-46 87t-16.5 120t16.5 119.5t46.5 86.5t71 53t90 18zM281 454q-60 0 -96.5 -48t-36.5 -142t36.5 -141.5t96.5 -47.5q59 0 96 47.5t37 141.5
t-37 142t-96 48zM228 822l116 -218l-48 -31l-136 204z" />
    <glyph glyph-name="oacute" unicode="&#xf3;" horiz-adv-x="561" 
d="M57 0zM281 542q48 0 89 -18t71 -53t46.5 -86.5t16.5 -119.5t-16.5 -120t-46 -87t-70.5 -53t-90 -18q-50 0 -91 18t-70.5 53t-46 87t-16.5 120t16.5 119.5t46.5 86.5t71 53t90 18zM281 454q-60 0 -96.5 -48t-36.5 -142t36.5 -141.5t96.5 -47.5q59 0 96 47.5t37 141.5
t-37 142t-96 48zM400 777l-135 -204l-49 31l116 218z" />
    <glyph glyph-name="ocircumflex" unicode="&#xf4;" horiz-adv-x="561" 
d="M57 0zM281 542q48 0 89 -18t71 -53t46.5 -86.5t16.5 -119.5t-16.5 -120t-46 -87t-70.5 -53t-90 -18q-50 0 -91 18t-70.5 53t-46 87t-16.5 120t16.5 119.5t46.5 86.5t71 53t90 18zM281 454q-60 0 -96.5 -48t-36.5 -142t36.5 -141.5t96.5 -47.5q59 0 96 47.5t37 141.5
t-37 142t-96 48zM311 822l151 -197l-43 -43l-139 150l-137 -150l-44 43l151 197h61z" />
    <glyph glyph-name="otilde" unicode="&#xf5;" horiz-adv-x="561" 
d="M57 0zM281 542q48 0 89 -18t71 -53t46.5 -86.5t16.5 -119.5t-16.5 -120t-46 -87t-70.5 -53t-90 -18q-50 0 -91 18t-70.5 53t-46 87t-16.5 120t16.5 119.5t46.5 86.5t71 53t90 18zM281 454q-60 0 -96.5 -48t-36.5 -142t36.5 -141.5t96.5 -47.5q59 0 96 47.5t37 141.5
t-37 142t-96 48zM74 677q19 37 47.5 58t66.5 21q29 0 52.5 -10t44.5 -22t41 -22t42 -10q26 0 43.5 16t29.5 46l45 -44q-20 -42 -49.5 -62t-64.5 -20q-29 0 -52.5 10t-44.5 22t-42 22t-43 10q-26 0 -42.5 -15.5t-28.5 -44.5z" />
    <glyph glyph-name="odieresis" unicode="&#xf6;" horiz-adv-x="561" 
d="M57 0zM281 542q48 0 89 -18t71 -53t46.5 -86.5t16.5 -119.5t-16.5 -120t-46 -87t-70.5 -53t-90 -18q-50 0 -91 18t-70.5 53t-46 87t-16.5 120t16.5 119.5t46.5 86.5t71 53t90 18zM281 454q-60 0 -96.5 -48t-36.5 -142t36.5 -141.5t96.5 -47.5q59 0 96 47.5t37 141.5
t-37 142t-96 48zM389 731q24 0 39 -15.5t15 -41.5q0 -25 -15 -41t-39 -16t-39.5 16t-15.5 41q0 26 15.5 41.5t39.5 15.5zM171 731q24 0 39.5 -15.5t15.5 -41.5q0 -25 -15.5 -41t-39.5 -16t-39 16t-15 41q0 26 15 41.5t39 15.5z" />
    <glyph glyph-name="divide" unicode="&#xf7;" horiz-adv-x="604" 
d="M43 66zM562 379v-65h-519v65h519zM302 180q24 0 39.5 -15.5t15.5 -41.5q0 -25 -15.5 -41t-39.5 -16q-23 0 -38.5 16t-15.5 41q0 26 15.5 41.5t38.5 15.5zM302 622q24 0 39.5 -15.5t15.5 -41.5q0 -25 -15.5 -41t-39.5 -16q-23 0 -38.5 16t-15.5 41q0 26 15.5 41.5
t38.5 15.5z" />
    <glyph glyph-name="oslash" unicode="&#xf8;" horiz-adv-x="561" 
d="M281 542q57 0 102 -24l49 88h69l-70 -125q35 -35 54 -89t19 -127q0 -68 -16.5 -120t-46 -87t-70.5 -53t-90 -18q-62 0 -110 27l-42 -74h-69l63 113q-32 35 -49 88t-17 124q0 68 16.5 119.5t46.5 86.5t71 53t90 18zM414 264q0 42 -8.5 75t-22.5 56l-168 -302
q28 -18 66 -18q59 0 96 47.5t37 141.5zM281 454q-60 0 -96.5 -48t-36.5 -142q0 -75 25 -122l166 297q-26 15 -58 15z" />
    <glyph glyph-name="ugrave" unicode="&#xf9;" horiz-adv-x="586" 
d="M72 0zM167 529v-333q0 -63 32.5 -91t83.5 -28q42 0 75.5 20t56.5 74v358h95v-529h-90v66q-61 -79 -167 -79q-40 0 -73.5 11.5t-57.5 35t-37 60t-13 86.5v349h95zM240 822l116 -218l-48 -31l-136 204z" />
    <glyph glyph-name="uacute" unicode="&#xfa;" horiz-adv-x="586" 
d="M72 0zM167 529v-333q0 -63 32.5 -91t83.5 -28q42 0 75.5 20t56.5 74v358h95v-529h-90v66q-61 -79 -167 -79q-40 0 -73.5 11.5t-57.5 35t-37 60t-13 86.5v349h95zM413 777l-135 -204l-49 31l116 218z" />
    <glyph glyph-name="ucircumflex" unicode="&#xfb;" horiz-adv-x="586" 
d="M72 0zM167 529v-333q0 -63 32.5 -91t83.5 -28q42 0 75.5 20t56.5 74v358h95v-529h-90v66q-61 -79 -167 -79q-40 0 -73.5 11.5t-57.5 35t-37 60t-13 86.5v349h95zM323 822l151 -197l-43 -43l-139 150l-137 -150l-44 43l151 197h61z" />
    <glyph glyph-name="udieresis" unicode="&#xfc;" horiz-adv-x="586" 
d="M72 0zM167 529v-333q0 -63 32.5 -91t83.5 -28q42 0 75.5 20t56.5 74v358h95v-529h-90v66q-61 -79 -167 -79q-40 0 -73.5 11.5t-57.5 35t-37 60t-13 86.5v349h95zM402 731q24 0 39 -15.5t15 -41.5q0 -25 -15 -41t-39 -16t-39.5 16t-15.5 41q0 26 15.5 41.5t39.5 15.5z
M184 731q24 0 39.5 -15.5t15.5 -41.5q0 -25 -15.5 -41t-39.5 -16t-39 16t-15 41q0 26 15 41.5t39 15.5z" />
    <glyph glyph-name="yacute" unicode="&#xfd;" horiz-adv-x="534" 
d="M14 0zM112 529l151 -402l162 402h96l-288 -715h-96l80 199l-203 516h98zM387 777l-135 -204l-49 31l116 218z" />
    <glyph glyph-name="thorn" unicode="&#xfe;" horiz-adv-x="584" 
d="M171 739v-271q26 32 64 53t90 21q55 0 93.5 -24t62.5 -63.5t35 -89t11 -100.5q0 -52 -11 -102t-35 -89t-62.5 -63t-93.5 -24q-52 0 -90 21t-64 53v-237l-95 -32v914zM303 455q-48 0 -80 -24.5t-52 -61.5v-208q20 -39 51.5 -62.5t79.5 -23.5q38 0 63.5 15.5t41.5 42
t22.5 60.5t6.5 72q0 37 -6.5 71.5t-22.5 60.5t-41.5 42t-62.5 16z" />
    <glyph glyph-name="ydieresis" unicode="&#xff;" horiz-adv-x="534" 
d="M14 0zM112 529l151 -402l162 402h96l-288 -715h-96l80 199l-203 516h98zM375 731q24 0 39 -15.5t15 -41.5q0 -25 -15 -41t-39 -16t-39.5 16t-15.5 41q0 26 15.5 41.5t39.5 15.5zM157 731q24 0 39.5 -15.5t15.5 -41.5q0 -25 -15.5 -41t-39.5 -16t-39 16t-15 41
q0 26 15 41.5t39 15.5z" />
    <glyph glyph-name="Amacron" unicode="&#x100;" horiz-adv-x="668" 
d="M15 0zM387 692l266 -692h-108l-55 149h-313l-54 -149h-108l263 692h109zM210 240h246l-124 335zM541 883v-67h-414v67h414z" />
    <glyph glyph-name="amacron" unicode="&#x101;" horiz-adv-x="559" 
d="M53 0zM93 486q29 22 76 39t113 17q45 0 82.5 -10.5t65 -34.5t42.5 -63.5t15 -97.5v-336h-88v38q-68 -45 -156 -45q-40 0 -74.5 10t-60 31t-40.5 53t-15 76q0 43 15 76.5t42 55.5t64 33.5t81 11.5q35 0 71 -7t68 -21v18q0 35 -8.5 58.5t-24.5 37.5t-39 20t-51 6
q-42 0 -76.5 -11t-63.5 -31zM264 72q32 0 66.5 8t63.5 23v147q-27 10 -57.5 15t-58.5 5q-57 0 -96 -24.5t-39 -77.5q0 -26 9.5 -44t26 -29.5t38.5 -17t47 -5.5zM486 724v-67h-414v67h414z" />
    <glyph glyph-name="Abreve" unicode="&#x102;" horiz-adv-x="668" 
d="M15 0zM387 692l266 -692h-108l-55 149h-313l-54 -149h-108l263 692h109zM210 240h246l-124 335zM238 926v-20q0 -51 28 -76.5t67 -25.5t67.5 25.5t28.5 76.5v20h66v-20q0 -41 -13 -71.5t-35 -51t-51.5 -31t-62.5 -10.5t-62 10.5t-51 31t-35 51t-13 71.5v20h66z" />
    <glyph glyph-name="abreve" unicode="&#x103;" horiz-adv-x="559" 
d="M53 0zM93 486q29 22 76 39t113 17q45 0 82.5 -10.5t65 -34.5t42.5 -63.5t15 -97.5v-336h-88v38q-68 -45 -156 -45q-40 0 -74.5 10t-60 31t-40.5 53t-15 76q0 43 15 76.5t42 55.5t64 33.5t81 11.5q35 0 71 -7t68 -21v18q0 35 -8.5 58.5t-24.5 37.5t-39 20t-51 6
q-42 0 -76.5 -11t-63.5 -31zM264 72q32 0 66.5 8t63.5 23v147q-27 10 -57.5 15t-58.5 5q-57 0 -96 -24.5t-39 -77.5q0 -26 9.5 -44t26 -29.5t38.5 -17t47 -5.5zM184 767v-20q0 -51 28 -76.5t67 -25.5t67.5 25.5t28.5 76.5v20h66v-20q0 -41 -13 -71.5t-35 -51t-51.5 -31
t-62.5 -10.5t-62 10.5t-51 31t-35 51t-13 71.5v20h66z" />
    <glyph glyph-name="Aogonek" unicode="&#x104;" horiz-adv-x="668" 
d="M387 692l266 -692q-61 -12 -100.5 -32t-39.5 -57q0 -18 12 -32.5t49 -14.5q20 0 44 5t38 13l-6 -78q-14 -9 -44.5 -16t-65.5 -7q-37 0 -61 8.5t-37.5 22t-18.5 30t-5 31.5q0 48 37 77.5t92 42.5l-57 156h-313l-54 -149h-108l263 692h109zM210 240h246l-124 335z" />
    <glyph glyph-name="aogonek" unicode="&#x105;" horiz-adv-x="559" 
d="M93 486q29 22 76 39t113 17q45 0 82.5 -10.5t65 -34.5t42.5 -63.5t15 -97.5v-336q-61 -12 -100.5 -32t-39.5 -57q0 -18 12 -32.5t49 -14.5q20 0 44 5t38 13l-6 -78q-14 -9 -44.5 -16t-65.5 -7q-37 0 -61 8.5t-37.5 22t-18.5 30t-5 31.5q0 26 11.5 46.5t31.5 36t47 25.5
t57 16v41q-68 -45 -156 -45q-40 0 -74.5 10t-60 31t-40.5 53t-15 76q0 43 15 76.5t42 55.5t64 33.5t81 11.5q35 0 71 -7t68 -21v18q0 35 -8.5 58.5t-24.5 37.5t-39 20t-51 6q-42 0 -76.5 -11t-63.5 -31zM264 72q32 0 66.5 8t63.5 23v147q-27 10 -57.5 15t-58.5 5
q-57 0 -96 -24.5t-39 -77.5q0 -26 9.5 -44t26 -29.5t38.5 -17t47 -5.5z" />
    <glyph glyph-name="Cacute" unicode="&#x106;" horiz-adv-x="673" 
d="M63 0zM551 496q-30 54 -72 84t-106 30q-94 0 -151 -66.5t-57 -198.5q0 -131 57 -197.5t151 -66.5q57 0 98 25t76 81l76 -55q-87 -145 -252 -145q-66 0 -122.5 23t-97.5 68t-64.5 112t-23.5 156q0 88 23.5 155t64.5 112.5t98 68.5t124 23q95 0 157 -43t95 -110zM494 936
l-135 -204l-49 31l116 218z" />
    <glyph glyph-name="cacute" unicode="&#x107;" horiz-adv-x="508" 
d="M57 0zM414 376q-17 38 -47.5 58t-70.5 20q-30 0 -57 -12t-46.5 -35.5t-31 -59t-11.5 -83.5t11.5 -83.5t30.5 -59t44.5 -35t54.5 -11.5q41 0 71 20.5t50 53.5l68 -50q-9 -15 -24.5 -34.5t-39.5 -36.5t-56.5 -29t-73.5 -12q-47 0 -89 18t-73 53t-49 87t-18 120t18 119.5
t50.5 86.5t76 53t94.5 18q72 0 119.5 -31t67.5 -79zM412 777l-135 -204l-49 31l116 218z" />
    <glyph glyph-name="Cdotaccent" unicode="&#x10a;" horiz-adv-x="673" 
d="M63 0zM551 496q-30 54 -72 84t-106 30q-94 0 -151 -66.5t-57 -198.5q0 -131 57 -197.5t151 -66.5q57 0 98 25t76 81l76 -55q-87 -145 -252 -145q-66 0 -122.5 23t-97.5 68t-64.5 112t-23.5 156q0 88 23.5 155t64.5 112.5t98 68.5t124 23q95 0 157 -43t95 -110zM371 890
q24 0 39.5 -15.5t15.5 -41.5q0 -25 -15.5 -41t-39.5 -16t-39 16t-15 41q0 26 15 41.5t39 15.5z" />
    <glyph glyph-name="cdotaccent" unicode="&#x10b;" horiz-adv-x="508" 
d="M57 0zM414 376q-17 38 -47.5 58t-70.5 20q-30 0 -57 -12t-46.5 -35.5t-31 -59t-11.5 -83.5t11.5 -83.5t30.5 -59t44.5 -35t54.5 -11.5q41 0 71 20.5t50 53.5l68 -50q-9 -15 -24.5 -34.5t-39.5 -36.5t-56.5 -29t-73.5 -12q-47 0 -89 18t-73 53t-49 87t-18 120t18 119.5
t50.5 86.5t76 53t94.5 18q72 0 119.5 -31t67.5 -79zM288 731q24 0 39.5 -15.5t15.5 -41.5q0 -25 -15.5 -41t-39.5 -16t-39 16t-15 41q0 26 15 41.5t39 15.5z" />
    <glyph glyph-name="Ccaron" unicode="&#x10c;" horiz-adv-x="673" 
d="M63 0zM551 496q-30 54 -72 84t-106 30q-94 0 -151 -66.5t-57 -198.5q0 -131 57 -197.5t151 -66.5q57 0 98 25t76 81l76 -55q-87 -145 -252 -145q-66 0 -122.5 23t-97.5 68t-64.5 112t-23.5 156q0 88 23.5 155t64.5 112.5t98 68.5t124 23q95 0 157 -43t95 -110zM229 981
l138 -150l138 150l44 -43l-152 -197h-61l-151 197z" />
    <glyph glyph-name="ccaron" unicode="&#x10d;" horiz-adv-x="508" 
d="M57 0zM414 376q-17 38 -47.5 58t-70.5 20q-30 0 -57 -12t-46.5 -35.5t-31 -59t-11.5 -83.5t11.5 -83.5t30.5 -59t44.5 -35t54.5 -11.5q41 0 71 20.5t50 53.5l68 -50q-9 -15 -24.5 -34.5t-39.5 -36.5t-56.5 -29t-73.5 -12q-47 0 -89 18t-73 53t-49 87t-18 120t18 119.5
t50.5 86.5t76 53t94.5 18q72 0 119.5 -31t67.5 -79zM150 822l138 -150l138 150l44 -43l-152 -197h-61l-151 197z" />
    <glyph glyph-name="Dcaron" unicode="&#x10e;" horiz-adv-x="705" 
d="M81 0zM284 692q75 0 140.5 -24t114 -68.5t76 -108t27.5 -143.5t-28 -144.5t-76.5 -109.5t-113.5 -69.5t-140 -24.5h-203v692h203zM184 94h101q53 0 99 17t80.5 49.5t54.5 79.5t20 107q0 59 -19.5 105.5t-54 78.5t-81 49t-99.5 17h-101v-503zM186 981l138 -150l138 150
l44 -43l-152 -197h-61l-151 197z" />
    <glyph glyph-name="dcaron" unicode="&#x10f;" horiz-adv-x="674" 
d="M58 0zM508 739v-739h-89v68q-26 -35 -66 -58t-95 -23t-93 24t-62 63t-34.5 89t-10.5 101t10.5 101t34.5 89.5t62 63.5t93 24q52 0 90.5 -21t64.5 -53v239zM282 75q47 0 78.5 23.5t52.5 61.5v209q-21 37 -52.5 61.5t-79.5 24.5q-38 0 -63 -16t-41 -42.5t-22.5 -61
t-6.5 -71.5t6.5 -71t22.5 -60.5t41.5 -42t63.5 -15.5zM704 721l-87 -221l-54 18l47 232z" />
    <glyph glyph-name="Dcroat" unicode="&#x110;" horiz-adv-x="705" 
d="M15 0zM284 692q75 0 140.5 -24t114 -68.5t76 -108t27.5 -143.5t-28 -144.5t-76.5 -109.5t-113.5 -69.5t-140 -24.5h-203v308h-66v92h66v292h203zM184 400h162v-92h-162v-214h101q53 0 99 17t80.5 49.5t54.5 79.5t20 107q0 59 -19.5 105.5t-54 78.5t-81 49t-99.5 17h-101
v-197z" />
    <glyph glyph-name="dmacron" unicode="&#x111;" horiz-adv-x="584" 
d="M413 664v43l95 32v-75h66v-67h-66v-597h-89v68q-26 -35 -66 -58t-95 -23t-93 24t-62 63t-34.5 89t-10.5 101t10.5 101t34.5 89.5t62 63.5t93 24q52 0 90.5 -21t64.5 -53v129h-253v67h253zM282 75q47 0 78.5 23.5t52.5 61.5v209q-21 37 -52.5 61.5t-79.5 24.5
q-38 0 -63 -16t-41 -42.5t-22.5 -61t-6.5 -71.5t6.5 -71t22.5 -60.5t41.5 -42t63.5 -15.5z" />
    <glyph glyph-name="Emacron" unicode="&#x112;" horiz-adv-x="574" 
d="M81 0zM518 692v-95h-335v-197h249v-92h-249v-213h342v-95h-444v692h437zM512 883v-67h-414v67h414z" />
    <glyph glyph-name="emacron" unicode="&#x113;" horiz-adv-x="561" 
d="M57 0zM146 232q4 -41 17 -71t32.5 -49.5t44 -29t50.5 -9.5q39 0 68.5 18t47.5 44l63 -55q-11 -15 -27.5 -31.5t-39 -30t-51.5 -22.5t-65 -9q-47 0 -89 17.5t-73 52.5t-49 87.5t-18 122.5q0 66 16.5 117.5t46 86.5t70.5 53t90 18t90 -18t71 -53t46.5 -86.5t16.5 -117.5
q0 -10 -0.5 -18.5t-1.5 -16.5h-356zM281 456q-55 0 -91 -39.5t-44 -113.5h269q-8 76 -44 114.5t-90 38.5zM487 724v-67h-414v67h414z" />
    <glyph glyph-name="Ebreve" unicode="&#x114;" horiz-adv-x="574" 
d="M81 0zM518 692v-95h-335v-197h249v-92h-249v-213h342v-95h-444v692h437zM210 926v-20q0 -51 28 -76.5t67 -25.5t67.5 25.5t28.5 76.5v20h66v-20q0 -41 -13 -71.5t-35 -51t-51.5 -31t-62.5 -10.5t-62 10.5t-51 31t-35 51t-13 71.5v20h66z" />
    <glyph glyph-name="ebreve" unicode="&#x115;" horiz-adv-x="561" 
d="M57 0zM146 232q4 -41 17 -71t32.5 -49.5t44 -29t50.5 -9.5q39 0 68.5 18t47.5 44l63 -55q-11 -15 -27.5 -31.5t-39 -30t-51.5 -22.5t-65 -9q-47 0 -89 17.5t-73 52.5t-49 87.5t-18 122.5q0 66 16.5 117.5t46 86.5t70.5 53t90 18t90 -18t71 -53t46.5 -86.5t16.5 -117.5
q0 -10 -0.5 -18.5t-1.5 -16.5h-356zM281 456q-55 0 -91 -39.5t-44 -113.5h269q-8 76 -44 114.5t-90 38.5zM184 767v-20q0 -51 28 -76.5t67 -25.5t67.5 25.5t28.5 76.5v20h66v-20q0 -41 -13 -71.5t-35 -51t-51.5 -31t-62.5 -10.5t-62 10.5t-51 31t-35 51t-13 71.5v20h66z" />
    <glyph glyph-name="Edotaccent" unicode="&#x116;" horiz-adv-x="574" 
d="M81 0zM518 692v-95h-335v-197h249v-92h-249v-213h342v-95h-444v692h437zM303 890q24 0 39.5 -15.5t15.5 -41.5q0 -25 -15.5 -41t-39.5 -16t-39 16t-15 41q0 26 15 41.5t39 15.5z" />
    <glyph glyph-name="edotaccent" unicode="&#x117;" horiz-adv-x="561" 
d="M57 0zM146 232q4 -41 17 -71t32.5 -49.5t44 -29t50.5 -9.5q39 0 68.5 18t47.5 44l63 -55q-11 -15 -27.5 -31.5t-39 -30t-51.5 -22.5t-65 -9q-47 0 -89 17.5t-73 52.5t-49 87.5t-18 122.5q0 66 16.5 117.5t46 86.5t70.5 53t90 18t90 -18t71 -53t46.5 -86.5t16.5 -117.5
q0 -10 -0.5 -18.5t-1.5 -16.5h-356zM281 456q-55 0 -91 -39.5t-44 -113.5h269q-8 76 -44 114.5t-90 38.5zM282 731q24 0 39.5 -15.5t15.5 -41.5q0 -25 -15.5 -41t-39.5 -16t-39 16t-15 41q0 26 15 41.5t39 15.5z" />
    <glyph glyph-name="Eogonek" unicode="&#x118;" horiz-adv-x="574" 
d="M81 0v692h437v-95h-335v-197h249v-92h-249v-213h342v-95q-61 -12 -100.5 -32t-39.5 -57q0 -18 12 -32.5t49 -14.5q20 0 44 5t38 13l-6 -78q-14 -9 -44.5 -16t-65.5 -7q-37 0 -61 8.5t-37.5 22t-18.5 30t-5 31.5q0 28 13.5 49.5t36.5 37t53 25.5t64 15h-376z" />
    <glyph glyph-name="eogonek" unicode="&#x119;" horiz-adv-x="561" 
d="M146 232q4 -41 17 -71t32.5 -49.5t44 -29t50.5 -9.5q39 0 68.5 18t47.5 44l63 -55q-10 -14 -24.5 -28.5t-34 -27.5t-44 -22.5t-54.5 -12.5q-41 -12 -65.5 -30.5t-24.5 -47.5q0 -18 12 -32.5t49 -14.5q20 0 44 5t38 13l-6 -78q-14 -9 -44.5 -16t-65.5 -7q-37 0 -61 8.5
t-37.5 22t-18.5 30t-5 31.5q0 46 34 75t85 43q-40 6 -74.5 27t-60 55.5t-40 83t-14.5 110.5q0 66 16.5 117.5t46 86.5t70.5 53t90 18t90 -18t71 -53t46.5 -86.5t16.5 -117.5q0 -10 -0.5 -18.5t-1.5 -16.5h-356zM281 456q-55 0 -91 -39.5t-44 -113.5h269q-8 76 -44 114.5
t-90 38.5z" />
    <glyph glyph-name="Ecaron" unicode="&#x11a;" horiz-adv-x="574" 
d="M81 0zM518 692v-95h-335v-197h249v-92h-249v-213h342v-95h-444v692h437zM169 981l138 -150l138 150l44 -43l-152 -197h-61l-151 197z" />
    <glyph glyph-name="ecaron" unicode="&#x11b;" horiz-adv-x="561" 
d="M57 0zM146 232q4 -41 17 -71t32.5 -49.5t44 -29t50.5 -9.5q39 0 68.5 18t47.5 44l63 -55q-11 -15 -27.5 -31.5t-39 -30t-51.5 -22.5t-65 -9q-47 0 -89 17.5t-73 52.5t-49 87.5t-18 122.5q0 66 16.5 117.5t46 86.5t70.5 53t90 18t90 -18t71 -53t46.5 -86.5t16.5 -117.5
q0 -10 -0.5 -18.5t-1.5 -16.5h-356zM281 456q-55 0 -91 -39.5t-44 -113.5h269q-8 76 -44 114.5t-90 38.5zM143 822l138 -150l138 150l44 -43l-152 -197h-61l-151 197z" />
    <glyph glyph-name="Gbreve" unicode="&#x11e;" horiz-adv-x="705" 
d="M63 0zM648 369v-81q0 -68 -18.5 -123t-53.5 -95t-86.5 -61.5t-117.5 -21.5q-67 0 -123.5 23t-98 68t-64.5 111.5t-23 154.5t23.5 155.5t64.5 113t98 69t124 23.5q95 0 157 -43t95 -110l-74 -56q-29 54 -71.5 84t-107.5 30q-93 0 -150 -67t-57 -198t57 -197.5t150 -66.5
q78 0 127 50t51 150h-157v88h255zM273 926v-20q0 -51 28 -76.5t67 -25.5t67.5 25.5t28.5 76.5v20h66v-20q0 -41 -13 -71.5t-35 -51t-51.5 -31t-62.5 -10.5t-62 10.5t-51 31t-35 51t-13 71.5v20h66z" />
    <glyph glyph-name="gbreve" unicode="&#x11f;" horiz-adv-x="584" 
d="M58 0zM508 529v-428q0 -72 -17 -124t-52 -88t-89.5 -59t-130.5 -38l-11 85q55 13 95 29.5t66 40.5t38 55.5t12 74.5v19q-26 -32 -66 -53t-94 -21q-55 0 -93.5 23t-62.5 59.5t-34.5 83t-10.5 94.5t10.5 94.5t34.5 83t62.5 59.5t93.5 23q54 0 94 -21.5t66 -53.5v62h89z
M282 105q51 0 83.5 24.5t53.5 62.5v178q-21 38 -53.5 62t-82.5 24q-38 0 -64 -14.5t-42 -39t-22.5 -56t-6.5 -65.5t6.5 -66t22.5 -56.5t41.5 -39t63.5 -14.5zM196 767v-20q0 -51 28 -76.5t67 -25.5t67.5 25.5t28.5 76.5v20h66v-20q0 -41 -13 -71.5t-35 -51t-51.5 -31
t-62.5 -10.5t-62 10.5t-51 31t-35 51t-13 71.5v20h66z" />
    <glyph glyph-name="Gdotaccent" unicode="&#x120;" horiz-adv-x="705" 
d="M63 0zM648 369v-81q0 -68 -18.5 -123t-53.5 -95t-86.5 -61.5t-117.5 -21.5q-67 0 -123.5 23t-98 68t-64.5 111.5t-23 154.5t23.5 155.5t64.5 113t98 69t124 23.5q95 0 157 -43t95 -110l-74 -56q-29 54 -71.5 84t-107.5 30q-93 0 -150 -67t-57 -198t57 -197.5t150 -66.5
q78 0 127 50t51 150h-157v88h255zM367 890q24 0 39.5 -15.5t15.5 -41.5q0 -25 -15.5 -41t-39.5 -16t-39 16t-15 41q0 26 15 41.5t39 15.5z" />
    <glyph glyph-name="gdotaccent" unicode="&#x121;" horiz-adv-x="584" 
d="M58 0zM508 529v-428q0 -72 -17 -124t-52 -88t-89.5 -59t-130.5 -38l-11 85q55 13 95 29.5t66 40.5t38 55.5t12 74.5v19q-26 -32 -66 -53t-94 -21q-55 0 -93.5 23t-62.5 59.5t-34.5 83t-10.5 94.5t10.5 94.5t34.5 83t62.5 59.5t93.5 23q54 0 94 -21.5t66 -53.5v62h89z
M282 105q51 0 83.5 24.5t53.5 62.5v178q-21 38 -53.5 62t-82.5 24q-38 0 -64 -14.5t-42 -39t-22.5 -56t-6.5 -65.5t6.5 -66t22.5 -56.5t41.5 -39t63.5 -14.5zM289 731q24 0 39.5 -15.5t15.5 -41.5q0 -25 -15.5 -41t-39.5 -16t-39 16t-15 41q0 26 15 41.5t39 15.5z" />
    <glyph glyph-name="Gcommaaccent" unicode="&#x122;" horiz-adv-x="705" 
d="M63 0zM648 369v-81q0 -68 -18.5 -123t-53.5 -95t-86.5 -61.5t-117.5 -21.5q-67 0 -123.5 23t-98 68t-64.5 111.5t-23 154.5t23.5 155.5t64.5 113t98 69t124 23.5q95 0 157 -43t95 -110l-74 -56q-29 54 -71.5 84t-107.5 30q-93 0 -150 -67t-57 -198t57 -197.5t150 -66.5
q78 0 127 50t51 150h-157v88h255zM394 -38l-56 -181l-53 13l33 187z" />
    <glyph glyph-name="gcommaaccent" unicode="&#x123;" horiz-adv-x="584" 
d="M58 0zM508 529v-428q0 -72 -17 -124t-52 -88t-89.5 -59t-130.5 -38l-11 85q55 13 95 29.5t66 40.5t38 55.5t12 74.5v19q-26 -32 -66 -53t-94 -21q-55 0 -93.5 23t-62.5 59.5t-34.5 83t-10.5 94.5t10.5 94.5t34.5 83t62.5 59.5t93.5 23q54 0 94 -21.5t66 -53.5v62h89z
M282 105q51 0 83.5 24.5t53.5 62.5v178q-21 38 -53.5 62t-82.5 24q-38 0 -64 -14.5t-42 -39t-22.5 -56t-6.5 -65.5t6.5 -66t22.5 -56.5t41.5 -39t63.5 -14.5zM400 828l-87 -221l-54 18l47 232z" />
    <glyph glyph-name="Hbar" unicode="&#x126;" horiz-adv-x="683" 
d="M81 570v122h102v-122h317v122h102v-122h59v-67h-59v-503h-102v306h-317v-306h-102v503h-59v67h59zM500 401v102h-317v-102h317z" />
    <glyph glyph-name="hbar" unicode="&#x127;" horiz-adv-x="586" 
d="M76 664v43l95 32v-75h253v-67h-253v-127q60 72 162 72q40 0 73.5 -11.5t57.5 -36.5t37 -64.5t13 -94.5v-335h-95v325q0 69 -31.5 98t-84.5 29q-42 0 -76 -20t-56 -73v-359h-95v597h-66v67h66z" />
    <glyph glyph-name="Itilde" unicode="&#x128;" horiz-adv-x="367" 
d="M0 0zM230 692v-692h-103v692h103zM-22 836q19 37 47.5 58t66.5 21q29 0 52.5 -10t44.5 -22t41 -22t42 -10q26 0 43.5 16t29.5 46l45 -44q-20 -42 -49.5 -62t-64.5 -20q-29 0 -52.5 10t-44.5 22t-42 22t-43 10q-26 0 -42.5 -15.5t-28.5 -44.5z" />
    <glyph glyph-name="itilde" unicode="&#x129;" horiz-adv-x="366" 
d="M0 0zM-22 677q19 37 47.5 58t66.5 21q29 0 52.5 -10t44.5 -22t41 -22t42 -10q26 0 43.5 16t29.5 46l45 -44q-20 -42 -49.5 -62t-64.5 -20q-29 0 -52.5 10t-44.5 22t-42 22t-43 10q-26 0 -42.5 -15.5t-28.5 -44.5zM231 529v-529h-95v529h95z" />
    <glyph glyph-name="Imacron" unicode="&#x12a;" horiz-adv-x="390" 
d="M0 0zM246 692v-692h-103v692h103zM402 870v-67h-414v67h414z" />
    <glyph glyph-name="imacron" unicode="&#x12b;" horiz-adv-x="407" 
d="M0 0zM411 724v-67h-414v67h414zM250 529v-529h-95v529h95z" />
    <glyph glyph-name="Ibreve" unicode="&#x12c;" horiz-adv-x="313" 
d="M0 0zM208 692v-692h-103v692h103zM61 926v-20q0 -51 28 -76.5t67 -25.5t67.5 25.5t28.5 76.5v20h66v-20q0 -41 -13 -71.5t-35 -51t-51.5 -31t-62.5 -10.5t-62 10.5t-51 31t-35 51t-13 71.5v20h66z" />
    <glyph glyph-name="ibreve" unicode="&#x12d;" horiz-adv-x="321" 
d="M0 0zM65 767v-20q0 -51 28 -76.5t67 -25.5t67.5 25.5t28.5 76.5v20h66v-20q0 -41 -13 -71.5t-35 -51t-51.5 -31t-62.5 -10.5t-62 10.5t-51 31t-35 51t-13 71.5v20h66zM208 529v-529h-95v529h95z" />
    <glyph glyph-name="Iogonek" unicode="&#x12e;" horiz-adv-x="289" 
d="M208 692v-692q-61 -12 -100.5 -32t-39.5 -57q0 -18 12 -32.5t49 -14.5q20 0 44 5t38 13l-6 -78q-14 -9 -44.5 -16t-65.5 -7q-37 0 -61 8.5t-37.5 22t-18.5 30t-5 31.5q0 24 10 43.5t28 34.5t42 26t52 17v698h103z" />
    <glyph glyph-name="iogonek" unicode="&#x12f;" horiz-adv-x="247" 
d="M171 529v-529q-61 -12 -100.5 -32t-39.5 -57q0 -18 12 -32.5t49 -14.5q20 0 44 5t38 13l-6 -78q-14 -9 -44.5 -16t-65.5 -7q-37 0 -61 8.5t-37.5 22t-18.5 30t-5 31.5q0 25 11 45t30 35.5t44.5 26t54.5 16.5v533h95zM123 731q24 0 39.5 -15.5t15.5 -41.5q0 -25 -15.5 -41
t-39.5 -16t-39 16t-15 41q0 26 15 41.5t39 15.5z" />
    <glyph glyph-name="Idotaccent" unicode="&#x130;" horiz-adv-x="265" 
d="M78 0zM184 692v-692h-103v692h103zM132 877q24 0 39.5 -15.5t15.5 -41.5q0 -25 -15.5 -41t-39.5 -16t-39 16t-15 41q0 26 15 41.5t39 15.5z" />
    <glyph glyph-name="dotlessi" unicode="&#x131;" horiz-adv-x="247" 
d="M171 529v-529h-95v529h95z" />
    <glyph glyph-name="IJ" unicode="&#x132;" horiz-adv-x="816" 
d="M81 0zM184 692v-692h-103v692h103zM744 692v-433q0 -57 -18.5 -105.5t-52 -84t-81 -55.5t-105.5 -20q-38 0 -73.5 10t-66.5 29t-55 47t-38 64l77 57q23 -57 65.5 -85t92.5 -28q69 0 111 45t42 126v433h102z" />
    <glyph glyph-name="ij" unicode="&#x133;" horiz-adv-x="498" 
d="M69 0zM171 529v-529h-95v529h95zM422 529v-588q0 -53 -13.5 -83t-38.5 -44.5t-61 -18t-81 -3.5v86q56 0 77.5 14.5t21.5 58.5v578h95zM375 731q24 0 39.5 -15.5t15.5 -41.5q0 -25 -15.5 -41t-39.5 -16t-39 16t-15 41q0 26 15 41.5t39 15.5zM123 731q24 0 39.5 -15.5
t15.5 -41.5q0 -25 -15.5 -41t-39.5 -16t-39 16t-15 41q0 26 15 41.5t39 15.5z" />
    <glyph glyph-name="Kcommaaccent" unicode="&#x136;" horiz-adv-x="634" 
d="M81 0zM583 692l-221 -272l258 -420h-114l-208 341l-115 -141v-200h-102v692h102v-357l287 357h113zM374 -38l-56 -181l-53 13l33 187z" />
    <glyph glyph-name="kcommaaccent" unicode="&#x137;" horiz-adv-x="546" 
d="M76 0zM503 529l-183 -208l212 -321h-103l-168 253l-90 -102v-151h-95v707l95 32v-472l229 262h103zM335 -38l-56 -181l-53 13l33 187z" />
    <glyph glyph-name="Lacute" unicode="&#x139;" horiz-adv-x="562" 
d="M81 0zM183 692v-597h354v-95h-456v692h102zM308 923l-135 -204l-49 31l116 218z" />
    <glyph glyph-name="lacute" unicode="&#x13a;" horiz-adv-x="276" 
d="M76 0zM171 739v-739h-95v707zM268 936l-135 -204l-49 31l116 218z" />
    <glyph glyph-name="Lcommaaccent" unicode="&#x13b;" horiz-adv-x="562" 
d="M81 0zM183 692v-597h354v-95h-456v692h102zM352 -38l-56 -181l-53 13l33 187z" />
    <glyph glyph-name="lcommaaccent" unicode="&#x13c;" horiz-adv-x="247" 
d="M54 0zM171 739v-739h-95v707zM163 -38l-56 -181l-53 13l33 187z" />
    <glyph glyph-name="Lcaron" unicode="&#x13d;" horiz-adv-x="562" 
d="M81 0zM183 692v-597h354v-95h-456v692h102zM464 721l-87 -221l-54 18l47 232z" />
    <glyph glyph-name="lcaron" unicode="&#x13e;" horiz-adv-x="338" 
d="M76 0zM171 739v-739h-95v707zM367 721l-87 -221l-54 18l47 232z" />
    <glyph glyph-name="Lslash" unicode="&#x141;" horiz-adv-x="562" 
d="M183 692v-234l177 106l28 -52l-205 -123v-294h354v-95h-456v328l-49 -29l-29 52l78 46v295h102z" />
    <glyph glyph-name="lslash" unicode="&#x142;" horiz-adv-x="368" 
d="M232 739v-191l116 70l28 -52l-144 -86v-480h-95v423l-117 -70l-29 52l146 87v215z" />
    <glyph glyph-name="Nacute" unicode="&#x143;" horiz-adv-x="686" 
d="M81 0zM183 692l330 -510v510h102v-692h-95l-337 505v-505h-102v692h102zM463 936l-135 -204l-49 31l116 218z" />
    <glyph glyph-name="nacute" unicode="&#x144;" horiz-adv-x="586" 
d="M76 0zM166 529v-65q60 78 167 78q40 0 73.5 -11.5t57.5 -36.5t37 -64.5t13 -94.5v-335h-95v325q0 69 -31.5 98t-84.5 29q-42 0 -76 -20t-56 -73v-359h-95v529h90zM413 777l-135 -204l-49 31l116 218z" />
    <glyph glyph-name="Ncommaaccent" unicode="&#x145;" horiz-adv-x="686" 
d="M81 0zM183 692l330 -510v510h102v-692h-95l-337 505v-505h-102v692h102zM394 -38l-56 -181l-53 13l33 187z" />
    <glyph glyph-name="ncommaaccent" unicode="&#x146;" horiz-adv-x="586" 
d="M76 0zM166 529v-65q60 78 167 78q40 0 73.5 -11.5t57.5 -36.5t37 -64.5t13 -94.5v-335h-95v325q0 69 -31.5 98t-84.5 29q-42 0 -76 -20t-56 -73v-359h-95v529h90zM334 -38l-56 -181l-53 13l33 187z" />
    <glyph glyph-name="Ncaron" unicode="&#x147;" horiz-adv-x="686" 
d="M81 0zM183 692l330 -510v510h102v-692h-95l-337 505v-505h-102v692h102zM205 981l138 -150l138 150l44 -43l-152 -197h-61l-151 197z" />
    <glyph glyph-name="ncaron" unicode="&#x148;" horiz-adv-x="586" 
d="M76 0zM166 529v-65q60 78 167 78q40 0 73.5 -11.5t57.5 -36.5t37 -64.5t13 -94.5v-335h-95v325q0 69 -31.5 98t-84.5 29q-42 0 -76 -20t-56 -73v-359h-95v529h90zM155 822l138 -150l138 150l44 -43l-152 -197h-61l-151 197z" />
    <glyph glyph-name="Eng" unicode="&#x14a;" horiz-adv-x="676" 
d="M501 462q0 76 -39 111.5t-108 35.5q-60 0 -102 -27.5t-68 -87.5v-494h-103v692h96v-81q32 44 81.5 69t121.5 25q103 0 163 -57.5t60 -174.5v-532q0 -53 -14.5 -83t-41 -44.5t-63.5 -18t-82 -3.5v86q56 0 77.5 14.5t21.5 58.5v511v0z" />
    <glyph glyph-name="eng" unicode="&#x14b;" horiz-adv-x="586" 
d="M419 325q0 69 -31.5 98t-84.5 29q-42 0 -76 -20t-56 -73v-359h-95v529h90v-65q60 78 167 78q40 0 73.5 -11.5t57.5 -36.5t37 -64.5t13 -94.5v-394q0 -53 -13.5 -83t-38.5 -44.5t-61 -18t-81 -3.5v86q56 0 77.5 14.5t21.5 58.5v374v0z" />
    <glyph glyph-name="Omacron" unicode="&#x14c;" horiz-adv-x="729" 
d="M63 0zM363 705q66 0 121.5 -23t95.5 -68.5t62.5 -113t22.5 -155.5t-22.5 -155t-62.5 -112t-95.5 -68t-121.5 -23t-121 23t-94.5 68t-62 112t-22.5 155t22.5 155.5t62 113t94.5 68.5t121 23zM363 610q-44 0 -80.5 -17t-62.5 -50t-40.5 -82.5t-14.5 -115.5
q0 -65 14.5 -114.5t40.5 -82.5t62.5 -50t80.5 -17q45 0 82 17t63.5 50t41 82.5t14.5 114.5q0 66 -14.5 115.5t-41 82.5t-63.5 50t-82 17zM571 883v-67h-414v67h414z" />
    <glyph glyph-name="omacron" unicode="&#x14d;" horiz-adv-x="561" 
d="M57 0zM281 542q48 0 89 -18t71 -53t46.5 -86.5t16.5 -119.5t-16.5 -120t-46 -87t-70.5 -53t-90 -18q-50 0 -91 18t-70.5 53t-46 87t-16.5 120t16.5 119.5t46.5 86.5t71 53t90 18zM281 454q-60 0 -96.5 -48t-36.5 -142t36.5 -141.5t96.5 -47.5q59 0 96 47.5t37 141.5
t-37 142t-96 48zM487 724v-67h-414v67h414z" />
    <glyph glyph-name="Obreve" unicode="&#x14e;" horiz-adv-x="729" 
d="M63 0zM363 705q66 0 121.5 -23t95.5 -68.5t62.5 -113t22.5 -155.5t-22.5 -155t-62.5 -112t-95.5 -68t-121.5 -23t-121 23t-94.5 68t-62 112t-22.5 155t22.5 155.5t62 113t94.5 68.5t121 23zM363 610q-44 0 -80.5 -17t-62.5 -50t-40.5 -82.5t-14.5 -115.5
q0 -65 14.5 -114.5t40.5 -82.5t62.5 -50t80.5 -17q45 0 82 17t63.5 50t41 82.5t14.5 114.5q0 66 -14.5 115.5t-41 82.5t-63.5 50t-82 17zM268 926v-20q0 -51 28 -76.5t67 -25.5t67.5 25.5t28.5 76.5v20h66v-20q0 -41 -13 -71.5t-35 -51t-51.5 -31t-62.5 -10.5t-62 10.5
t-51 31t-35 51t-13 71.5v20h66z" />
    <glyph glyph-name="obreve" unicode="&#x14f;" horiz-adv-x="561" 
d="M57 0zM281 542q48 0 89 -18t71 -53t46.5 -86.5t16.5 -119.5t-16.5 -120t-46 -87t-70.5 -53t-90 -18q-50 0 -91 18t-70.5 53t-46 87t-16.5 120t16.5 119.5t46.5 86.5t71 53t90 18zM281 454q-60 0 -96.5 -48t-36.5 -142t36.5 -141.5t96.5 -47.5q59 0 96 47.5t37 141.5
t-37 142t-96 48zM184 767v-20q0 -51 28 -76.5t67 -25.5t67.5 25.5t28.5 76.5v20h66v-20q0 -41 -13 -71.5t-35 -51t-51.5 -31t-62.5 -10.5t-62 10.5t-51 31t-35 51t-13 71.5v20h66z" />
    <glyph glyph-name="Ohungarumlaut" unicode="&#x150;" horiz-adv-x="729" 
d="M63 0zM363 705q66 0 121.5 -23t95.5 -68.5t62.5 -113t22.5 -155.5t-22.5 -155t-62.5 -112t-95.5 -68t-121.5 -23t-121 23t-94.5 68t-62 112t-22.5 155t22.5 155.5t62 113t94.5 68.5t121 23zM363 610q-44 0 -80.5 -17t-62.5 -50t-40.5 -82.5t-14.5 -115.5
q0 -65 14.5 -114.5t40.5 -82.5t62.5 -50t80.5 -17q45 0 82 17t63.5 50t41 82.5t14.5 114.5q0 66 -14.5 115.5t-41 82.5t-63.5 50t-82 17zM582 936l-135 -204l-49 31l116 218zM385 936l-135 -204l-49 31l116 218z" />
    <glyph glyph-name="ohungarumlaut" unicode="&#x151;" horiz-adv-x="561" 
d="M57 0zM281 542q48 0 89 -18t71 -53t46.5 -86.5t16.5 -119.5t-16.5 -120t-46 -87t-70.5 -53t-90 -18q-50 0 -91 18t-70.5 53t-46 87t-16.5 120t16.5 119.5t46.5 86.5t71 53t90 18zM281 454q-60 0 -96.5 -48t-36.5 -142t36.5 -141.5t96.5 -47.5q59 0 96 47.5t37 141.5
t-37 142t-96 48zM499 777l-135 -204l-49 31l116 218zM302 777l-135 -204l-49 31l116 218z" />
    <glyph glyph-name="OE" unicode="&#x152;" horiz-adv-x="1060" 
d="M363 705q124 0 203 -77v64h437v-95h-335v-197h249v-92h-249v-213h342v-95h-444v63q-39 -38 -90.5 -57t-112.5 -19q-66 0 -121 23t-94.5 68t-62 112t-22.5 155t22.5 155.5t62 113t94.5 68.5t121 23zM363 610q-44 0 -80.5 -17t-62.5 -50t-40.5 -82.5t-14.5 -115.5
q0 -65 14.5 -114.5t40.5 -82.5t62.5 -50t80.5 -17q45 0 82 17t63.5 50t41 82.5t14.5 114.5q0 66 -14.5 115.5t-41 82.5t-63.5 50t-82 17z" />
    <glyph glyph-name="oe" unicode="&#x153;" horiz-adv-x="921" 
d="M281 542q57 0 103.5 -25t75.5 -73q30 48 76 73t104 25q49 0 90 -18t71 -53t46.5 -86.5t16.5 -117.5q0 -10 -0.5 -18.5t-1.5 -16.5h-356q4 -41 17 -71t32.5 -49.5t44 -29t50.5 -9.5q39 0 68.5 18t47.5 44l63 -55q-11 -15 -27.5 -31.5t-39 -30t-51.5 -22.5t-65 -9
q-57 0 -104.5 24.5t-79.5 75.5q-30 -50 -76.5 -75t-104.5 -25q-50 0 -91 18t-70.5 53t-46 87t-16.5 120t16.5 119.5t46.5 86.5t71 53t90 18zM281 454q-60 0 -96.5 -48t-36.5 -142t36.5 -141.5t96.5 -47.5q59 0 96 47.5t37 141.5t-37 142t-96 48zM641 456q-55 0 -91 -39.5
t-44 -113.5h269q-8 76 -44 114.5t-90 38.5z" />
    <glyph glyph-name="Racute" unicode="&#x154;" horiz-adv-x="653" 
d="M81 0zM364 692q52 0 95 -13.5t74 -40t47.5 -66.5t16.5 -93q0 -83 -39 -133t-106 -69l178 -277h-116l-166 266h-165v-266h-102v692h283zM183 354h183q60 0 97 30t37 93t-37 92.5t-97 29.5h-183v-245zM446 936l-135 -204l-49 31l116 218z" />
    <glyph glyph-name="racute" unicode="&#x155;" horiz-adv-x="429" 
d="M76 0zM376 426q-14 14 -33 20t-43 6q-41 0 -73.5 -19.5t-55.5 -75.5v-357h-95v529h90v-64q57 77 152 77q35 0 57 -9.5t36 -22.5zM335 777l-135 -204l-49 31l116 218z" />
    <glyph glyph-name="Rcommaaccent" unicode="&#x156;" horiz-adv-x="653" 
d="M81 0zM364 692q52 0 95 -13.5t74 -40t47.5 -66.5t16.5 -93q0 -83 -39 -133t-106 -69l178 -277h-116l-166 266h-165v-266h-102v692h283zM183 354h183q60 0 97 30t37 93t-37 92.5t-97 29.5h-183v-245zM377 -38l-56 -181l-53 13l33 187z" />
    <glyph glyph-name="rcommaaccent" unicode="&#x157;" horiz-adv-x="429" 
d="M54 0zM376 426q-14 14 -33 20t-43 6q-41 0 -73.5 -19.5t-55.5 -75.5v-357h-95v529h90v-64q57 77 152 77q35 0 57 -9.5t36 -22.5zM163 -38l-56 -181l-53 13l33 187z" />
    <glyph glyph-name="Rcaron" unicode="&#x158;" horiz-adv-x="653" 
d="M81 0zM364 692q52 0 95 -13.5t74 -40t47.5 -66.5t16.5 -93q0 -83 -39 -133t-106 -69l178 -277h-116l-166 266h-165v-266h-102v692h283zM183 354h183q60 0 97 30t37 93t-37 92.5t-97 29.5h-183v-245zM189 981l138 -150l138 150l44 -43l-152 -197h-61l-151 197z" />
    <glyph glyph-name="rcaron" unicode="&#x159;" horiz-adv-x="429" 
d="M33 0zM376 426q-14 14 -33 20t-43 6q-41 0 -73.5 -19.5t-55.5 -75.5v-357h-95v529h90v-64q57 77 152 77q35 0 57 -9.5t36 -22.5zM77 822l138 -150l138 150l44 -43l-152 -197h-61l-151 197z" />
    <glyph glyph-name="Sacute" unicode="&#x15a;" horiz-adv-x="635" 
d="M31 0zM107 179q36 -43 90.5 -70t129.5 -27q78 0 125 31t47 89q0 39 -21 59t-54 32q-24 9 -52.5 15.5t-58 13t-59.5 14t-58 18.5q-55 22 -86.5 57.5t-31.5 95.5q0 42 16.5 77t48 60.5t78 40t105.5 14.5q50 0 90 -9.5t71.5 -25.5t55 -35.5t38.5 -39.5l-71 -63
q-30 34 -76 57.5t-112 23.5q-68 0 -107 -26t-39 -70q0 -33 20 -50.5t46 -28.5q24 -9 52.5 -15.5t58.5 -12.5t60.5 -13.5t59.5 -18.5q25 -10 47.5 -23.5t39.5 -34t27.5 -47.5t10.5 -64q0 -53 -21 -92.5t-58.5 -65.5t-88 -39.5t-109.5 -13.5q-104 0 -176.5 36t-113.5 89z
M446 936l-135 -204l-49 31l116 218z" />
    <glyph glyph-name="sacute" unicode="&#x15b;" horiz-adv-x="476" 
d="M27 0zM404 390q-26 28 -68.5 47.5t-93.5 19.5t-75 -19t-24 -46q0 -20 12 -33t33 -22q18 -8 40.5 -14t46.5 -13t49 -15t47 -19q41 -20 60.5 -48.5t19.5 -74.5q0 -47 -18 -78.5t-48 -51t-68 -28t-77 -8.5q-36 0 -68.5 6t-59.5 16.5t-48.5 24t-36.5 28.5l37 80
q29 -27 75 -47t100 -20q51 0 84.5 20t33.5 58q0 22 -13.5 36t-43.5 26q-21 9 -45 16t-47.5 13.5t-45 13.5t-38.5 15q-34 17 -54.5 45t-20.5 72q0 36 15 64.5t41 48t62.5 29.5t78.5 10q68 0 117 -22t76 -48zM358 777l-135 -204l-49 31l116 218z" />
    <glyph glyph-name="Scedilla" unicode="&#x15e;" horiz-adv-x="635" 
d="M31 0zM107 179q36 -43 90.5 -70t129.5 -27q78 0 125 31t47 89q0 39 -21 59t-54 32q-24 9 -52.5 15.5t-58 13t-59.5 14t-58 18.5q-55 22 -86.5 57.5t-31.5 95.5q0 42 16.5 77t48 60.5t78 40t105.5 14.5q50 0 90 -9.5t71.5 -25.5t55 -35.5t38.5 -39.5l-71 -63
q-30 34 -76 57.5t-112 23.5q-68 0 -107 -26t-39 -70q0 -33 20 -50.5t46 -28.5q24 -9 52.5 -15.5t58.5 -12.5t60.5 -13.5t59.5 -18.5q25 -10 47.5 -23.5t39.5 -34t27.5 -47.5t10.5 -64q0 -53 -21 -92.5t-58.5 -65.5t-88 -39.5t-109.5 -13.5q-104 0 -176.5 36t-113.5 89z
M359 -38l-56 -181l-53 13l33 187z" />
    <glyph glyph-name="scedilla" unicode="&#x15f;" horiz-adv-x="476" 
d="M27 0zM404 390q-26 28 -68.5 47.5t-93.5 19.5t-75 -19t-24 -46q0 -20 12 -33t33 -22q18 -8 40.5 -14t46.5 -13t49 -15t47 -19q41 -20 60.5 -48.5t19.5 -74.5q0 -47 -18 -78.5t-48 -51t-68 -28t-77 -8.5q-36 0 -68.5 6t-59.5 16.5t-48.5 24t-36.5 28.5l37 80
q29 -27 75 -47t100 -20q51 0 84.5 20t33.5 58q0 22 -13.5 36t-43.5 26q-21 9 -45 16t-47.5 13.5t-45 13.5t-38.5 15q-34 17 -54.5 45t-20.5 72q0 36 15 64.5t41 48t62.5 29.5t78.5 10q68 0 117 -22t76 -48zM289 -38l-56 -181l-53 13l33 187z" />
    <glyph glyph-name="Scaron" unicode="&#x160;" horiz-adv-x="635" 
d="M31 0zM107 179q36 -43 90.5 -70t129.5 -27q78 0 125 31t47 89q0 39 -21 59t-54 32q-24 9 -52.5 15.5t-58 13t-59.5 14t-58 18.5q-55 22 -86.5 57.5t-31.5 95.5q0 42 16.5 77t48 60.5t78 40t105.5 14.5q50 0 90 -9.5t71.5 -25.5t55 -35.5t38.5 -39.5l-71 -63
q-30 34 -76 57.5t-112 23.5q-68 0 -107 -26t-39 -70q0 -33 20 -50.5t46 -28.5q24 -9 52.5 -15.5t58.5 -12.5t60.5 -13.5t59.5 -18.5q25 -10 47.5 -23.5t39.5 -34t27.5 -47.5t10.5 -64q0 -53 -21 -92.5t-58.5 -65.5t-88 -39.5t-109.5 -13.5q-104 0 -176.5 36t-113.5 89z
M189 981l138 -150l138 150l44 -43l-152 -197h-61l-151 197z" />
    <glyph glyph-name="scaron" unicode="&#x161;" horiz-adv-x="475" 
d="M27 0zM404 390q-26 28 -68.5 47.5t-93.5 19.5t-75 -19t-24 -46q0 -20 12 -33t33 -22q18 -8 40.5 -14t46.5 -13t49 -15t47 -19q41 -20 60.5 -48.5t19.5 -74.5q0 -47 -18 -78.5t-48 -51t-68 -28t-77 -8.5q-36 0 -68.5 6t-59.5 16.5t-48.5 24t-36.5 28.5l37 80
q29 -27 75 -47t100 -20q51 0 84.5 20t33.5 58q0 22 -13.5 36t-43.5 26q-21 9 -45 16t-47.5 13.5t-45 13.5t-38.5 15q-34 17 -54.5 45t-20.5 72q0 36 15 64.5t41 48t62.5 29.5t78.5 10q68 0 117 -22t76 -48zM99 822l138 -150l138 150l44 -43l-152 -197h-61l-151 197z" />
    <glyph glyph-name="Tcedilla" unicode="&#x162;" horiz-adv-x="571" 
d="M25 0zM545 692v-95h-208v-597h-102v597h-210v95h520zM322 -38l-56 -181l-53 13l33 187z" />
    <glyph glyph-name="tcedilla" unicode="&#x163;" horiz-adv-x="356" 
d="M22 0zM82 529v143l95 31v-174h135v-78h-135v-300q0 -64 62 -64q21 0 39.5 7.5t36.5 24.5l-16 -87q-14 -17 -41.5 -27t-56.5 -10q-49 0 -84 33.5t-35 101.5v321h-60v78h60zM221 -38l-56 -181l-53 13l33 187z" />
    <glyph glyph-name="Tcaron" unicode="&#x164;" horiz-adv-x="571" 
d="M25 0zM545 692v-95h-208v-597h-102v597h-210v95h520zM147 981l138 -150l138 150l44 -43l-152 -197h-61l-151 197z" />
    <glyph glyph-name="tcaron" unicode="&#x165;" horiz-adv-x="432" 
d="M22 0zM82 529v143l95 31v-174h135v-78h-135v-300q0 -64 62 -64q21 0 39.5 7.5t36.5 24.5l-16 -87q-14 -17 -41.5 -27t-56.5 -10q-49 0 -84 33.5t-35 101.5v321h-60v78h60zM462 721l-87 -221l-54 18l47 232z" />
    <glyph glyph-name="Tbar" unicode="&#x166;" horiz-adv-x="571" 
d="M235 370v227h-210v95h520v-95h-208v-227h155v-67h-155v-303h-102v303h-157v67h157z" />
    <glyph glyph-name="tbar" unicode="&#x167;" horiz-adv-x="427" 
d="M116 312v139h-60v78h60v143l95 31v-174h135v-78h-135v-139h210v-67h-210v-94q0 -64 62 -64q21 0 39.5 7.5t36.5 24.5l-16 -87q-14 -17 -41.5 -27t-56.5 -10q-49 0 -84 33.5t-35 101.5v115h-109v67h109z" />
    <glyph glyph-name="Utilde" unicode="&#x168;" horiz-adv-x="668" 
d="M72 0zM175 692v-433q0 -42 12 -74t33.5 -53.5t50.5 -32.5t62 -11t62 11t51 32.5t34.5 53.5t12.5 74v433h102v-433q0 -66 -20.5 -116t-56.5 -83t-83.5 -49.5t-101.5 -16.5t-101.5 16.5t-83 49.5t-56 83t-20.5 116v433h103zM128 836q19 37 47.5 58t66.5 21q29 0 52.5 -10
t44.5 -22t41 -22t42 -10q26 0 43.5 16t29.5 46l45 -44q-20 -42 -49.5 -62t-64.5 -20q-29 0 -52.5 10t-44.5 22t-42 22t-43 10q-26 0 -42.5 -15.5t-28.5 -44.5z" />
    <glyph glyph-name="utilde" unicode="&#x169;" horiz-adv-x="586" 
d="M72 0zM167 529v-333q0 -63 32.5 -91t83.5 -28q42 0 75.5 20t56.5 74v358h95v-529h-90v66q-61 -79 -167 -79q-40 0 -73.5 11.5t-57.5 35t-37 60t-13 86.5v349h95zM86 677q19 37 47.5 58t66.5 21q29 0 52.5 -10t44.5 -22t41 -22t42 -10q26 0 43.5 16t29.5 46l45 -44
q-20 -42 -49.5 -62t-64.5 -20q-29 0 -52.5 10t-44.5 22t-42 22t-43 10q-26 0 -42.5 -15.5t-28.5 -44.5z" />
    <glyph glyph-name="Umacron" unicode="&#x16a;" horiz-adv-x="668" 
d="M72 0zM175 692v-433q0 -42 12 -74t33.5 -53.5t50.5 -32.5t62 -11t62 11t51 32.5t34.5 53.5t12.5 74v433h102v-433q0 -66 -20.5 -116t-56.5 -83t-83.5 -49.5t-101.5 -16.5t-101.5 16.5t-83 49.5t-56 83t-20.5 116v433h103zM541 883v-67h-414v67h414z" />
    <glyph glyph-name="umacron" unicode="&#x16b;" horiz-adv-x="586" 
d="M72 0zM167 529v-333q0 -63 32.5 -91t83.5 -28q42 0 75.5 20t56.5 74v358h95v-529h-90v66q-61 -79 -167 -79q-40 0 -73.5 11.5t-57.5 35t-37 60t-13 86.5v349h95zM499 724v-67h-414v67h414z" />
    <glyph glyph-name="Uring" unicode="&#x16e;" horiz-adv-x="668" 
d="M72 0zM175 692v-433q0 -42 12 -74t33.5 -53.5t50.5 -32.5t62 -11t62 11t51 32.5t34.5 53.5t12.5 74v433h102v-433q0 -66 -20.5 -116t-56.5 -83t-83.5 -49.5t-101.5 -16.5t-101.5 16.5t-83 49.5t-56 83t-20.5 116v433h103zM333 977q26 0 49 -10.5t40 -28t27 -41t10 -49.5
q0 -27 -10 -50.5t-27.5 -41t-40.5 -28t-48 -10.5q-26 0 -49 10.5t-40 28t-27 41t-10 50.5q0 26 10 49.5t27 41t40 28t49 10.5zM333 929q-33 0 -55.5 -24t-22.5 -58q0 -17 6 -32t16.5 -26t25 -17.5t30.5 -6.5t30.5 6.5t25 17.5t16.5 26t6 32t-6 32t-16.5 26t-25 17.5
t-30.5 6.5z" />
    <glyph glyph-name="uring" unicode="&#x16f;" horiz-adv-x="586" 
d="M72 0zM167 529v-333q0 -63 32.5 -91t83.5 -28q42 0 75.5 20t56.5 74v358h95v-529h-90v66q-61 -79 -167 -79q-40 0 -73.5 11.5t-57.5 35t-37 60t-13 86.5v349h95zM292 818q26 0 49 -10.5t40 -28t27 -41t10 -49.5q0 -27 -10 -50.5t-27.5 -41t-40.5 -28t-48 -10.5
q-26 0 -49 10.5t-40 28t-27 41t-10 50.5q0 26 10 49.5t27 41t40 28t49 10.5zM292 770q-33 0 -55.5 -24t-22.5 -58q0 -17 6 -32t16.5 -26t25 -17.5t30.5 -6.5t30.5 6.5t25 17.5t16.5 26t6 32t-6 32t-16.5 26t-25 17.5t-30.5 6.5z" />
    <glyph glyph-name="Uhungarumlaut" unicode="&#x170;" horiz-adv-x="668" 
d="M72 0zM175 692v-433q0 -42 12 -74t33.5 -53.5t50.5 -32.5t62 -11t62 11t51 32.5t34.5 53.5t12.5 74v433h102v-433q0 -66 -20.5 -116t-56.5 -83t-83.5 -49.5t-101.5 -16.5t-101.5 16.5t-83 49.5t-56 83t-20.5 116v433h103zM552 936l-135 -204l-49 31l116 218zM355 936
l-135 -204l-49 31l116 218z" />
    <glyph glyph-name="uhungarumlaut" unicode="&#x171;" horiz-adv-x="586" 
d="M72 0zM167 529v-333q0 -63 32.5 -91t83.5 -28q42 0 75.5 20t56.5 74v358h95v-529h-90v66q-61 -79 -167 -79q-40 0 -73.5 11.5t-57.5 35t-37 60t-13 86.5v349h95zM511 777l-135 -204l-49 31l116 218zM314 777l-135 -204l-49 31l116 218z" />
    <glyph glyph-name="Uogonek" unicode="&#x172;" horiz-adv-x="668" 
d="M175 692v-433q0 -42 12 -74t33.5 -53.5t50.5 -32.5t62 -11t62 11t51 32.5t34.5 53.5t12.5 74v433h102v-433q0 -59 -16.5 -105t-46 -79t-69 -52.5t-85.5 -25.5q-40 -14 -63.5 -35.5t-23.5 -50.5q0 -18 12 -32.5t49 -14.5q20 0 44 5t38 13l-6 -78q-14 -9 -44.5 -16
t-65.5 -7q-37 0 -61 8.5t-37.5 22t-18.5 30t-5 31.5q0 42 29.5 74t74.5 49q-48 4 -89.5 23t-72.5 51.5t-48.5 79.5t-17.5 109v433h103z" />
    <glyph glyph-name="uogonek" unicode="&#x173;" horiz-adv-x="586" 
d="M167 529v-333q0 -63 32.5 -91t83.5 -28q42 0 75.5 20t56.5 74v358h95v-529q-61 -12 -100.5 -32t-39.5 -57q0 -18 12 -32.5t49 -14.5q20 0 44 5t38 13l-6 -78q-14 -9 -44.5 -16t-65.5 -7q-37 0 -61 8.5t-37.5 22t-18.5 30t-5 31.5q0 25 11.5 45.5t31 36t46 26t56.5 16.5
v69q-61 -79 -167 -79q-40 0 -73.5 11.5t-57.5 35t-37 60t-13 86.5v349h95z" />
    <glyph glyph-name="Wcircumflex" unicode="&#x174;" horiz-adv-x="884" 
d="M16 0zM124 692l123 -507l146 507h99l144 -507l126 507h106l-174 -692h-99l-153 507l-158 -507h-97l-171 692h108zM472 981l151 -197l-43 -43l-139 150l-137 -150l-44 43l151 197h61z" />
    <glyph glyph-name="wcircumflex" unicode="&#x175;" horiz-adv-x="694" 
d="M16 0zM106 529l91 -372l113 372h76l111 -372l93 372h89l-133 -529h-83l-116 383l-118 -383h-83l-130 529h90zM377 822l151 -197l-43 -43l-139 150l-137 -150l-44 43l151 197h61z" />
    <glyph glyph-name="Ycircumflex" unicode="&#x176;" horiz-adv-x="642" 
d="M10 0zM128 692l194 -344l196 344h114l-260 -437v-255h-101v255l-261 437h118zM351 981l151 -197l-43 -43l-139 150l-137 -150l-44 43l151 197h61z" />
    <glyph glyph-name="ycircumflex" unicode="&#x177;" horiz-adv-x="534" 
d="M14 0zM112 529l151 -402l162 402h96l-288 -715h-96l80 199l-203 516h98zM296 822l151 -197l-43 -43l-139 150l-137 -150l-44 43l151 197h61z" />
    <glyph glyph-name="Ydieresis" unicode="&#x178;" horiz-adv-x="642" 
d="M10 0zM128 692l194 -344l196 344h114l-260 -437v-255h-101v255l-261 437h118zM430 890q24 0 39 -15.5t15 -41.5q0 -25 -15 -41t-39 -16t-39.5 16t-15.5 41q0 26 15.5 41.5t39.5 15.5zM212 890q24 0 39.5 -15.5t15.5 -41.5q0 -25 -15.5 -41t-39.5 -16t-39 16t-15 41
q0 26 15 41.5t39 15.5z" />
    <glyph glyph-name="Zacute" unicode="&#x179;" horiz-adv-x="591" 
d="M59 0zM535 692v-98l-355 -499h355v-95h-476v101l361 496h-346v95h461zM425 936l-135 -204l-49 31l116 218z" />
    <glyph glyph-name="zacute" unicode="&#x17a;" horiz-adv-x="527" 
d="M57 0zM469 529v-80l-300 -371h305v-78h-417v82l304 369h-291v78h399zM383 777l-135 -204l-49 31l116 218z" />
    <glyph glyph-name="Zdotaccent" unicode="&#x17b;" horiz-adv-x="591" 
d="M59 0zM535 692v-98l-355 -499h355v-95h-476v101l361 496h-346v95h461zM309 890q24 0 39.5 -15.5t15.5 -41.5q0 -25 -15.5 -41t-39.5 -16t-39 16t-15 41q0 26 15 41.5t39 15.5z" />
    <glyph glyph-name="zdotaccent" unicode="&#x17c;" horiz-adv-x="527" 
d="M57 0zM469 529v-80l-300 -371h305v-78h-417v82l304 369h-291v78h399zM268 731q24 0 39.5 -15.5t15.5 -41.5q0 -25 -15.5 -41t-39.5 -16t-39 16t-15 41q0 26 15 41.5t39 15.5z" />
    <glyph glyph-name="Zcaron" unicode="&#x17d;" horiz-adv-x="591" 
d="M59 0zM535 692v-98l-355 -499h355v-95h-476v101l361 496h-346v95h461zM168 981l138 -150l138 150l44 -43l-152 -197h-61l-151 197z" />
    <glyph glyph-name="zcaron" unicode="&#x17e;" horiz-adv-x="527" 
d="M57 0zM469 529v-80l-300 -371h305v-78h-417v82l304 369h-291v78h399zM125 822l138 -150l138 150l44 -43l-152 -197h-61l-151 197z" />
    <glyph glyph-name="uni0180" unicode="&#x180;" horiz-adv-x="584" 
d="M76 664v42l95 33v-75h253v-67h-253v-129q26 32 64 53t90 21q55 0 93.5 -24t62.5 -63.5t35 -89.5t11 -101t-11 -101t-35 -89t-62.5 -63t-93.5 -24q-54 0 -93.5 22.5t-65.5 57.5v-67h-90v597h-66v67h66zM303 455q-48 0 -80 -24.5t-52 -61.5v-208q20 -39 51.5 -62.5
t79.5 -23.5q38 0 63.5 15.5t41.5 42t22.5 60.5t6.5 72q0 37 -6.5 71.5t-22.5 60.5t-41.5 42t-62.5 16z" />
    <glyph glyph-name="uni0181" unicode="&#x181;" horiz-adv-x="810" 
d="M548 692q45 0 82.5 -11.5t64.5 -35t42 -58t15 -79.5q0 -108 -86 -148q50 -20 79.5 -60t29.5 -107q0 -92 -58.5 -142.5t-168.5 -50.5h-300v612h-71q-31 0 -51 -16t-20 -61v-128h-95v143q0 42 10.5 69.5t29 43.5t44.5 22.5t57 6.5h396zM348 92h199q66 0 99 27.5t33 80.5
q0 57 -37 84t-106 27h-188v-219zM348 395h203q44 0 74.5 26t30.5 78q0 51 -29.5 75.5t-75.5 24.5h-203v-204z" />
    <glyph glyph-name="uni0187" unicode="&#x187;" horiz-adv-x="739" 
d="M616 479h-95v62q-27 33 -63 51t-85 18q-94 0 -151 -66.5t-57 -198.5q0 -131 57 -197.5t151 -66.5q57 0 98 25t76 81l76 -55q-87 -145 -252 -145q-66 0 -122.5 23t-97.5 68t-64.5 112t-23.5 156q0 88 23.5 155t64.5 112.5t98 68.5t124 23q46 0 84 -10.5t69 -30.5
q12 47 46 64t87 17q21 0 39.5 -2t29.5 -4v-77q-8 2 -21 2.5t-22 0.5q-32 0 -50.5 -13t-18.5 -53v-120z" />
    <glyph glyph-name="uni0188" unicode="&#x188;" horiz-adv-x="596" 
d="M473 368h-95v57q-34 29 -82 29q-30 0 -57 -12t-46.5 -35.5t-31 -59t-11.5 -83.5t11.5 -83.5t30.5 -59t44.5 -35t54.5 -11.5q41 0 71 20.5t50 53.5l68 -50q-9 -15 -24.5 -34.5t-39.5 -36.5t-56.5 -29t-73.5 -12q-47 0 -89 18t-73 53t-49 87t-18 120t18 119.5t50.5 86.5
t76 53t94.5 18q46 0 83 -14q6 63 42 84.5t94 21.5q22 0 40.5 -2t29.5 -4v-77q-8 2 -21 2.5t-22 0.5q-32 0 -50.5 -13t-18.5 -53v-120z" />
    <glyph glyph-name="uni018A" unicode="&#x18a;" horiz-adv-x="872" 
d="M451 692q75 0 140.5 -24t114 -68.5t76 -108t27.5 -143.5t-28 -144.5t-76.5 -109.5t-113.5 -69.5t-140 -24.5h-203v612h-71q-31 0 -51 -16t-20 -61v-128h-95v143q0 42 10.5 69.5t29 43.5t44.5 22.5t57 6.5h299zM351 94h101q53 0 99 17t80.5 49.5t54.5 79.5t20 107
q0 59 -19.5 105.5t-54 78.5t-81 49t-99.5 17h-101v-503z" />
    <glyph glyph-name="uni018E" unicode="&#x18e;" horiz-adv-x="574" 
d="M493 692v-692h-443v95h341v213h-248v92h248v197h-335v95h437z" />
    <glyph glyph-name="uni018F" unicode="&#x18f;" horiz-adv-x="729" 
d="M559 383q-5 59 -23 102.5t-45 71.5t-61.5 41.5t-72.5 13.5q-32 0 -58 -8.5t-48 -23.5t-40 -34.5t-33 -41.5l-75 55q15 25 38.5 50.5t56 46.5t74 34.5t92.5 13.5q63 0 118 -23t95 -68.5t63 -114t23 -158.5q0 -85 -21 -151t-59 -111t-92.5 -68t-120.5 -23q-67 0 -123 23.5
t-96.5 68.5t-63.5 111t-23 152q0 15 0.5 23t1.5 18h493zM370 81q81 0 131 56t58 160h-390q12 -106 66 -161t135 -55z" />
    <glyph glyph-name="florin" unicode="&#x192;" 
d="M276 399l27 176q6 36 19.5 60t32.5 38t43.5 19.5t53.5 5.5q27 0 45.5 -3.5t27.5 -6.5v-78q-9 3 -26.5 5.5t-32.5 2.5q-25 0 -43.5 -12t-23.5 -44l-25 -163h132v-78h-144l-58 -380q-8 -53 -26.5 -83t-46 -44.5t-65 -18t-82.5 -3.5v86q55 0 86.5 14.5t37.5 58.5l56 370
h-125v78h137z" />
    <glyph glyph-name="uni0194" unicode="&#x194;" horiz-adv-x="668" 
d="M126 692l207 -415l208 415h111l-267 -519q31 -64 50 -105.5t29 -69.5t13 -45t3 -32q0 -63 -37.5 -101.5t-109.5 -38.5t-109.5 38.5t-37.5 103.5q0 14 3 31t12.5 44.5t28.5 69t51 105.5l-266 519h111zM390 -93q0 12 -2 25.5t-8.5 32.5t-18 44.5t-29.5 62.5
q-18 -37 -29 -62.5t-17 -44.5t-8 -32t-2 -25q0 -31 12.5 -47t44.5 -16t44.5 16t12.5 46z" />
    <glyph glyph-name="uni0198" unicode="&#x198;" horiz-adv-x="677" 
d="M362 420l258 -420h-114l-208 341l-115 -141v-200h-102v692h102v-357l261 325q18 23 35 39t35 26.5t38 15t45 4.5q17 0 36 -2t30 -4v-77q-8 2 -21 2.5t-21 0.5q-35 0 -59.5 -14t-41.5 -35z" />
    <glyph glyph-name="uni0199" unicode="&#x199;" horiz-adv-x="546" 
d="M503 529l-183 -208l212 -321h-103l-168 253l-90 -102v-151h-95v614q0 39 10 64.5t27.5 40.5t42 20.5t54.5 5.5q25 0 43.5 -2t29.5 -4v-77q-8 2 -21 2.5t-26 0.5q-29 0 -47 -13.5t-18 -52.5v-332l229 262h103z" />
    <glyph glyph-name="uni019D" unicode="&#x19d;" horiz-adv-x="676" 
d="M177 692v-81q32 44 81.5 69t121.5 25q103 0 163 -57.5t60 -174.5v-473h-102v462q0 76 -39 111.5t-108 35.5q-60 0 -102 -27.5t-68 -87.5v-553q0 -53 -14.5 -83t-41.5 -44.5t-64 -18t-82 -3.5v86q56 0 77.5 14.5t21.5 58.5v741h96z" />
    <glyph glyph-name="uni01A0" unicode="&#x1a0;" horiz-adv-x="747" 
d="M362 705q26 0 49 -3.5t45 -9.5h104q23 0 39 2.5t26.5 11t15.5 23t5 38.5v68h95v-56q0 -53 -12 -83t-35 -45t-55.5 -19t-72.5 -4q47 -45 73 -116t26 -167q0 -88 -22.5 -155t-62 -112t-95 -68t-121.5 -23t-121.5 23t-95 68t-62 112t-22.5 155q0 89 22.5 156.5t62 112.5
t94.5 68t120 23zM363 610q-44 0 -80.5 -17t-62.5 -50t-40.5 -82.5t-14.5 -115.5q0 -65 14.5 -114.5t40.5 -82.5t62.5 -50t80.5 -17q45 0 82 17t63.5 50t41 82.5t14.5 114.5q0 66 -14.5 115.5t-41 82.5t-63.5 50t-82 17z" />
    <glyph glyph-name="uni01A1" unicode="&#x1a1;" horiz-adv-x="612" 
d="M605 680v-64q0 -50 -11 -79.5t-32 -45t-50.5 -20.5t-66.5 -5q28 -35 43.5 -85.5t15.5 -116.5q0 -68 -16.5 -119.5t-46.5 -86.5t-71 -53t-90 -18t-90 18t-70.5 53t-46 87t-16.5 120t16.5 119.5t46 86.5t70.5 53t89 18q23 0 42 -3.5t36 -9.5h68q45 0 65 13.5t20 61.5v76h95
zM281 454q-60 0 -96.5 -48t-36.5 -142t36 -141.5t96 -47.5t97 47.5t37 141.5t-37 142t-96 48z" />
    <glyph glyph-name="uni01AF" unicode="&#x1af;" horiz-adv-x="779" 
d="M175 692v-433q0 -42 12.5 -74t33.5 -53.5t50 -32.5t62 -11t62 11t50.5 32.5t34.5 53.5t13 74v433h99q23 0 39 2.5t26.5 11t15.5 23t5 38.5v68h95v-56q0 -51 -11.5 -80.5t-34 -45t-55.5 -20.5t-77 -5v-369q0 -66 -21 -116t-56.5 -83t-83 -49.5t-101.5 -16.5
q-53 0 -100.5 16.5t-83 49.5t-56.5 83t-21 116v433h103z" />
    <glyph glyph-name="uni01B0" unicode="&#x1b0;" horiz-adv-x="705" 
d="M518 529q23 0 39 2.5t26.5 11t15.5 23t5 38.5v76h95v-64q0 -51 -12 -81t-35.5 -45.5t-59 -19.5t-82.5 -4v-466h-90v66q-61 -79 -167 -79q-40 0 -73.5 11.5t-57.5 35t-37 60t-13 86.5v349h95v-333q0 -63 33 -91t84 -28q42 0 75 20t56 74v358h103z" />
    <glyph glyph-name="uni01B3" unicode="&#x1b3;" horiz-adv-x="722" 
d="M372 255v-255h-101v255l-261 437h118l194 -344l173 304q15 26 29.5 44t31 29t37.5 15.5t49 4.5q20 0 39 -2t30 -4v-77q-8 2 -21.5 2.5t-21.5 0.5q-34 0 -50.5 -12.5t-32.5 -38.5z" />
    <glyph glyph-name="uni01B4" unicode="&#x1b4;" horiz-adv-x="651" 
d="M233 -186h-96l80 199l-203 516h98l151 -402l162 402q23 57 57 81t91 24q18 0 37 -2t30 -4v-77q-8 2 -21 2.5t-24 0.5q-36 0 -54 -10.5t-30 -40.5z" />
    <glyph glyph-name="uni01C4" unicode="&#x1c4;" horiz-adv-x="1296" 
d="M81 0zM284 692q75 0 140.5 -24t114 -68.5t76 -108t27.5 -143.5t-28 -144.5t-76.5 -109.5t-113.5 -69.5t-140 -24.5h-203v692h203zM184 94h101q53 0 99 17t80.5 49.5t54.5 79.5t20 107q0 59 -19.5 105.5t-54 78.5t-81 49t-99.5 17h-101v-503zM1240 692v-98l-355 -499h355
v-95h-476v101l361 496h-346v95h461zM873 981l138 -150l138 150l44 -43l-152 -197h-61l-151 197z" />
    <glyph glyph-name="uni01C5" unicode="&#x1c5;" horiz-adv-x="1232" 
d="M81 0zM284 692q75 0 140.5 -24t114 -68.5t76 -108t27.5 -143.5t-28 -144.5t-76.5 -109.5t-113.5 -69.5t-140 -24.5h-203v692h203zM184 94h101q53 0 99 17t80.5 49.5t54.5 79.5t20 107q0 59 -19.5 105.5t-54 78.5t-81 49t-99.5 17h-101v-503zM1174 529v-80l-300 -371h305
v-78h-417v82l304 369h-291v78h399zM830 822l138 -150l138 150l44 -43l-152 -197h-61l-151 197z" />
    <glyph glyph-name="uni01C6" unicode="&#x1c6;" horiz-adv-x="1111" 
d="M58 0zM508 739v-739h-89v68q-26 -35 -66 -58t-95 -23t-93 24t-62 63t-34.5 89t-10.5 101t10.5 101t34.5 89.5t62 63.5t93 24q52 0 90.5 -21t64.5 -53v239zM282 75q47 0 78.5 23.5t52.5 61.5v209q-21 37 -52.5 61.5t-79.5 24.5q-38 0 -63 -16t-41 -42.5t-22.5 -61
t-6.5 -71.5t6.5 -71t22.5 -60.5t41.5 -42t63.5 -15.5zM1053 529v-80l-300 -371h305v-78h-417v82l304 369h-291v78h399zM709 822l138 -150l138 150l44 -43l-152 -197h-61l-151 197z" />
    <glyph glyph-name="uni01DD" unicode="&#x1dd;" horiz-adv-x="561" 
d="M415 297q-4 41 -17 71t-32.5 49.5t-44 29t-50.5 9.5q-39 0 -68.5 -18t-47.5 -44l-63 55q11 15 27.5 31.5t39 30t51.5 22.5t65 9q47 0 89 -17.5t73 -52.5t49 -87.5t18 -122.5q0 -66 -16.5 -117.5t-46 -86.5t-70.5 -53t-90 -18t-90 18t-71 53t-46.5 86.5t-16.5 117.5
q0 10 0.5 18.5t1.5 16.5h356zM280 73q55 0 91 39.5t44 113.5h-269q8 -76 44 -114.5t90 -38.5z" />
    <glyph glyph-name="uni01E6" unicode="&#x1e6;" horiz-adv-x="705" 
d="M63 0zM648 369v-81q0 -68 -18.5 -123t-53.5 -95t-86.5 -61.5t-117.5 -21.5q-67 0 -123.5 23t-98 68t-64.5 111.5t-23 154.5t23.5 155.5t64.5 113t98 69t124 23.5q95 0 157 -43t95 -110l-74 -56q-29 54 -71.5 84t-107.5 30q-93 0 -150 -67t-57 -198t57 -197.5t150 -66.5
q78 0 127 50t51 150h-157v88h255zM233 981l138 -150l138 150l44 -43l-152 -197h-61l-151 197z" />
    <glyph glyph-name="uni01E7" unicode="&#x1e7;" horiz-adv-x="584" 
d="M58 0zM508 529v-428q0 -72 -17 -124t-52 -88t-89.5 -59t-130.5 -38l-11 85q55 13 95 29.5t66 40.5t38 55.5t12 74.5v19q-26 -32 -66 -53t-94 -21q-55 0 -93.5 23t-62.5 59.5t-34.5 83t-10.5 94.5t10.5 94.5t34.5 83t62.5 59.5t93.5 23q54 0 94 -21.5t66 -53.5v62h89z
M282 105q51 0 83.5 24.5t53.5 62.5v178q-21 38 -53.5 62t-82.5 24q-38 0 -64 -14.5t-42 -39t-22.5 -56t-6.5 -65.5t6.5 -66t22.5 -56.5t41.5 -39t63.5 -14.5zM154 822l138 -150l138 150l44 -43l-152 -197h-61l-151 197z" />
    <glyph glyph-name="uni01F0" unicode="&#x1f0;" horiz-adv-x="331" 
d="M0 0zM27 822l138 -150l138 150l44 -43l-152 -197h-61l-151 197zM217 529v-588q0 -53 -13.5 -83t-38.5 -44.5t-61 -18t-81 -3.5v86q56 0 77.5 14.5t21.5 58.5v578h95z" />
    <glyph glyph-name="uni01F1" unicode="&#x1f1;" horiz-adv-x="1296" 
d="M81 0zM284 692q75 0 140.5 -24t114 -68.5t76 -108t27.5 -143.5t-28 -144.5t-76.5 -109.5t-113.5 -69.5t-140 -24.5h-203v692h203zM184 94h101q53 0 99 17t80.5 49.5t54.5 79.5t20 107q0 59 -19.5 105.5t-54 78.5t-81 49t-99.5 17h-101v-503zM1240 692v-98l-355 -499h355
v-95h-476v101l361 496h-346v95h461z" />
    <glyph glyph-name="uni01F2" unicode="&#x1f2;" horiz-adv-x="1232" 
d="M81 0zM284 692q75 0 140.5 -24t114 -68.5t76 -108t27.5 -143.5t-28 -144.5t-76.5 -109.5t-113.5 -69.5t-140 -24.5h-203v692h203zM184 94h101q53 0 99 17t80.5 49.5t54.5 79.5t20 107q0 59 -19.5 105.5t-54 78.5t-81 49t-99.5 17h-101v-503zM1174 529v-80l-300 -371h305
v-78h-417v82l304 369h-291v78h399z" />
    <glyph glyph-name="uni01F3" unicode="&#x1f3;" horiz-adv-x="1111" 
d="M58 0zM508 739v-739h-89v68q-26 -35 -66 -58t-95 -23t-93 24t-62 63t-34.5 89t-10.5 101t10.5 101t34.5 89.5t62 63.5t93 24q52 0 90.5 -21t64.5 -53v239zM282 75q47 0 78.5 23.5t52.5 61.5v209q-21 37 -52.5 61.5t-79.5 24.5q-38 0 -63 -16t-41 -42.5t-22.5 -61
t-6.5 -71.5t6.5 -71t22.5 -60.5t41.5 -42t63.5 -15.5zM1053 529v-80l-300 -371h305v-78h-417v82l304 369h-291v78h399z" />
    <glyph glyph-name="uni01F4" unicode="&#x1f4;" horiz-adv-x="705" 
d="M63 0zM648 369v-81q0 -68 -18.5 -123t-53.5 -95t-86.5 -61.5t-117.5 -21.5q-67 0 -123.5 23t-98 68t-64.5 111.5t-23 154.5t23.5 155.5t64.5 113t98 69t124 23.5q95 0 157 -43t95 -110l-74 -56q-29 54 -71.5 84t-107.5 30q-93 0 -150 -67t-57 -198t57 -197.5t150 -66.5
q78 0 127 50t51 150h-157v88h255zM491 936l-135 -204l-49 31l116 218z" />
    <glyph glyph-name="uni01F5" unicode="&#x1f5;" horiz-adv-x="584" 
d="M58 0zM508 529v-428q0 -72 -17 -124t-52 -88t-89.5 -59t-130.5 -38l-11 85q55 13 95 29.5t66 40.5t38 55.5t12 74.5v19q-26 -32 -66 -53t-94 -21q-55 0 -93.5 23t-62.5 59.5t-34.5 83t-10.5 94.5t10.5 94.5t34.5 83t62.5 59.5t93.5 23q54 0 94 -21.5t66 -53.5v62h89z
M282 105q51 0 83.5 24.5t53.5 62.5v178q-21 38 -53.5 62t-82.5 24q-38 0 -64 -14.5t-42 -39t-22.5 -56t-6.5 -65.5t6.5 -66t22.5 -56.5t41.5 -39t63.5 -14.5zM412 777l-135 -204l-49 31l116 218z" />
    <glyph glyph-name="uni01F8" unicode="&#x1f8;" horiz-adv-x="686" 
d="M81 0zM183 692l330 -510v510h102v-692h-95l-337 505v-505h-102v692h102zM291 981l116 -218l-48 -31l-136 204z" />
    <glyph glyph-name="uni01F9" unicode="&#x1f9;" horiz-adv-x="586" 
d="M76 0zM166 529v-65q60 78 167 78q40 0 73.5 -11.5t57.5 -36.5t37 -64.5t13 -94.5v-335h-95v325q0 69 -31.5 98t-84.5 29q-42 0 -76 -20t-56 -73v-359h-95v529h90zM240 822l116 -218l-48 -31l-136 204z" />
    <glyph glyph-name="Scommaaccent" unicode="&#x218;" horiz-adv-x="635" 
d="M31 0zM107 179q36 -43 90.5 -70t129.5 -27q78 0 125 31t47 89q0 39 -21 59t-54 32q-24 9 -52.5 15.5t-58 13t-59.5 14t-58 18.5q-55 22 -86.5 57.5t-31.5 95.5q0 42 16.5 77t48 60.5t78 40t105.5 14.5q50 0 90 -9.5t71.5 -25.5t55 -35.5t38.5 -39.5l-71 -63
q-30 34 -76 57.5t-112 23.5q-68 0 -107 -26t-39 -70q0 -33 20 -50.5t46 -28.5q24 -9 52.5 -15.5t58.5 -12.5t60.5 -13.5t59.5 -18.5q25 -10 47.5 -23.5t39.5 -34t27.5 -47.5t10.5 -64q0 -53 -21 -92.5t-58.5 -65.5t-88 -39.5t-109.5 -13.5q-104 0 -176.5 36t-113.5 89z
M359 -38l-56 -181l-53 13l33 187z" />
    <glyph glyph-name="scommaaccent" unicode="&#x219;" horiz-adv-x="476" 
d="M27 0zM404 390q-26 28 -68.5 47.5t-93.5 19.5t-75 -19t-24 -46q0 -20 12 -33t33 -22q18 -8 40.5 -14t46.5 -13t49 -15t47 -19q41 -20 60.5 -48.5t19.5 -74.5q0 -47 -18 -78.5t-48 -51t-68 -28t-77 -8.5q-36 0 -68.5 6t-59.5 16.5t-48.5 24t-36.5 28.5l37 80
q29 -27 75 -47t100 -20q51 0 84.5 20t33.5 58q0 22 -13.5 36t-43.5 26q-21 9 -45 16t-47.5 13.5t-45 13.5t-38.5 15q-34 17 -54.5 45t-20.5 72q0 36 15 64.5t41 48t62.5 29.5t78.5 10q68 0 117 -22t76 -48zM289 -38l-56 -181l-53 13l33 187z" />
    <glyph glyph-name="uni021A" unicode="&#x21a;" horiz-adv-x="571" 
d="M25 0zM545 692v-95h-208v-597h-102v597h-210v95h520zM322 -38l-56 -181l-53 13l33 187z" />
    <glyph glyph-name="uni021B" unicode="&#x21b;" horiz-adv-x="356" 
d="M22 0zM82 529v143l95 31v-174h135v-78h-135v-300q0 -64 62 -64q21 0 39.5 7.5t36.5 24.5l-16 -87q-14 -17 -41.5 -27t-56.5 -10q-49 0 -84 33.5t-35 101.5v321h-60v78h60zM221 -38l-56 -181l-53 13l33 187z" />
    <glyph glyph-name="dotlessj" unicode="&#x237;" horiz-adv-x="286" 
d="M209 529v-588q0 -53 -13.5 -83t-38.5 -44.5t-61 -18t-81 -3.5v86q56 0 77.5 14.5t21.5 58.5v578h95z" />
    <glyph glyph-name="uni0241" unicode="&#x241;" horiz-adv-x="478" 
d="M14 592q14 23 37 43.5t52.5 36t65 24.5t74.5 9q95 0 145 -50.5t50 -135.5q0 -38 -9.5 -67.5t-26.5 -53.5q-21 -30 -49.5 -56t-45.5 -46q-20 -23 -24 -39.5t-4 -28.5v-228h-95v228q0 27 7.5 50.5t28.5 49.5q20 25 46 47t47 47q17 20 26 40t9 46q0 51 -32.5 80t-89.5 29
q-52 0 -89.5 -22.5t-59.5 -60.5z" />
    <glyph glyph-name="uni0242" unicode="&#x242;" horiz-adv-x="478" 
d="M14 432q14 22 37 42t52.5 35t65 24t74.5 9q95 0 145 -49.5t50 -130.5q0 -38 -9.5 -66.5t-26.5 -51.5q-20 -28 -48.5 -53.5t-46.5 -45.5t-23 -36.5t-5 -29.5v-79h-95v79q0 30 8 53t28 46q21 24 47 45.5t46 44.5q17 20 26 39.5t9 43.5q0 48 -32.5 75.5t-89.5 27.5
q-51 0 -88.5 -21t-60.5 -58z" />
    <glyph glyph-name="uni024C" unicode="&#x24c;" horiz-adv-x="691" 
d="M118 354v338h283q52 0 95 -13.5t74 -40t47.5 -66.5t16.5 -93q0 -83 -39 -133t-106 -69l178 -277h-116l-166 266h-165v-266h-102v266h-118v88h118zM220 354h183q60 0 97 30t37 93t-37 92.5t-97 29.5h-183v-245z" />
    <glyph glyph-name="uni024D" unicode="&#x24d;" horiz-adv-x="447" 
d="M94 312v217h90v-64q57 77 152 77q35 0 57 -9.5t36 -22.5l-35 -84q-14 14 -33 20t-43 6q-41 0 -73.5 -19.5t-55.5 -75.5v-45h225v-67h-225v-245h-95v245h-94v67h94z" />
    <glyph glyph-name="uni0253" unicode="&#x253;" horiz-adv-x="584" 
d="M76 614q0 39 10 64.5t27.5 40.5t42 20.5t54.5 5.5q25 0 43.5 -2t29.5 -4v-77q-8 2 -21 2.5t-26 0.5q-29 0 -47 -13.5t-18 -52.5v-131q26 32 64 53t90 21q55 0 93.5 -24t62.5 -63.5t35 -89.5t11 -101t-11 -101t-35 -89t-62.5 -63t-93.5 -24q-54 0 -93.5 22.5t-65.5 57.5
v-67h-90v614zM303 455q-48 0 -80 -24.5t-52 -61.5v-208q20 -39 51.5 -62.5t79.5 -23.5q38 0 63.5 15.5t41.5 42t22.5 60.5t6.5 72q0 37 -6.5 71.5t-22.5 60.5t-41.5 42t-62.5 16z" />
    <glyph glyph-name="uni0257" unicode="&#x257;" horiz-adv-x="631" 
d="M620 662q-8 2 -21 2.5t-26 0.5q-29 0 -47 -13.5t-18 -52.5v-599h-89v68q-26 -35 -66 -58t-95 -23t-93 24t-62 63t-34.5 89t-10.5 101t10.5 101t34.5 89.5t62 63.5t93 24q52 0 90.5 -21t64.5 -53v146q0 39 10 64.5t27.5 40.5t42 20.5t54.5 5.5q25 0 43.5 -2t29.5 -4v-77z
M282 75q47 0 78.5 23.5t52.5 61.5v209q-21 37 -52.5 61.5t-79.5 24.5q-38 0 -63 -16t-41 -42.5t-22.5 -61t-6.5 -71.5t6.5 -71t22.5 -60.5t41.5 -42t63.5 -15.5z" />
    <glyph glyph-name="uni0263" unicode="&#x263;" horiz-adv-x="526" 
d="M113 529l148 -329l153 329h98l-208 -423q22 -51 36.5 -85t22 -58t10.5 -40t3 -29q0 -49 -29.5 -81t-85.5 -32t-85.5 31.5t-29.5 81.5q0 13 2.5 29t10 40t22 58.5t37.5 85.5l-204 422h99zM304 -113q0 8 -1.5 18.5t-6 26t-13 36.5t-22.5 50q-14 -29 -22.5 -50t-13 -36.5
t-6 -26t-1.5 -18.5q0 -26 9.5 -38.5t33.5 -12.5t33.5 12.5t9.5 38.5z" />
    <glyph glyph-name="uni0272" unicode="&#x272;" horiz-adv-x="586" 
d="M166 529v-65q60 78 167 78q40 0 73.5 -11.5t57.5 -36.5t37 -64.5t13 -94.5v-335h-95v325q0 69 -31.5 98t-84.5 29q-42 0 -76 -20t-56 -73v-418q0 -53 -13.5 -83t-38.5 -44.5t-61 -18t-81 -3.5v86q56 0 77.5 14.5t21.5 58.5v578h90z" />
    <glyph glyph-name="circumflex" unicode="&#x2c6;" horiz-adv-x="412" 
d="M244 822l151 -197l-43 -43l-139 150l-137 -150l-44 43l151 197h61z" />
    <glyph glyph-name="caron" unicode="&#x2c7;" horiz-adv-x="473" 
d="M99 822l138 -150l138 150l44 -43l-152 -197h-61l-151 197z" />
    <glyph glyph-name="breve" unicode="&#x2d8;" horiz-adv-x="412" 
d="M110 767v-20q0 -51 28 -76.5t67 -25.5t67.5 25.5t28.5 76.5v20h66v-20q0 -41 -13 -71.5t-35 -51t-51.5 -31t-62.5 -10.5t-62 10.5t-51 31t-35 51t-13 71.5v20h66z" />
    <glyph glyph-name="dotaccent" unicode="&#x2d9;" horiz-adv-x="196" 
d="M98 731q24 0 39.5 -15.5t15.5 -41.5q0 -25 -15.5 -41t-39.5 -16t-39 16t-15 41q0 26 15 41.5t39 15.5z" />
    <glyph glyph-name="ring" unicode="&#x2da;" horiz-adv-x="337" 
d="M168 818q26 0 49 -10.5t40 -28t27 -41t10 -49.5q0 -27 -10 -50.5t-27.5 -41t-40.5 -28t-48 -10.5q-26 0 -49 10.5t-40 28t-27 41t-10 50.5q0 26 10 49.5t27 41t40 28t49 10.5zM168 770q-33 0 -55.5 -24t-22.5 -58q0 -17 6 -32t16.5 -26t25 -17.5t30.5 -6.5t30.5 6.5
t25 17.5t16.5 26t6 32t-6 32t-16.5 26t-25 17.5t-30.5 6.5z" />
    <glyph glyph-name="ogonek" unicode="&#x2db;" horiz-adv-x="330" 
d="M279 0q-61 -12 -100.5 -32t-39.5 -57q0 -18 12 -32.5t49 -14.5q20 0 44 5t38 13l-6 -78q-14 -9 -44.5 -16t-65.5 -7q-37 0 -61 8.5t-37.5 22t-18.5 30t-5 31.5q0 28 13.5 49.5t36.5 37t53 25.5t64 15h68z" />
    <glyph glyph-name="tilde" unicode="&#x2dc;" horiz-adv-x="501" 
d="M44 677q19 37 47.5 58t66.5 21q29 0 52.5 -10t44.5 -22t41 -22t42 -10q26 0 43.5 16t29.5 46l45 -44q-20 -42 -49.5 -62t-64.5 -20q-29 0 -52.5 10t-44.5 22t-42 22t-43 10q-26 0 -42.5 -15.5t-28.5 -44.5z" />
    <glyph glyph-name="hungarumlaut" unicode="&#x2dd;" horiz-adv-x="487" 
d="M434 777l-135 -204l-49 31l116 218zM237 777l-135 -204l-49 31l116 218z" />
    <glyph glyph-name="gravecomb" unicode="&#x300;" horiz-adv-x="13" 
d="M-228 573zM-344 822l116 -218l-48 -31l-136 204z" />
    <glyph glyph-name="acutecomb" unicode="&#x301;" horiz-adv-x="13" 
d="M-169 573zM-169 777l-135 -204l-49 31l116 218z" />
    <glyph glyph-name="uni0302" unicode="&#x302;" horiz-adv-x="13" 
d="M-109 582zM-260 822l151 -197l-43 -43l-139 150l-137 -150l-44 43l151 197h61z" />
    <glyph glyph-name="tildecomb" unicode="&#x303;" horiz-adv-x="13" 
d="M-86 628zM-498 677q19 37 47.5 58t66.5 21q29 0 52.5 -10t44.5 -22t41 -22t42 -10q26 0 43.5 16t29.5 46l45 -44q-20 -42 -49.5 -62t-64.5 -20q-29 0 -52.5 10t-44.5 22t-42 22t-43 10q-26 0 -42.5 -15.5t-28.5 -44.5z" />
    <glyph glyph-name="uni0304" unicode="&#x304;" horiz-adv-x="13" 
d="M-88 657zM-88 724v-67h-414v67h414z" />
    <glyph glyph-name="uni0306" unicode="&#x306;" horiz-adv-x="13" 
d="M-132 583zM-389 767v-20q0 -51 28 -76.5t67 -25.5t67.5 25.5t28.5 76.5v20h66v-20q0 -41 -13 -71.5t-35 -51t-51.5 -31t-62.5 -10.5t-62 10.5t-51 31t-35 51t-13 71.5v20h66z" />
    <glyph glyph-name="uni0307" unicode="&#x307;" horiz-adv-x="13" 
d="M-241 617zM-296 731q24 0 39.5 -15.5t15.5 -41.5q0 -25 -15.5 -41t-39.5 -16t-39 16t-15 41q0 26 15 41.5t39 15.5z" />
    <glyph glyph-name="uni0308" unicode="&#x308;" horiz-adv-x="13" 
d="M-131 617zM-185 731q24 0 39 -15.5t15 -41.5q0 -25 -15 -41t-39 -16t-39.5 16t-15.5 41q0 26 15.5 41.5t39.5 15.5zM-403 731q24 0 39.5 -15.5t15.5 -41.5q0 -25 -15.5 -41t-39.5 -16t-39 16t-15 41q0 26 15 41.5t39 15.5z" />
    <glyph glyph-name="hookabovecomb" unicode="&#x309;" horiz-adv-x="13" 
d="M-412 760q17 26 47 44t78 18q58 0 89 -27.5t31 -76.5q0 -36 -15 -55t-37 -36q-12 -10 -20.5 -17t-13.5 -13.5t-7.5 -14.5t-2.5 -20h-53q1 32 14 51t33 36q17 15 29 27.5t12 34.5q0 53 -65 53q-27 0 -45 -10t-32 -32z" />
    <glyph glyph-name="uni030A" unicode="&#x30a;" horiz-adv-x="13" 
d="M-168 559zM-294 818q26 0 49 -10.5t40 -28t27 -41t10 -49.5q0 -27 -10 -50.5t-27.5 -41t-40.5 -28t-48 -10.5q-26 0 -49 10.5t-40 28t-27 41t-10 50.5q0 26 10 49.5t27 41t40 28t49 10.5zM-294 770q-33 0 -55.5 -24t-22.5 -58q0 -17 6 -32t16.5 -26t25 -17.5t30.5 -6.5
t30.5 6.5t25 17.5t16.5 26t6 32t-6 32t-16.5 26t-25 17.5t-30.5 6.5z" />
    <glyph glyph-name="uni030B" unicode="&#x30b;" horiz-adv-x="13" 
d="M-76 573zM-76 777l-135 -204l-49 31l116 218zM-273 777l-135 -204l-49 31l116 218z" />
    <glyph glyph-name="uni030C" unicode="&#x30c;" horiz-adv-x="13" 
d="M-108 582zM-428 822l138 -150l138 150l44 -43l-152 -197h-61l-151 197z" />
    <glyph glyph-name="uni0313" unicode="&#x313;" horiz-adv-x="13" 
d="M-192 607zM-192 828l-87 -221l-54 18l47 232z" />
    <glyph glyph-name="uni031B" unicode="&#x31b;" horiz-adv-x="158" 
d="M-30 529q23 0 39 2.5t26.5 11t15.5 23t5 38.5v76h95v-64q0 -53 -12.5 -83t-36 -45t-57 -18.5t-75.5 -3.5h-153v63h153z" />
    <glyph glyph-name="dotbelowcomb" unicode="&#x323;" horiz-adv-x="13" 
d="M-236 -86zM-291 -86q24 0 39.5 -15.5t15.5 -41.5q0 -25 -15.5 -41t-39.5 -16t-39 16t-15 41q0 26 15 41.5t39 15.5z" />
    <glyph glyph-name="uni0326" unicode="&#x326;" horiz-adv-x="13" 
d="M-250 -19zM-250 -38l-56 -181l-53 13l33 187z" />
    <glyph glyph-name="uni0328" unicode="&#x328;" horiz-adv-x="13" 
d="M-223 0zM-226 0q-61 -12 -100.5 -32t-39.5 -57q0 -18 12 -32.5t49 -14.5q20 0 44 5t38 13l-6 -78q-14 -9 -44.5 -16t-65.5 -7q-37 0 -61 8.5t-37.5 22t-18.5 30t-5 31.5q0 28 13.5 49.5t36.5 37t53 25.5t64 15h68z" />
    <glyph glyph-name="uni032D" unicode="&#x32d;" horiz-adv-x="0" 
d="M-327 -19h73l145 -156l-44 -44l-137 126l-138 -126l-44 44z" />
    <glyph glyph-name="tonos" unicode="&#x384;" horiz-adv-x="211" 
d="M167 796l-68 -229l-55 14l44 236z" />
    <glyph glyph-name="dieresistonos" unicode="&#x385;" horiz-adv-x="473" 
d="M44 567zM308 796l-68 -229l-55 14l44 236zM375 731q24 0 39.5 -15.5t15.5 -41.5q0 -25 -15.5 -41t-39.5 -16t-39 16t-15 41q0 26 15 41.5t39 15.5zM98 731q24 0 39.5 -15.5t15.5 -41.5q0 -25 -15.5 -41t-39.5 -16t-39 16t-15 41q0 26 15 41.5t39 15.5z" />
    <glyph glyph-name="Alphatonos" unicode="&#x386;" horiz-adv-x="728" 
d="M44 0zM447 692l266 -692h-108l-55 149h-313l-54 -149h-108l263 692h109zM270 240h246l-124 335zM167 796l-68 -229l-55 14l44 236z" />
    <glyph glyph-name="anoteleia" unicode="&#x387;" horiz-adv-x="188" 
d="M40 269zM94 383q24 0 39.5 -15.5t15.5 -41.5q0 -25 -15.5 -41t-39.5 -16q-23 0 -38.5 16t-15.5 41q0 26 15.5 41.5t38.5 15.5z" />
    <glyph glyph-name="Epsilontonos" unicode="&#x388;" horiz-adv-x="692" 
d="M44 0zM636 692v-95h-335v-197h249v-92h-249v-213h342v-95h-444v692h437zM167 796l-68 -229l-55 14l44 236z" />
    <glyph glyph-name="Etatonos" unicode="&#x389;" horiz-adv-x="801" 
d="M44 0zM301 692v-291h317v291h102v-692h-102v306h-317v-306h-102v692h102zM167 796l-68 -229l-55 14l44 236z" />
    <glyph glyph-name="Iotatonos" unicode="&#x38a;" horiz-adv-x="439" 
d="M44 0zM303 692v-692h-103v692h103zM167 796l-68 -229l-55 14l44 236z" />
    <glyph glyph-name="Omicrontonos" unicode="&#x38c;" horiz-adv-x="778" 
d="M44 0zM412 705q66 0 121.5 -23t95.5 -68.5t62.5 -113t22.5 -155.5t-22.5 -155t-62.5 -112t-95.5 -68t-121.5 -23t-121 23t-94.5 68t-62 112t-22.5 155t22.5 155.5t62 113t94.5 68.5t121 23zM412 610q-44 0 -80.5 -17t-62.5 -50t-40.5 -82.5t-14.5 -115.5
q0 -65 14.5 -114.5t40.5 -82.5t62.5 -50t80.5 -17q45 0 82 17t63.5 50t41 82.5t14.5 114.5q0 66 -14.5 115.5t-41 82.5t-63.5 50t-82 17zM167 796l-68 -229l-55 14l44 236z" />
    <glyph glyph-name="Upsilontonos" unicode="&#x38e;" horiz-adv-x="804" 
d="M44 0zM290 692l194 -344l196 344h114l-260 -437v-255h-101v255l-261 437h118zM167 796l-68 -229l-55 14l44 236z" />
    <glyph glyph-name="Omegatonos" unicode="&#x38f;" horiz-adv-x="773" 
d="M44 0zM285 95q-69 73 -108.5 149t-39.5 169q0 66 20 119.5t58.5 92t93 59.5t123.5 21t123.5 -21t93 -59.5t58.5 -92t20 -119.5q0 -92 -40 -168.5t-110 -149.5h156v-95h-251v84q32 37 58.5 73t46 74.5t30.5 80t11 89.5q0 45 -11 83.5t-34.5 66t-60.5 43.5t-90 16
t-90.5 -16t-61 -43.5t-34.5 -66t-11 -83.5q0 -48 11 -89.5t30.5 -80t46 -74.5t58.5 -73v-84h-251v95h155zM167 796l-68 -229l-55 14l44 236z" />
    <glyph glyph-name="iotadieresistonos" unicode="&#x390;" horiz-adv-x="378" 
d="M0 0zM212 529v-399q0 -34 16.5 -45.5t44.5 -11.5q8 0 21 1t23 3v-78q-11 -2 -29 -4.5t-41 -2.5q-29 0 -53 5.5t-41 19.5t-26.5 37.5t-9.5 60.5v414h95zM254 796l-68 -229l-55 14l44 236zM321 731q24 0 39.5 -15.5t15.5 -41.5q0 -25 -15.5 -41t-39.5 -16t-39 16t-15 41
q0 26 15 41.5t39 15.5zM44 731q24 0 39.5 -15.5t15.5 -41.5q0 -25 -15.5 -41t-39.5 -16t-39 16t-15 41q0 26 15 41.5t39 15.5z" />
    <glyph glyph-name="Alpha" unicode="&#x391;" horiz-adv-x="668" 
d="M15 0zM387 692l266 -692h-108l-55 149h-313l-54 -149h-108l263 692h109zM210 240h246l-124 335z" />
    <glyph glyph-name="Beta" unicode="&#x392;" horiz-adv-x="643" 
d="M81 0zM381 692q45 0 82.5 -11.5t64.5 -35t42 -58t15 -79.5q0 -108 -86 -148q50 -20 79.5 -60t29.5 -106q0 -93 -58.5 -143.5t-168.5 -50.5h-300v692h300zM181 92h199q66 0 99 27.5t33 80.5q0 57 -37 84t-106 27h-188v-219zM181 395h203q44 0 74.5 26t30.5 78
q0 51 -29.5 75.5t-75.5 24.5h-203v-204z" />
    <glyph glyph-name="Gamma" unicode="&#x393;" horiz-adv-x="562" 
d="M81 0zM537 692v-95h-354v-597h-102v692h456z" />
    <glyph glyph-name="Delta" unicode="&#x394;" horiz-adv-x="668" 
d="M387 692l266 -692h-638l263 692h109zM156 91h355l-179 484z" />
    <glyph glyph-name="Epsilon" unicode="&#x395;" horiz-adv-x="574" 
d="M81 0zM518 692v-95h-335v-197h249v-92h-249v-213h342v-95h-444v692h437z" />
    <glyph glyph-name="Zeta" unicode="&#x396;" horiz-adv-x="591" 
d="M59 0zM535 692v-98l-355 -499h355v-95h-476v101l361 496h-346v95h461z" />
    <glyph glyph-name="Eta" unicode="&#x397;" horiz-adv-x="683" 
d="M81 0zM183 692v-291h317v291h102v-692h-102v306h-317v-306h-102v692h102z" />
    <glyph glyph-name="Theta" unicode="&#x398;" horiz-adv-x="729" 
d="M530 400v-92h-331v92h331zM363 705q66 0 121.5 -23t95.5 -68.5t62.5 -113t22.5 -155.5t-22.5 -155t-62.5 -112t-95.5 -68t-121.5 -23t-121 23t-94.5 68t-62 112t-22.5 155t22.5 155.5t62 113t94.5 68.5t121 23zM363 610q-44 0 -80.5 -17t-62.5 -50t-40.5 -82.5
t-14.5 -115.5q0 -65 14.5 -114.5t40.5 -82.5t62.5 -50t80.5 -17q45 0 82 17t63.5 50t41 82.5t14.5 114.5q0 66 -14.5 115.5t-41 82.5t-63.5 50t-82 17z" />
    <glyph glyph-name="Iota" unicode="&#x399;" horiz-adv-x="265" 
d="M81 0zM184 692v-692h-103v692h103z" />
    <glyph glyph-name="Kappa" unicode="&#x39a;" horiz-adv-x="622" 
d="M81 0zM571 692l-281 -300l318 -392h-119l-306 375v-375h-102v692h102v-289l272 289h116z" />
    <glyph glyph-name="Lambda" unicode="&#x39b;" horiz-adv-x="668" 
d="M542 0l-210 569l-207 -569h-111l264 692h109l265 -692h-110z" />
    <glyph glyph-name="Mu" unicode="&#x39c;" horiz-adv-x="815" 
d="M81 0zM187 692l228 -513l228 513h101v-692h-102v453l-207 -453h-45l-207 456v-456h-102v692h106z" />
    <glyph glyph-name="Nu" unicode="&#x39d;" horiz-adv-x="686" 
d="M81 0zM183 692l330 -510v510h102v-692h-95l-337 505v-505h-102v692h102z" />
    <glyph glyph-name="Xi" unicode="&#x39e;" horiz-adv-x="574" 
d="M525 95v-95h-475v95h475zM518 692v-95h-462v95h462zM432 400v-92h-289v92h289z" />
    <glyph glyph-name="Omicron" unicode="&#x39f;" horiz-adv-x="729" 
d="M63 0zM363 705q66 0 121.5 -23t95.5 -68.5t62.5 -113t22.5 -155.5t-22.5 -155t-62.5 -112t-95.5 -68t-121.5 -23t-121 23t-94.5 68t-62 112t-22.5 155t22.5 155.5t62 113t94.5 68.5t121 23zM363 610q-44 0 -80.5 -17t-62.5 -50t-40.5 -82.5t-14.5 -115.5
q0 -65 14.5 -114.5t40.5 -82.5t62.5 -50t80.5 -17q45 0 82 17t63.5 50t41 82.5t14.5 114.5q0 66 -14.5 115.5t-41 82.5t-63.5 50t-82 17z" />
    <glyph glyph-name="Pi" unicode="&#x3a0;" horiz-adv-x="683" 
d="M81 0zM602 692v-692h-102v597h-317v-597h-102v692h521z" />
    <glyph glyph-name="Rho" unicode="&#x3a1;" horiz-adv-x="643" 
d="M81 0zM369 692q53 0 96 -14t74 -41t47.5 -67.5t16.5 -94.5t-16.5 -94.5t-47.5 -68t-74 -41t-96 -13.5h-186v-258h-102v692h288zM183 348h187q62 0 99.5 31t37.5 95q0 63 -37.5 94t-99.5 31h-187v-251z" />
    <glyph glyph-name="Sigma" unicode="&#x3a3;" horiz-adv-x="567" 
d="M511 692v-95h-334l180 -234v-36l-180 -232h340v-95h-452v98l190 247l-190 249v98h446z" />
    <glyph glyph-name="Tau" unicode="&#x3a4;" horiz-adv-x="571" 
d="M25 0zM545 692v-95h-208v-597h-102v597h-210v95h520z" />
    <glyph glyph-name="Upsilon" unicode="&#x3a5;" horiz-adv-x="642" 
d="M10 0zM128 692l194 -344l196 344h114l-260 -437v-255h-101v255l-261 437h118z" />
    <glyph glyph-name="Phi" unicode="&#x3a6;" horiz-adv-x="747" 
d="M53 0zM424 692v-93q270 -21 270 -254q0 -232 -270 -252v-93h-102v93q-136 10 -202.5 73.5t-66.5 178.5q0 233 269 254v93h102zM592 345q0 70 -40 110.5t-128 48.5v-318q88 8 128 48t40 111zM155 345q0 -71 39 -111t128 -48v319q-89 -9 -128 -49.5t-39 -110.5z" />
    <glyph glyph-name="Chi" unicode="&#x3a7;" horiz-adv-x="648" 
d="M15 0zM618 692l-231 -334l246 -358h-122l-191 284l-187 -284h-118l249 368l-229 324h117l177 -259l175 259h114z" />
    <glyph glyph-name="Psi" unicode="&#x3a8;" horiz-adv-x="772" 
d="M437 692v-384q97 9 135.5 51.5t38.5 117.5v215h102v-215q0 -123 -65.5 -188.5t-210.5 -75.5v-213h-102v213q-146 10 -211 75t-65 189v215h102v-215q0 -38 9 -67.5t29.5 -50.5t54 -34t81.5 -17v384h102z" />
    <glyph glyph-name="Omega" unicode="&#x3a9;" horiz-adv-x="683" 
d="M195 95q-69 73 -108.5 149t-39.5 169q0 66 20 119.5t58.5 92t93 59.5t123.5 21t123.5 -21t93 -59.5t58.5 -92t20 -119.5q0 -92 -40 -168.5t-110 -149.5h156v-95h-251v84q32 37 58.5 73t46 74.5t30.5 80t11 89.5q0 45 -11 83.5t-34.5 66t-60.5 43.5t-90 16t-90.5 -16
t-61 -43.5t-34.5 -66t-11 -83.5q0 -48 11 -89.5t30.5 -80t46 -74.5t58.5 -73v-84h-251v95h155z" />
    <glyph glyph-name="Iotadieresis" unicode="&#x3aa;" horiz-adv-x="303" 
d="M0 0zM203 692v-692h-103v692h103zM261 890q24 0 39 -15.5t15 -41.5q0 -25 -15 -41t-39 -16t-39.5 16t-15.5 41q0 26 15.5 41.5t39.5 15.5zM43 890q24 0 39.5 -15.5t15.5 -41.5q0 -25 -15.5 -41t-39.5 -16t-39 16t-15 41q0 26 15 41.5t39 15.5z" />
    <glyph glyph-name="Upsilondieresis" unicode="&#x3ab;" horiz-adv-x="642" 
d="M10 0zM128 692l194 -344l196 344h114l-260 -437v-255h-101v255l-261 437h118zM430 890q24 0 39 -15.5t15 -41.5q0 -25 -15 -41t-39 -16t-39.5 16t-15.5 41q0 26 15.5 41.5t39.5 15.5zM212 890q24 0 39.5 -15.5t15.5 -41.5q0 -25 -15.5 -41t-39.5 -16t-39 16t-15 41
q0 26 15 41.5t39 15.5z" />
    <glyph glyph-name="alphatonos" unicode="&#x3ac;" horiz-adv-x="669" 
d="M57 0zM638 453q-8 2 -17 2.5t-16 0.5q-32 0 -52 -15t-32.5 -41t-19.5 -60.5t-11 -74.5q9 -57 20 -94t24.5 -58.5t31 -30.5t39.5 -9q7 0 16 0.5t17 2.5v-78q-10 -2 -25.5 -4t-29.5 -2q-53 0 -82 31.5t-47 93.5q-24 -60 -66 -95t-112 -35q-49 0 -89 18t-69 53t-45 87
t-16 120q0 67 16 119t44.5 87t69 53t88.5 18q71 0 113 -35t66 -95q18 62 47 93.5t82 31.5q14 0 29.5 -2t25.5 -4v-78zM277 76q33 0 57 14.5t42 40t29.5 60t18.5 74.5q-7 40 -18.5 74.5t-29.5 60t-42 40t-57 14.5q-59 0 -93.5 -48.5t-34.5 -140.5q0 -93 34.5 -141t93.5 -48z
M382 796l-68 -229l-55 14l44 236z" />
    <glyph glyph-name="epsilontonos" unicode="&#x3ad;" horiz-adv-x="515" 
d="M54 0zM361 796l-68 -229l-55 14l44 236zM320 304v-69h-68q-54 0 -82 -13.5t-28 -56.5q0 -49 35 -70t90 -21q54 0 90 18.5t60 56.5l62 -50q-14 -23 -32.5 -43.5t-44 -35.5t-59.5 -24t-77 -9q-98 0 -155 45t-57 126q0 48 19.5 76t52.5 42q-26 18 -40 46.5t-14 66.5
q0 39 14.5 67.5t40.5 47.5t61 28.5t76 9.5q72 0 126.5 -27t88.5 -78l-63 -58q-25 35 -62 54.5t-89 19.5q-46 0 -75 -18t-29 -61q0 -70 90 -70h69z" />
    <glyph glyph-name="etatonos" unicode="&#x3ae;" horiz-adv-x="640" 
d="M25 0zM25 530q11 2 29 4.5t42 2.5q44 0 77.5 -14.5t45.5 -60.5q60 80 168 80q40 0 73.5 -11.5t57.5 -36.5t37 -64.5t13 -94.5v-511l-95 -32v533q0 69 -31.5 98t-84.5 29q-42 0 -76 -20t-56 -73v-359h-95v399q0 34 -16 45.5t-45 11.5q-8 0 -21 -0.5t-23 -2.5v77zM413 796
l-68 -229l-55 14l44 236z" />
    <glyph glyph-name="iotatonos" unicode="&#x3af;" horiz-adv-x="296" 
d="M76 0zM171 529v-399q0 -34 16.5 -45.5t44.5 -11.5q8 0 21 1t23 3v-78q-11 -2 -29 -4.5t-41 -2.5q-29 0 -53 5.5t-41 19.5t-26.5 37.5t-9.5 60.5v414h95zM223 796l-68 -229l-55 14l44 236z" />
    <glyph glyph-name="upsilondieresistonos" unicode="&#x3b0;" horiz-adv-x="605" 
d="M25 0zM366 796l-68 -229l-55 14l44 236zM25 531q10 2 27.5 4t37.5 2q55 0 86 -22.5t31 -87.5q0 -45 -10.5 -93t-10.5 -100q0 -76 33.5 -117.5t99.5 -41.5q69 0 104 48.5t35 153.5q0 41 -5 80t-14 72t-20.5 59t-23.5 41h98q23 -36 39 -103t16 -147q0 -77 -16.5 -132.5
t-46.5 -91t-73 -52t-97 -16.5q-57 0 -99.5 17.5t-70 49.5t-41 75.5t-13.5 96.5q0 28 3.5 55t7 50.5t7 43.5t3.5 35q0 24 -10.5 35t-36.5 11q-10 0 -22 -1t-18 -2v78zM434 731q24 0 39.5 -15.5t15.5 -41.5q0 -25 -15.5 -41t-39.5 -16t-39 16t-15 41q0 26 15 41.5t39 15.5z
M157 731q24 0 39.5 -15.5t15.5 -41.5q0 -25 -15.5 -41t-39.5 -16t-39 16t-15 41q0 26 15 41.5t39 15.5z" />
    <glyph glyph-name="alpha" unicode="&#x3b1;" horiz-adv-x="669" 
d="M638 453q-8 2 -17 2.5t-16 0.5q-32 0 -52 -15t-32.5 -41t-19.5 -60.5t-11 -74.5q9 -57 20 -94t24.5 -58.5t31 -30.5t39.5 -9q7 0 16 0.5t17 2.5v-78q-10 -2 -25.5 -4t-29.5 -2q-53 0 -82 31.5t-47 93.5q-24 -60 -66 -95t-112 -35q-49 0 -89 18t-69 53t-45 87t-16 120
q0 67 16 119t44.5 87t69 53t88.5 18q71 0 113 -35t66 -95q18 62 47 93.5t82 31.5q14 0 29.5 -2t25.5 -4v-78zM277 76q33 0 57 14.5t42 40t29.5 60t18.5 74.5q-7 40 -18.5 74.5t-29.5 60t-42 40t-57 14.5q-59 0 -93.5 -48.5t-34.5 -140.5q0 -93 34.5 -141t93.5 -48z" />
    <glyph glyph-name="beta" unicode="&#x3b2;" horiz-adv-x="592" 
d="M167 0h-95v533q0 52 14.5 91.5t40 66t61 40t76.5 13.5q42 0 76.5 -13.5t59.5 -39t39 -62t14 -83.5q0 -90 -52 -139q63 -15 98.5 -62.5t35.5 -129.5q0 -104 -56 -164t-156 -60q-37 0 -68.5 7.5t-51.5 18.5l17 82q19 -11 43 -17.5t51 -6.5q63 0 97 35t34 104t-36.5 101
t-121.5 32h-46v77h24q45 0 73.5 30t28.5 87t-28.5 86t-71.5 29q-42 0 -71 -29t-29 -88v-539z" />
    <glyph glyph-name="gamma" unicode="&#x3b3;" horiz-adv-x="532" 
d="M110 529l147 -437q54 100 96 207t63 230h96q-32 -160 -89.5 -290.5t-127.5 -238.5v-176l-95 -32v208l-186 529h96z" />
    <glyph glyph-name="delta" unicode="&#x3b4;" horiz-adv-x="561" 
d="M57 244q0 44 9 79.5t24.5 64t36 50t44.5 38.5q-30 19 -47.5 46t-17.5 65q0 63 49 102.5t137 39.5q57 0 105 -16t77 -39l-32 -78q-27 22 -69.5 36t-87.5 14q-51 0 -71 -18t-20 -44q0 -23 14 -36.5t42 -26.5q20 -9 39 -16t38 -14.5t39 -17t42 -25.5q45 -32 70.5 -75.5
t25.5 -117.5q0 -60 -17 -109.5t-47 -85t-71.5 -54.5t-90.5 -19q-48 0 -88.5 18t-70 51.5t-46 81t-16.5 106.5zM342 396q-24 15 -50.5 25t-53.5 21q-37 -26 -63.5 -74t-26.5 -119q0 -83 37 -128.5t94 -45.5q60 0 97.5 50t37.5 134q0 46 -15 78.5t-57 58.5z" />
    <glyph glyph-name="epsilon" unicode="&#x3b5;" horiz-adv-x="515" 
d="M320 304v-69h-68q-54 0 -82 -13.5t-28 -56.5q0 -49 35 -70t90 -21q54 0 90 18.5t60 56.5l62 -50q-14 -23 -32.5 -43.5t-44 -35.5t-59.5 -24t-77 -9q-98 0 -155 45t-57 126q0 48 19.5 76t52.5 42q-26 18 -40 46.5t-14 66.5q0 39 14.5 67.5t40.5 47.5t61 28.5t76 9.5
q72 0 126.5 -27t88.5 -78l-63 -58q-25 35 -62 54.5t-89 19.5q-46 0 -75 -18t-29 -61q0 -70 90 -70h69z" />
    <glyph glyph-name="zeta" unicode="&#x3b6;" horiz-adv-x="505" 
d="M456 739v-80l-154 -146q-43 -41 -72.5 -73.5t-48 -62t-26.5 -57.5t-8 -59q0 -45 14.5 -74t37.5 -47q17 -13 39.5 -23t46.5 -18.5t48.5 -17t45.5 -17.5q37 -17 59.5 -42t22.5 -70q0 -35 -14.5 -66.5t-41.5 -59.5l-108 -34q32 36 53 70.5t21 68.5q0 21 -10 35t-34 26
q-20 10 -43.5 17.5t-48 16.5t-50 20.5t-49.5 30.5q-36 28 -59 70t-23 110q0 41 10 77t31.5 70.5t55.5 71t82 79.5l120 106h-278v78h381z" />
    <glyph glyph-name="eta" unicode="&#x3b7;" horiz-adv-x="640" 
d="M25 530q11 2 29 4.5t42 2.5q44 0 77.5 -14.5t45.5 -60.5q60 80 168 80q40 0 73.5 -11.5t57.5 -36.5t37 -64.5t13 -94.5v-511l-95 -32v533q0 69 -31.5 98t-84.5 29q-42 0 -76 -20t-56 -73v-359h-95v399q0 34 -16 45.5t-45 11.5q-8 0 -21 -0.5t-23 -2.5v77z" />
    <glyph glyph-name="theta" unicode="&#x3b8;" horiz-adv-x="570" 
d="M285 722q49 0 90 -20t71 -63.5t46.5 -114t16.5 -170.5t-16.5 -170t-46.5 -113.5t-71 -63.5t-90 -20t-90 20t-70.5 63.5t-46 113.5t-16.5 170t16.5 170.5t46 114t70.5 63.5t90 20zM285 634q-29 0 -52.5 -12t-40.5 -40.5t-27 -75.5t-12 -116h265q-2 69 -12 116t-27.5 75.5
t-41 40.5t-52.5 12zM285 75q28 0 51.5 11.5t41 39t27.5 73t13 113.5h-264q2 -68 12 -113.5t27 -73t40 -39t52 -11.5z" />
    <glyph glyph-name="iota" unicode="&#x3b9;" horiz-adv-x="296" 
d="M171 529v-399q0 -34 16.5 -45.5t44.5 -11.5q8 0 21 1t23 3v-78q-11 -2 -29 -4.5t-41 -2.5q-29 0 -53 5.5t-41 19.5t-26.5 37.5t-9.5 60.5v414h95z" />
    <glyph glyph-name="kappa" unicode="&#x3ba;" horiz-adv-x="514" 
d="M75 0zM472 529l-207 -229l236 -300h-105l-226 284v-284h-95v529h95v-219l200 219h102z" />
    <glyph glyph-name="lambda" unicode="&#x3bb;" horiz-adv-x="534" 
d="M78 712q17 5 34 7.5t32 2.5q43 0 73.5 -20t50.5 -69l252 -633h-95l-159 397l-154 -397h-98l209 505l-33 82q-12 30 -27.5 43t-39.5 13q-11 0 -22.5 -2t-22.5 -7v78z" />
    <glyph glyph-name="mu" unicode="&#x3bc;" horiz-adv-x="620" 
d="M510 529v-399q0 -35 17 -46t44 -11q8 0 21 1t23 3v-78q-11 -2 -28.5 -4.5t-41.5 -2.5q-49 0 -81.5 15.5t-43.5 59.5q-59 -80 -168 -80q-57 0 -98 22l14 -185l-96 -32v737h95v-333q0 -63 33 -91t84 -28q42 0 75 20t56 74v358h95z" />
    <glyph glyph-name="nu" unicode="&#x3bd;" horiz-adv-x="532" 
d="M110 529l147 -437q54 100 96 207t63 230h96q-32 -160 -90 -290.5t-128 -238.5h-93l-187 529h96z" />
    <glyph glyph-name="xi" unicode="&#x3be;" horiz-adv-x="497" 
d="M447 739v-80q-76 -33 -127 -60t-81.5 -51.5t-43.5 -47.5t-13 -48q0 -35 21 -53.5t62 -18.5h87v-69h-106q-50 0 -77.5 -23.5t-27.5 -71.5q0 -35 15 -53t39 -32q20 -11 43.5 -20t47 -16.5t45.5 -15t40 -15.5q38 -17 60 -42.5t22 -69.5q0 -35 -15 -66.5t-42 -59.5l-107 -34
q32 36 52.5 70.5t20.5 67.5q0 25 -11.5 38t-31.5 24q-20 10 -44.5 19t-50 18.5t-51 20t-46.5 24.5q-73 47 -73 131q0 51 24 87t67 56q-50 31 -50 98q0 66 51.5 116t157.5 99h-237v78h380z" />
    <glyph glyph-name="omicron" unicode="&#x3bf;" horiz-adv-x="561" 
d="M57 0zM281 542q48 0 89 -18t71 -53t46.5 -86.5t16.5 -119.5t-16.5 -120t-46 -87t-70.5 -53t-90 -18q-50 0 -91 18t-70.5 53t-46 87t-16.5 120t16.5 119.5t46.5 86.5t71 53t90 18zM281 454q-60 0 -96.5 -48t-36.5 -142t36.5 -141.5t96.5 -47.5q59 0 96 47.5t37 141.5
t-37 142t-96 48z" />
    <glyph glyph-name="pi" unicode="&#x3c0;" horiz-adv-x="628" 
d="M596 529v-78h-105v-321q0 -33 16 -45t41 -12q13 0 25.5 1t22.5 3v-78q-10 -2 -28 -4.5t-45 -2.5q-28 0 -51 5.5t-40 19.5t-26.5 37.5t-9.5 60.5v336h-185v-451h-95v451h-94v78h574z" />
    <glyph glyph-name="rho" unicode="&#x3c1;" horiz-adv-x="580" 
d="M315 -13q-51 0 -87 20.5t-61 52.5v-236l-95 -32v483q0 64 16.5 114t46.5 84t72 51.5t93 17.5q50 0 91 -17.5t70.5 -52.5t45.5 -87t16 -121q0 -74 -17.5 -126.5t-46.5 -86t-66.5 -49t-77.5 -15.5zM167 161q23 -41 54 -63.5t74 -22.5q28 0 52.5 10.5t43.5 33.5t30 59.5
t11 88.5q0 94 -36 141t-99 47q-60 0 -95 -41.5t-35 -126.5v-126z" />
    <glyph glyph-name="sigma1" unicode="&#x3c2;" horiz-adv-x="508" 
d="M414 376q-17 38 -47.5 58t-71.5 20q-30 0 -56.5 -11t-46 -34t-31 -58t-11.5 -83q0 -52 13.5 -81t36.5 -47q17 -14 39.5 -24t47 -18.5t49 -16.5t45.5 -17q38 -17 59.5 -42t21.5 -70q0 -70 -56 -126l-107 -34q31 35 52 69.5t21 69.5q0 25 -11.5 37.5t-31.5 23.5
q-20 10 -43 17.5t-47.5 16.5t-50 20.5t-50.5 30.5q-18 14 -33 31t-25.5 39.5t-16.5 51.5t-6 67q0 69 18 120.5t50 86t75.5 52t94.5 17.5q73 0 120.5 -31t67.5 -79z" />
    <glyph glyph-name="sigma" unicode="&#x3c3;" horiz-adv-x="579" 
d="M554 529v-78h-118q28 -31 48 -77t20 -119q0 -63 -16.5 -112.5t-46.5 -84t-71.5 -53t-90.5 -18.5q-48 0 -89 18t-70.5 53t-46 87t-16.5 120t16.5 117.5t46.5 82t71 48.5t90 16h273zM414 259q0 66 -20 113.5t-48 78.5h-57q-63 0 -102 -46.5t-39 -141.5q0 -92 36.5 -140
t95.5 -48q60 0 97 48t37 136z" />
    <glyph glyph-name="tau" unicode="&#x3c4;" horiz-adv-x="476" 
d="M452 529v-78h-170v-321q0 -35 17.5 -46t44.5 -11q8 0 20.5 1t22.5 3v-78q-10 -2 -28 -4.5t-41 -2.5q-30 0 -54 5.5t-41 19.5t-26.5 37.5t-9.5 60.5v336h-162v78h427z" />
    <glyph glyph-name="upsilon" unicode="&#x3c5;" horiz-adv-x="605" 
d="M25 531q10 2 27.5 4t37.5 2q55 0 86 -22.5t31 -87.5q0 -45 -10.5 -93t-10.5 -100q0 -76 33.5 -117.5t99.5 -41.5q69 0 104 48.5t35 153.5q0 41 -5 80t-14 72t-20.5 59t-23.5 41h98q23 -36 39 -103t16 -147q0 -77 -16.5 -132.5t-46.5 -91t-73 -52t-97 -16.5
q-57 0 -99.5 17.5t-70 49.5t-41 75.5t-13.5 96.5q0 28 3.5 55t7 50.5t7 43.5t3.5 35q0 24 -10.5 35t-36.5 11q-10 0 -22 -1t-18 -2v78z" />
    <glyph glyph-name="phi" unicode="&#x3c6;" horiz-adv-x="768" 
d="M57 0zM431 739v-199q137 -10 208 -79.5t71 -195.5q0 -127 -71 -196.5t-208 -79.5v-165l-95 -32v197q-137 10 -208 79.5t-71 196.5q0 126 71 195t208 80v167zM620 264q0 85 -43.5 132t-145.5 56v-375q101 8 145 55.5t44 131.5zM148 264q0 -84 43.5 -131.5t144.5 -55.5v375
q-101 -9 -144.5 -56.5t-43.5 -131.5z" />
    <glyph glyph-name="chi" unicode="&#x3c7;" horiz-adv-x="519" 
d="M505 529l-200 -358l89 -248q11 -29 25 -42.5t37 -13.5q22 0 40 9v-78q-15 -5 -31 -7.5t-30 -2.5q-41 0 -71 19.5t-48 69.5l-69 191l-154 -276h-96l213 379l-82 229q-11 30 -25.5 42.5t-37.5 12.5q-9 0 -19.5 -1.5t-20.5 -6.5v78q16 5 32 7.5t30 2.5q39 0 70 -19t49 -70
l62 -173l144 256h93z" />
    <glyph glyph-name="psi" unicode="&#x3c8;" horiz-adv-x="757" 
d="M424 680v-604q53 3 88.5 17.5t57 42.5t30.5 70t9 101q0 63 -8 119t-19 103h94q10 -41 16.5 -95t6.5 -121q0 -81 -12.5 -140.5t-44 -99t-84.5 -60.5t-134 -25v-164l-95 -32v196q-80 4 -132.5 25t-83.5 61t-43.5 99t-12.5 140q0 67 6.5 121t16.5 95h94q-11 -47 -19 -103
t-8 -121q0 -58 8.5 -99.5t29.5 -69t56 -42t88 -18.5v571z" />
    <glyph glyph-name="omega" unicode="&#x3c9;" horiz-adv-x="833" 
d="M217 529q-29 -39 -49.5 -106.5t-20.5 -155.5q0 -192 115 -192q51 0 81 40t30 128v163h86v-163q0 -88 30.5 -128t81.5 -40q115 0 115 192q0 87 -21 155.5t-50 106.5h99q25 -40 43 -104.5t18 -156.5q0 -75 -14 -128t-39.5 -87t-62 -50t-82.5 -16q-60 0 -99.5 25t-61.5 71
q-22 -46 -61.5 -71t-99.5 -25q-46 0 -82.5 16t-62 50t-39.5 87.5t-14 127.5q0 91 18 155.5t44 105.5h98z" />
    <glyph glyph-name="iotadieresis" unicode="&#x3ca;" horiz-adv-x="358" 
d="M2 0zM206 529v-399q0 -34 16.5 -45.5t44.5 -11.5q8 0 21 1t23 3v-78q-11 -2 -29 -4.5t-41 -2.5q-29 0 -53 5.5t-41 19.5t-26.5 37.5t-9.5 60.5v414h95zM274 731q24 0 39 -15.5t15 -41.5q0 -25 -15 -41t-39 -16t-39.5 16t-15.5 41q0 26 15.5 41.5t39.5 15.5zM56 731
q24 0 39.5 -15.5t15.5 -41.5q0 -25 -15.5 -41t-39.5 -16t-39 16t-15 41q0 26 15 41.5t39 15.5z" />
    <glyph glyph-name="upsilondieresis" unicode="&#x3cb;" horiz-adv-x="605" 
d="M25 0zM25 531q10 2 27.5 4t37.5 2q55 0 86 -22.5t31 -87.5q0 -45 -10.5 -93t-10.5 -100q0 -76 33.5 -117.5t99.5 -41.5q69 0 104 48.5t35 153.5q0 41 -5 80t-14 72t-20.5 59t-23.5 41h98q23 -36 39 -103t16 -147q0 -77 -16.5 -132.5t-46.5 -91t-73 -52t-97 -16.5
q-57 0 -99.5 17.5t-70 49.5t-41 75.5t-13.5 96.5q0 28 3.5 55t7 50.5t7 43.5t3.5 35q0 24 -10.5 35t-36.5 11q-10 0 -22 -1t-18 -2v78zM410 731q24 0 39 -15.5t15 -41.5q0 -25 -15 -41t-39 -16t-39.5 16t-15.5 41q0 26 15.5 41.5t39.5 15.5zM192 731q24 0 39.5 -15.5
t15.5 -41.5q0 -25 -15.5 -41t-39.5 -16t-39 16t-15 41q0 26 15 41.5t39 15.5z" />
    <glyph glyph-name="omicrontonos" unicode="&#x3cc;" horiz-adv-x="561" 
d="M57 0zM281 542q48 0 89 -18t71 -53t46.5 -86.5t16.5 -119.5t-16.5 -120t-46 -87t-70.5 -53t-90 -18q-50 0 -91 18t-70.5 53t-46 87t-16.5 120t16.5 119.5t46.5 86.5t71 53t90 18zM281 454q-60 0 -96.5 -48t-36.5 -142t36.5 -141.5t96.5 -47.5q59 0 96 47.5t37 141.5
t-37 142t-96 48zM360 796l-68 -229l-55 14l44 236z" />
    <glyph glyph-name="upsilontonos" unicode="&#x3cd;" horiz-adv-x="605" 
d="M25 0zM370 796l-68 -229l-55 14l44 236zM25 531q10 2 27.5 4t37.5 2q55 0 86 -22.5t31 -87.5q0 -45 -10.5 -93t-10.5 -100q0 -76 33.5 -117.5t99.5 -41.5q69 0 104 48.5t35 153.5q0 41 -5 80t-14 72t-20.5 59t-23.5 41h98q23 -36 39 -103t16 -147q0 -77 -16.5 -132.5
t-46.5 -91t-73 -52t-97 -16.5q-57 0 -99.5 17.5t-70 49.5t-41 75.5t-13.5 96.5q0 28 3.5 55t7 50.5t7 43.5t3.5 35q0 24 -10.5 35t-36.5 11q-10 0 -22 -1t-18 -2v78z" />
    <glyph glyph-name="omegatonos" unicode="&#x3ce;" horiz-adv-x="833" 
d="M57 0zM217 529q-29 -39 -49.5 -106.5t-20.5 -155.5q0 -192 115 -192q51 0 81 40t30 128v163h86v-163q0 -88 30.5 -128t81.5 -40q115 0 115 192q0 87 -21 155.5t-50 106.5h99q25 -40 43 -104.5t18 -156.5q0 -75 -14 -128t-39.5 -87t-62 -50t-82.5 -16q-60 0 -99.5 25
t-61.5 71q-22 -46 -61.5 -71t-99.5 -25q-46 0 -82.5 16t-62 50t-39.5 87.5t-14 127.5q0 91 18 155.5t44 105.5h98zM494 796l-68 -229l-55 14l44 236z" />
    <glyph glyph-name="uni0400" unicode="&#x400;" horiz-adv-x="574" 
d="M81 0zM518 692v-95h-335v-197h249v-92h-249v-213h342v-95h-444v692h437zM253 981l116 -218l-48 -31l-136 204z" />
    <glyph glyph-name="uni0401" unicode="&#x401;" horiz-adv-x="574" 
d="M81 0zM518 692v-95h-335v-197h249v-92h-249v-213h342v-95h-444v692h437zM410 890q24 0 39 -15.5t15 -41.5q0 -25 -15 -41t-39 -16t-39.5 16t-15.5 41q0 26 15.5 41.5t39.5 15.5zM192 890q24 0 39.5 -15.5t15.5 -41.5q0 -25 -15.5 -41t-39.5 -16t-39 16t-15 41
q0 26 15 41.5t39 15.5z" />
    <glyph glyph-name="uni0402" unicode="&#x402;" horiz-adv-x="795" 
d="M531 692v-95h-200v-214q26 24 64.5 40t94.5 16q106 0 167.5 -66t61.5 -199v-159q0 -77 -21.5 -121.5t-57 -67t-81.5 -28.5t-94 -6h-57v86h57q33 0 61.5 4.5t49 19.5t32.5 44t12 77v151q0 85 -36.5 128t-111.5 43q-81 0 -141 -54v-291h-102v597h-204v95h506z" />
    <glyph glyph-name="uni0403" unicode="&#x403;" horiz-adv-x="562" 
d="M81 0zM430 936l-135 -204l-49 31l116 218zM537 692v-95h-354v-597h-102v692h456z" />
    <glyph glyph-name="uni0404" unicode="&#x404;" horiz-adv-x="673" 
d="M551 496q-30 54 -72 84t-106 30q-86 0 -140.5 -54.5t-65.5 -163.5h256v-92h-256q10 -110 65 -164.5t140 -54.5q57 0 98.5 25t76.5 81l76 -55q-87 -145 -252 -145q-66 0 -122.5 23t-97.5 68t-64.5 112t-23.5 156q0 88 23.5 155t64.5 112.5t98 68.5t124 23q95 0 157 -43
t95 -110z" />
    <glyph glyph-name="uni0405" unicode="&#x405;" horiz-adv-x="635" 
d="M31 0zM107 179q36 -43 90.5 -70t129.5 -27q78 0 125 31t47 89q0 39 -21 59t-54 32q-24 9 -52.5 15.5t-58 13t-59.5 14t-58 18.5q-55 22 -86.5 57.5t-31.5 95.5q0 42 16.5 77t48 60.5t78 40t105.5 14.5q50 0 90 -9.5t71.5 -25.5t55 -35.5t38.5 -39.5l-71 -63
q-30 34 -76 57.5t-112 23.5q-68 0 -107 -26t-39 -70q0 -33 20 -50.5t46 -28.5q24 -9 52.5 -15.5t58.5 -12.5t60.5 -13.5t59.5 -18.5q25 -10 47.5 -23.5t39.5 -34t27.5 -47.5t10.5 -64q0 -53 -21 -92.5t-58.5 -65.5t-88 -39.5t-109.5 -13.5q-104 0 -176.5 36t-113.5 89z" />
    <glyph glyph-name="uni0406" unicode="&#x406;" horiz-adv-x="265" 
d="M81 0zM184 692v-692h-103v692h103z" />
    <glyph glyph-name="uni0407" unicode="&#x407;" horiz-adv-x="303" 
d="M0 0zM203 692v-692h-103v692h103zM261 890q24 0 39 -15.5t15 -41.5q0 -25 -15 -41t-39 -16t-39.5 16t-15.5 41q0 26 15.5 41.5t39.5 15.5zM43 890q24 0 39.5 -15.5t15.5 -41.5q0 -25 -15.5 -41t-39.5 -16t-39 16t-15 41q0 26 15 41.5t39 15.5z" />
    <glyph glyph-name="uni0408" unicode="&#x408;" horiz-adv-x="576" 
d="M14 0zM504 692v-433q0 -57 -18.5 -105.5t-52 -84t-81 -55.5t-105.5 -20q-38 0 -73.5 10t-66.5 29t-55 47t-38 64l77 57q23 -57 65.5 -85t92.5 -28q69 0 111 45t42 126v433h102z" />
    <glyph glyph-name="uni0409" unicode="&#x409;" horiz-adv-x="1058" 
d="M597 692v-258h186q53 0 96 -13.5t74 -41t47.5 -68t16.5 -94.5t-16.5 -94.5t-47.5 -67.5t-74 -41t-96 -14h-288v597h-127q-5 -57 -13 -118t-18.5 -120.5t-24.5 -112.5t-31 -93q-32 -75 -83.5 -114t-124.5 -39h-48v95h48q84 0 131 109q18 43 31.5 101.5t23.5 124t17 133.5
t13 129h308zM597 93h187q62 0 99.5 31t37.5 94q0 64 -37.5 95t-99.5 31h-187v-251z" />
    <glyph glyph-name="uni040A" unicode="&#x40a;" horiz-adv-x="1053" 
d="M183 692v-258h317v258h102v-258h186q53 0 96 -13.5t74 -41t47.5 -68t16.5 -94.5t-16.5 -94.5t-47.5 -67.5t-74 -41t-96 -14h-288v339h-317v-339h-102v692h102zM602 93h187q62 0 99.5 31t37.5 94q0 64 -37.5 95t-99.5 31h-187v-251z" />
    <glyph glyph-name="uni040B" unicode="&#x40b;" horiz-adv-x="795" 
d="M531 692v-95h-200v-216q26 25 64.5 41.5t98.5 16.5q51 0 92.5 -16.5t71 -49.5t45.5 -83t16 -116v-174h-102v174q0 84 -35.5 127.5t-101.5 43.5q-48 0 -84 -14.5t-65 -41.5v-289h-102v597h-204v95h506z" />
    <glyph glyph-name="uni040C" unicode="&#x40c;" horiz-adv-x="622" 
d="M81 0zM435 936l-135 -204l-49 31l116 218zM571 692l-281 -300l318 -392h-119l-306 375v-375h-102v692h102v-289l272 289h116z" />
    <glyph glyph-name="uni040D" unicode="&#x40d;" horiz-adv-x="683" 
d="M81 0zM289 981l116 -218l-48 -31l-136 204zM183 692v-527l317 527h102v-692h-102v521l-317 -521h-102v692h102z" />
    <glyph glyph-name="uni040E" unicode="&#x40e;" horiz-adv-x="630" 
d="M10 0zM219 926v-20q0 -51 28 -76.5t67 -25.5t67.5 25.5t28.5 76.5v20h66v-20q0 -41 -13 -71.5t-35 -51t-51.5 -31t-62.5 -10.5t-62 10.5t-51 31t-35 51t-13 71.5v20h66zM122 692l189 -407l198 407h111l-285 -572q-18 -36 -35 -59.5t-38 -37t-47.5 -18.5t-62.5 -5h-57v95
h63q16 0 28.5 2t23.5 9t21 20.5t22 37.5l5 12l-248 516h112z" />
    <glyph glyph-name="uni040F" unicode="&#x40f;" horiz-adv-x="683" 
d="M183 692v-597h317v597h102v-692h-214v-176l-95 -32v208h-212v692h102z" />
    <glyph glyph-name="uni0410" unicode="&#x410;" horiz-adv-x="668" 
d="M15 0zM387 692l266 -692h-108l-55 149h-313l-54 -149h-108l263 692h109zM210 240h246l-124 335z" />
    <glyph glyph-name="uni0411" unicode="&#x411;" horiz-adv-x="643" 
d="M533 692v-95h-350v-163h186q53 0 96 -13.5t74 -41t47.5 -68t16.5 -94.5t-16.5 -94.5t-47.5 -67.5t-74 -41t-96 -14h-288v692h452zM183 93h187q62 0 99.5 31t37.5 94q0 64 -37.5 95t-99.5 31h-187v-251z" />
    <glyph glyph-name="uni0412" unicode="&#x412;" horiz-adv-x="643" 
d="M81 0zM381 692q45 0 82.5 -11.5t64.5 -35t42 -58t15 -79.5q0 -108 -86 -148q50 -20 79.5 -60t29.5 -106q0 -93 -58.5 -143.5t-168.5 -50.5h-300v692h300zM181 92h199q66 0 99 27.5t33 80.5q0 57 -37 84t-106 27h-188v-219zM181 395h203q44 0 74.5 26t30.5 78
q0 51 -29.5 75.5t-75.5 24.5h-203v-204z" />
    <glyph glyph-name="uni0413" unicode="&#x413;" horiz-adv-x="562" 
d="M537 692v-95h-354v-597h-102v692h456z" />
    <glyph glyph-name="uni0414" unicode="&#x414;" horiz-adv-x="748" 
d="M604 692v-597h119v-271l-95 -32v208h-508v-176l-95 -32v303h59q41 0 72.5 28t54.5 81q18 43 31.5 101.5t23.5 124t17 133.5t13 129h308zM375 597q-8 -90 -17.5 -165t-23 -136.5t-32.5 -111t-46 -89.5h246v502h-127z" />
    <glyph glyph-name="uni0415" unicode="&#x415;" horiz-adv-x="574" 
d="M81 0zM518 692v-95h-335v-197h249v-92h-249v-213h342v-95h-444v692h437z" />
    <glyph glyph-name="uni0416" unicode="&#x416;" horiz-adv-x="979" 
d="M928 692l-281 -300l318 -392h-119l-305 374v-374h-103v374l-305 -374h-119l316 392l-279 300h117l270 -288v288h103v-288l271 288h116z" />
    <glyph glyph-name="uni0417" unicode="&#x417;" horiz-adv-x="622" 
d="M58 565q46 64 110.5 102t153.5 38q48 0 92 -12t77 -36t53 -61t20 -88q0 -50 -19.5 -87t-52.5 -60q42 -19 68.5 -55t26.5 -99q0 -51 -18.5 -92t-53.5 -69.5t-85 -43.5t-112 -15q-54 0 -95.5 10.5t-74.5 28.5t-58 42t-45 50l73 62q29 -44 76 -71.5t122 -27.5
q80 0 127.5 33.5t47.5 99.5q0 56 -38.5 76.5t-113.5 20.5h-81v84h83q57 0 91.5 27t34.5 78q0 29 -11.5 50t-31.5 34.5t-46.5 19.5t-56.5 6q-64 0 -109 -27t-79 -74z" />
    <glyph glyph-name="uni0418" unicode="&#x418;" horiz-adv-x="683" 
d="M183 692v-527l317 527h102v-692h-102v521l-317 -521h-102v692h102z" />
    <glyph glyph-name="uni0419" unicode="&#x419;" horiz-adv-x="683" 
d="M81 0zM245 926v-20q0 -51 28 -76.5t67 -25.5t67.5 25.5t28.5 76.5v20h66v-20q0 -41 -13 -71.5t-35 -51t-51.5 -31t-62.5 -10.5t-62 10.5t-51 31t-35 51t-13 71.5v20h66zM183 692v-527l317 527h102v-692h-102v521l-317 -521h-102v692h102z" />
    <glyph glyph-name="uni041A" unicode="&#x41a;" horiz-adv-x="622" 
d="M571 692l-281 -300l318 -392h-119l-306 375v-375h-102v692h102v-289l272 289h116z" />
    <glyph glyph-name="uni041B" unicode="&#x41b;" horiz-adv-x="679" 
d="M597 692v-692h-102v597h-127q-5 -57 -13 -118t-18.5 -120.5t-24.5 -112.5t-31 -93q-32 -75 -83.5 -114t-124.5 -39h-48v95h48q84 0 131 109q18 43 31.5 101.5t23.5 124t17 133.5t13 129h308z" />
    <glyph glyph-name="uni041C" unicode="&#x41c;" horiz-adv-x="815" 
d="M81 0zM187 692l228 -513l228 513h101v-692h-102v453l-207 -453h-45l-207 456v-456h-102v692h106z" />
    <glyph glyph-name="uni041D" unicode="&#x41d;" horiz-adv-x="683" 
d="M81 0zM183 692v-291h317v291h102v-692h-102v306h-317v-306h-102v692h102z" />
    <glyph glyph-name="uni041E" unicode="&#x41e;" horiz-adv-x="729" 
d="M63 0zM363 705q66 0 121.5 -23t95.5 -68.5t62.5 -113t22.5 -155.5t-22.5 -155t-62.5 -112t-95.5 -68t-121.5 -23t-121 23t-94.5 68t-62 112t-22.5 155t22.5 155.5t62 113t94.5 68.5t121 23zM363 610q-44 0 -80.5 -17t-62.5 -50t-40.5 -82.5t-14.5 -115.5
q0 -65 14.5 -114.5t40.5 -82.5t62.5 -50t80.5 -17q45 0 82 17t63.5 50t41 82.5t14.5 114.5q0 66 -14.5 115.5t-41 82.5t-63.5 50t-82 17z" />
    <glyph glyph-name="uni041F" unicode="&#x41f;" horiz-adv-x="683" 
d="M602 692v-692h-102v597h-317v-597h-102v692h521z" />
    <glyph glyph-name="uni0420" unicode="&#x420;" horiz-adv-x="643" 
d="M81 0zM369 692q53 0 96 -14t74 -41t47.5 -67.5t16.5 -94.5t-16.5 -94.5t-47.5 -68t-74 -41t-96 -13.5h-186v-258h-102v692h288zM183 348h187q62 0 99.5 31t37.5 95q0 63 -37.5 94t-99.5 31h-187v-251z" />
    <glyph glyph-name="uni0421" unicode="&#x421;" horiz-adv-x="673" 
d="M63 0zM551 496q-30 54 -72 84t-106 30q-94 0 -151 -66.5t-57 -198.5q0 -131 57 -197.5t151 -66.5q57 0 98 25t76 81l76 -55q-87 -145 -252 -145q-66 0 -122.5 23t-97.5 68t-64.5 112t-23.5 156q0 88 23.5 155t64.5 112.5t98 68.5t124 23q95 0 157 -43t95 -110z" />
    <glyph glyph-name="uni0422" unicode="&#x422;" horiz-adv-x="571" 
d="M25 0zM545 692v-95h-208v-597h-102v597h-210v95h520z" />
    <glyph glyph-name="uni0423" unicode="&#x423;" horiz-adv-x="630" 
d="M122 692l189 -407l198 407h111l-285 -572q-18 -36 -35 -59.5t-38 -37t-47.5 -18.5t-62.5 -5h-57v95h63q16 0 28.5 2t23.5 9t21 20.5t22 37.5l5 12l-248 516h112z" />
    <glyph glyph-name="uni0424" unicode="&#x424;" horiz-adv-x="747" 
d="M424 692v-93q270 -21 270 -254q0 -232 -270 -252v-93h-102v93q-136 10 -202.5 73.5t-66.5 178.5q0 233 269 254v93h102zM592 345q0 70 -40 110.5t-128 48.5v-318q88 8 128 48t40 111zM155 345q0 -71 39 -111t128 -48v319q-89 -9 -128 -49.5t-39 -110.5z" />
    <glyph glyph-name="uni0425" unicode="&#x425;" horiz-adv-x="648" 
d="M15 0zM618 692l-231 -334l246 -358h-122l-191 284l-187 -284h-118l249 368l-229 324h117l177 -259l175 259h114z" />
    <glyph glyph-name="uni0426" unicode="&#x426;" horiz-adv-x="745" 
d="M183 692v-597h317v597h102v-597h119v-271l-95 -32v208h-545v692h102z" />
    <glyph glyph-name="uni0427" unicode="&#x427;" horiz-adv-x="676" 
d="M594 692v-692h-102v304q-29 -24 -72 -42t-106 -18q-54 0 -98 16t-75 48.5t-48 82t-17 115.5v186h103v-186q0 -88 39.5 -128.5t115.5 -40.5q89 0 158 52v303h102z" />
    <glyph glyph-name="uni0428" unicode="&#x428;" horiz-adv-x="934" 
d="M184 692v-597h233v597h102v-597h231v597h103v-692h-772v692h103z" />
    <glyph glyph-name="uni0429" unicode="&#x429;" horiz-adv-x="997" 
d="M184 692v-597h233v597h102v-597h231v597h103v-597h119v-271l-95 -32v208h-796v692h103z" />
    <glyph glyph-name="uni042A" unicode="&#x42a;" horiz-adv-x="782" 
d="M322 692v-258h186q53 0 96 -13.5t74 -41t47.5 -68t16.5 -94.5t-16.5 -94.5t-47.5 -67.5t-74 -41t-96 -14h-288v597h-195v95h297zM322 93h187q62 0 99.5 31t37.5 94q0 64 -37.5 95t-99.5 31h-187v-251z" />
    <glyph glyph-name="uni042B" unicode="&#x42b;" horiz-adv-x="871" 
d="M83 0zM790 692v-692h-103v692h103zM185 692v-258h186q53 0 96 -13.5t74 -41t47.5 -68t16.5 -94.5t-16.5 -94.5t-47.5 -67.5t-74 -41t-96 -14h-288v692h102zM185 93h187q62 0 99.5 31t37.5 94q0 64 -37.5 95t-99.5 31h-187v-251z" />
    <glyph glyph-name="uni042C" unicode="&#x42c;" horiz-adv-x="643" 
d="M183 692v-258h186q53 0 96 -13.5t74 -41t47.5 -68t16.5 -94.5t-16.5 -94.5t-47.5 -67.5t-74 -41t-96 -14h-288v692h102zM183 93h187q62 0 99.5 31t37.5 94q0 64 -37.5 95t-99.5 31h-187v-251z" />
    <glyph glyph-name="uni042D" unicode="&#x42d;" horiz-adv-x="673" 
d="M122 196q30 -54 72 -84t106 -30q86 0 140.5 54.5t65.5 163.5h-256v92h256q-10 110 -65 164.5t-140 54.5q-57 0 -98.5 -25t-76.5 -81l-76 55q87 145 252 145q66 0 122.5 -23t97.5 -68t64.5 -112.5t23.5 -155.5t-23.5 -155t-64.5 -112.5t-98 -68.5t-124 -23q-95 0 -157 43
t-95 110z" />
    <glyph glyph-name="uni042E" unicode="&#x42e;" horiz-adv-x="955" 
d="M590 705q66 0 121.5 -23t95.5 -68.5t62.5 -113t22.5 -155.5t-22.5 -155t-62.5 -112t-95.5 -68t-121.5 -23q-62 0 -115 20.5t-92.5 61t-63.5 100.5t-28 139h-107v-308h-103v692h103v-292h108q7 75 31.5 132t63.5 95.5t91 58t112 19.5zM590 610q-44 0 -80.5 -17t-62.5 -50
t-40.5 -82.5t-14.5 -115.5q0 -65 14.5 -114.5t40.5 -82.5t62.5 -50t80.5 -17q45 0 82 17t63.5 50t41 82.5t14.5 114.5q0 66 -14.5 115.5t-41 82.5t-63.5 50t-82 17z" />
    <glyph glyph-name="uni042F" unicode="&#x42f;" horiz-adv-x="653" 
d="M572 692v-692h-102v266h-165l-165 -266h-117l178 277q-67 19 -106 69t-39 133q0 53 17 93t47.5 66.5t73.5 40t95 13.5h283zM287 599q-60 0 -97 -29.5t-37 -92.5t37 -93t97 -30h183v245h-183z" />
    <glyph glyph-name="uni0430" unicode="&#x430;" horiz-adv-x="559" 
d="M53 0zM93 486q29 22 76 39t113 17q45 0 82.5 -10.5t65 -34.5t42.5 -63.5t15 -97.5v-336h-88v38q-68 -45 -156 -45q-40 0 -74.5 10t-60 31t-40.5 53t-15 76q0 43 15 76.5t42 55.5t64 33.5t81 11.5q35 0 71 -7t68 -21v18q0 35 -8.5 58.5t-24.5 37.5t-39 20t-51 6
q-42 0 -76.5 -11t-63.5 -31zM264 72q32 0 66.5 8t63.5 23v147q-27 10 -57.5 15t-58.5 5q-57 0 -96 -24.5t-39 -77.5q0 -26 9.5 -44t26 -29.5t38.5 -17t47 -5.5z" />
    <glyph glyph-name="uni0431" unicode="&#x431;" horiz-adv-x="570" 
d="M358 739q31 0 45.5 11t24.5 39l83 -24q-6 -23 -16 -44t-26 -36.5t-39.5 -24.5t-54.5 -9h-113q-99 0 -99 -112v-100q26 35 63 55.5t92 20.5q94 0 144.5 -64t50.5 -188q0 -71 -16.5 -123t-46 -86t-70.5 -50.5t-90 -16.5q-100 0 -159 66.5t-59 197.5v298q0 92 47.5 141
t135.5 49h103zM297 434q-42 0 -75 -20.5t-59 -58.5v-104q0 -83 31.5 -129.5t94.5 -46.5q60 0 97 45t37 140q0 88 -33 131t-93 43z" />
    <glyph glyph-name="uni0432" unicode="&#x432;" horiz-adv-x="549" 
d="M308 529q75 0 121.5 -35.5t46.5 -105.5q0 -78 -64 -110q38 -16 61 -47t23 -82q0 -71 -45.5 -110t-130.5 -39h-244v529h232zM171 75h143q90 0 90 80q0 83 -98 83h-135v-163zM171 306h138q33 0 54.5 18t21.5 57q0 38 -21 55.5t-55 17.5h-138v-148z" />
    <glyph glyph-name="uni0433" unicode="&#x433;" horiz-adv-x="434" 
d="M408 529v-78h-237v-451h-95v529h332z" />
    <glyph glyph-name="uni0434" unicode="&#x434;" horiz-adv-x="694" 
d="M548 529v-451h120v-254l-95 -32v208h-453v-176l-95 -32v286h44q78 0 120 82q16 32 28.5 76.5t21.5 94t15.5 101t11.5 97.5h282zM338 450q-6 -66 -14 -120t-20 -98.5t-28.5 -82t-40.5 -71.5h218v372h-115z" />
    <glyph glyph-name="uni0435" unicode="&#x435;" horiz-adv-x="561" 
d="M57 0zM146 232q4 -41 17 -71t32.5 -49.5t44 -29t50.5 -9.5q39 0 68.5 18t47.5 44l63 -55q-11 -15 -27.5 -31.5t-39 -30t-51.5 -22.5t-65 -9q-47 0 -89 17.5t-73 52.5t-49 87.5t-18 122.5q0 66 16.5 117.5t46 86.5t70.5 53t90 18t90 -18t71 -53t46.5 -86.5t16.5 -117.5
q0 -10 -0.5 -18.5t-1.5 -16.5h-356zM281 456q-55 0 -91 -39.5t-44 -113.5h269q-8 76 -44 114.5t-90 38.5z" />
    <glyph glyph-name="uni0436" unicode="&#x436;" horiz-adv-x="784" 
d="M742 529l-207 -229l236 -300h-105l-226 284v-284h-96v283l-226 -283h-104l234 300l-206 229h102l200 -218v218h96v-219l200 219h102z" />
    <glyph glyph-name="uni0437" unicode="&#x437;" horiz-adv-x="515" 
d="M35 437q35 51 89 78t125 27q41 0 76.5 -9.5t61.5 -28.5t41 -47.5t15 -67.5q0 -38 -14 -66.5t-40 -46.5q32 -14 52 -42.5t20 -75.5q0 -81 -57.5 -126t-155.5 -45q-43 0 -76.5 9t-59 24t-44.5 35.5t-33 43.5l63 50q46 -75 149 -75q56 0 90.5 21t34.5 70q0 43 -28 56.5
t-81 13.5h-69v69h69q91 0 91 71q0 42 -30 60t-75 18q-51 0 -88 -19.5t-62 -54.5z" />
    <glyph glyph-name="uni0438" unicode="&#x438;" horiz-adv-x="604" 
d="M171 529v-389l263 389h95v-529h-95v386l-263 -386h-95v529h95z" />
    <glyph glyph-name="uni0439" unicode="&#x439;" horiz-adv-x="604" 
d="M76 0zM206 767v-20q0 -51 28 -76.5t67 -25.5t67.5 25.5t28.5 76.5v20h66v-20q0 -41 -13 -71.5t-35 -51t-51.5 -31t-62.5 -10.5t-62 10.5t-51 31t-35 51t-13 71.5v20h66zM171 529v-389l263 389h95v-529h-95v386l-263 -386h-95v529h95z" />
    <glyph glyph-name="uni043A" unicode="&#x43a;" horiz-adv-x="514" 
d="M472 529l-207 -229l236 -300h-105l-226 284v-284h-95v529h95v-219l200 219h102z" />
    <glyph glyph-name="uni043B" unicode="&#x43b;" horiz-adv-x="624" 
d="M548 529v-529h-95v450h-115q-5 -43 -12 -89t-16.5 -90.5t-22 -84t-27.5 -69.5q-29 -56 -76 -86.5t-115 -30.5h-44v78h44q78 0 120 82q16 32 28.5 76.5t21.5 94t15.5 101t11.5 97.5h282z" />
    <glyph glyph-name="uni043C" unicode="&#x43c;" horiz-adv-x="745" 
d="M171 529l204 -388l204 388h90v-529h-92v343l-184 -343h-40l-186 349v-349h-91v529h95z" />
    <glyph glyph-name="uni043D" unicode="&#x43d;" horiz-adv-x="590" 
d="M171 529v-218h248v218h95v-529h-95v233h-248v-233h-95v529h95z" />
    <glyph glyph-name="uni043E" unicode="&#x43e;" horiz-adv-x="561" 
d="M57 0zM281 542q48 0 89 -18t71 -53t46.5 -86.5t16.5 -119.5t-16.5 -120t-46 -87t-70.5 -53t-90 -18q-50 0 -91 18t-70.5 53t-46 87t-16.5 120t16.5 119.5t46.5 86.5t71 53t90 18zM281 454q-60 0 -96.5 -48t-36.5 -142t36.5 -141.5t96.5 -47.5q59 0 96 47.5t37 141.5
t-37 142t-96 48z" />
    <glyph glyph-name="uni043F" unicode="&#x43f;" horiz-adv-x="590" 
d="M514 529v-529h-95v450h-248v-450h-95v529h438z" />
    <glyph glyph-name="uni0440" unicode="&#x440;" horiz-adv-x="584" 
d="M76 0zM166 529v-67q26 35 65.5 57.5t93.5 22.5q55 0 93.5 -24t62.5 -63t35 -89t11 -101t-11 -101t-35 -89.5t-62.5 -63.5t-93.5 -24q-52 0 -90 21t-64 53v-237l-95 -32v737h90zM302 455q-48 0 -79.5 -24.5t-51.5 -62.5v-208q20 -37 52 -61t80 -24q37 0 62.5 15.5t41.5 42
t22.5 60.5t6.5 72q0 37 -6.5 71.5t-22.5 61t-41.5 42t-63.5 15.5z" />
    <glyph glyph-name="uni0441" unicode="&#x441;" horiz-adv-x="508" 
d="M57 0zM414 376q-17 38 -47.5 58t-70.5 20q-30 0 -57 -12t-46.5 -35.5t-31 -59t-11.5 -83.5t11.5 -83.5t30.5 -59t44.5 -35t54.5 -11.5q41 0 71 20.5t50 53.5l68 -50q-9 -15 -24.5 -34.5t-39.5 -36.5t-56.5 -29t-73.5 -12q-47 0 -89 18t-73 53t-49 87t-18 120t18 119.5
t50.5 86.5t76 53t94.5 18q72 0 119.5 -31t67.5 -79z" />
    <glyph glyph-name="uni0442" unicode="&#x442;" horiz-adv-x="476" 
d="M452 529v-78h-166v-451h-95v451h-166v78h427z" />
    <glyph glyph-name="uni0443" unicode="&#x443;" horiz-adv-x="534" 
d="M14 0zM112 529l151 -402l162 402h96l-288 -715h-96l80 199l-203 516h98z" />
    <glyph glyph-name="uni0444" unicode="&#x444;" horiz-adv-x="768" 
d="M431 739v-199q137 -10 208 -79.5t71 -195.5q0 -127 -71 -196.5t-208 -79.5v-165l-95 -32v197q-137 10 -208 79.5t-71 196.5q0 126 71 195t208 80v167zM620 264q0 85 -43.5 132t-145.5 56v-375q101 8 145 55.5t44 131.5zM148 264q0 -84 43.5 -131.5t144.5 -55.5v375
q-101 -9 -144.5 -56.5t-43.5 -131.5z" />
    <glyph glyph-name="uni0445" unicode="&#x445;" horiz-adv-x="552" 
d="M14 0zM512 529l-179 -244l205 -285h-107l-156 222l-155 -222h-106l206 291l-172 238h103l129 -180l128 180h104z" />
    <glyph glyph-name="uni0446" unicode="&#x446;" horiz-adv-x="658" 
d="M171 529v-451h248v451h95v-451h118v-254l-95 -32v208h-461v529h95z" />
    <glyph glyph-name="uni0447" unicode="&#x447;" horiz-adv-x="595" 
d="M519 529v-529h-95v222q-33 -27 -78.5 -46t-100.5 -19q-79 0 -127 44.5t-48 137.5v190h95v-174q0 -57 28.5 -83t79.5 -26q35 0 74 12.5t77 38.5v232h95z" />
    <glyph glyph-name="uni0448" unicode="&#x448;" horiz-adv-x="864" 
d="M171 529v-451h215v451h95v-451h212v451h95v-529h-712v529h95z" />
    <glyph glyph-name="uni0449" unicode="&#x449;" horiz-adv-x="932" 
d="M171 529v-451h215v451h95v-451h212v451h95v-451h118v-254l-95 -32v208h-735v529h95z" />
    <glyph glyph-name="uni044A" unicode="&#x44a;" horiz-adv-x="647" 
d="M280 529v-190h126q91 0 145.5 -42t54.5 -127t-54.5 -127.5t-145.5 -42.5h-221v451h-160v78h255zM280 78h126q50 0 80 23t30 70q0 48 -30 70t-80 22h-126v-185z" />
    <glyph glyph-name="uni044B" unicode="&#x44b;" horiz-adv-x="742" 
d="M76 0zM171 78h126q50 0 80 23t30 70q0 48 -30 70t-80 22h-126v-185zM171 529v-190h126q91 0 145.5 -42t54.5 -127t-54.5 -127.5t-145.5 -42.5h-221v529h95zM666 529v-529h-95v529h95z" />
    <glyph glyph-name="uni044C" unicode="&#x44c;" horiz-adv-x="538" 
d="M171 78h126q50 0 80 23t30 70q0 48 -30 70t-80 22h-126v-185zM171 529v-190h126q91 0 145.5 -42t54.5 -127t-54.5 -127.5t-145.5 -42.5h-221v529h95z" />
    <glyph glyph-name="uni044D" unicode="&#x44d;" horiz-adv-x="508" 
d="M94 153q17 -38 47.5 -58t71.5 -20q54 0 94 37.5t49 114.5h-174v75h174q-9 77 -48.5 114.5t-90.5 37.5q-41 0 -71 -20.5t-50 -53.5l-68 50q9 15 24.5 34.5t39.5 36.5t56.5 29t73.5 12q47 0 89 -18t73 -53t49 -87t18 -120t-18 -119.5t-50.5 -86.5t-76 -53t-94.5 -18
q-72 0 -119.5 31t-67.5 79z" />
    <glyph glyph-name="uni044E" unicode="&#x44e;" horiz-adv-x="772" 
d="M171 529v-223h97q10 116 71 176t152 60q48 0 89 -18t71 -53t46.5 -86.5t16.5 -119.5t-16.5 -120t-46 -87t-70.5 -53t-90 -18q-46 0 -85 15.5t-68 46t-47.5 75.5t-22.5 104h-97v-228h-95v529h95zM491 454q-60 0 -96.5 -48t-36.5 -142t36.5 -141.5t96.5 -47.5q59 0 96 47.5
t37 141.5t-37 142t-96 48z" />
    <glyph glyph-name="uni044F" unicode="&#x44f;" horiz-adv-x="553" 
d="M477 529v-529h-95v203h-146l-116 -203h-100l128 216q-45 17 -71 53.5t-26 95.5q0 82 49.5 123t130.5 41h246zM239 454q-42 0 -68.5 -22t-26.5 -68q0 -47 26.5 -68.5t68.5 -21.5h143v180h-143z" />
    <glyph glyph-name="uni0450" unicode="&#x450;" horiz-adv-x="561" 
d="M57 0zM146 232q4 -41 17 -71t32.5 -49.5t44 -29t50.5 -9.5q39 0 68.5 18t47.5 44l63 -55q-11 -15 -27.5 -31.5t-39 -30t-51.5 -22.5t-65 -9q-47 0 -89 17.5t-73 52.5t-49 87.5t-18 122.5q0 66 16.5 117.5t46 86.5t70.5 53t90 18t90 -18t71 -53t46.5 -86.5t16.5 -117.5
q0 -10 -0.5 -18.5t-1.5 -16.5h-356zM281 456q-55 0 -91 -39.5t-44 -113.5h269q-8 76 -44 114.5t-90 38.5zM228 822l116 -218l-48 -31l-136 204z" />
    <glyph glyph-name="uni0451" unicode="&#x451;" horiz-adv-x="561" 
d="M57 0zM146 232q4 -41 17 -71t32.5 -49.5t44 -29t50.5 -9.5q39 0 68.5 18t47.5 44l63 -55q-11 -15 -27.5 -31.5t-39 -30t-51.5 -22.5t-65 -9q-47 0 -89 17.5t-73 52.5t-49 87.5t-18 122.5q0 66 16.5 117.5t46 86.5t70.5 53t90 18t90 -18t71 -53t46.5 -86.5t16.5 -117.5
q0 -10 -0.5 -18.5t-1.5 -16.5h-356zM281 456q-55 0 -91 -39.5t-44 -113.5h269q-8 76 -44 114.5t-90 38.5zM390 731q24 0 39 -15.5t15 -41.5q0 -25 -15 -41t-39 -16t-39.5 16t-15.5 41q0 26 15.5 41.5t39.5 15.5zM172 731q24 0 39.5 -15.5t15.5 -41.5q0 -25 -15.5 -41
t-39.5 -16t-39 16t-15 41q0 26 15 41.5t39 15.5z" />
    <glyph glyph-name="uni0452" unicode="&#x452;" horiz-adv-x="586" 
d="M171 739v-75h253v-67h-253v-127q60 72 162 72q40 0 73.5 -11.5t57.5 -36.5t37 -64.5t13 -94.5v-394q0 -53 -13.5 -83t-39 -44.5t-61.5 -18t-81 -3.5v86q56 0 78 14.5t22 58.5v374q0 69 -31.5 98t-84.5 29q-42 0 -76 -20t-56 -73v-359h-95v597h-66v67h66v43z" />
    <glyph glyph-name="uni0453" unicode="&#x453;" horiz-adv-x="434" 
d="M76 0zM365 777l-135 -204l-49 31l116 218zM408 529v-78h-237v-451h-95v529h332z" />
    <glyph glyph-name="uni0454" unicode="&#x454;" horiz-adv-x="508" 
d="M414 376q-17 38 -47.5 58t-71.5 20q-54 0 -94 -38t-49 -114h174v-75h-174q4 -38 16.5 -66.5t31.5 -47.5t42 -28.5t49 -9.5q41 0 71 20.5t50 53.5l68 -50q-9 -15 -24.5 -34.5t-39.5 -36.5t-56.5 -29t-73.5 -12q-47 0 -89 18t-73 53t-49 87t-18 120t18 119.5t50.5 86.5
t76 53t94.5 18q72 0 119.5 -31t67.5 -79z" />
    <glyph glyph-name="uni0455" unicode="&#x455;" horiz-adv-x="476" 
d="M27 0zM404 390q-26 28 -68.5 47.5t-93.5 19.5t-75 -19t-24 -46q0 -20 12 -33t33 -22q18 -8 40.5 -14t46.5 -13t49 -15t47 -19q41 -20 60.5 -48.5t19.5 -74.5q0 -47 -18 -78.5t-48 -51t-68 -28t-77 -8.5q-36 0 -68.5 6t-59.5 16.5t-48.5 24t-36.5 28.5l37 80
q29 -27 75 -47t100 -20q51 0 84.5 20t33.5 58q0 22 -13.5 36t-43.5 26q-21 9 -45 16t-47.5 13.5t-45 13.5t-38.5 15q-34 17 -54.5 45t-20.5 72q0 36 15 64.5t41 48t62.5 29.5t78.5 10q68 0 117 -22t76 -48z" />
    <glyph glyph-name="uni0456" unicode="&#x456;" horiz-adv-x="247" 
d="M70 0zM171 529v-529h-95v529h95zM124 731q24 0 39.5 -15.5t15.5 -41.5q0 -25 -15.5 -41t-39.5 -16t-39 16t-15 41q0 26 15 41.5t39 15.5z" />
    <glyph glyph-name="uni0457" unicode="&#x457;" horiz-adv-x="331" 
d="M2 0zM274 731q24 0 39 -15.5t15 -41.5q0 -25 -15 -41t-39 -16t-39.5 16t-15.5 41q0 26 15.5 41.5t39.5 15.5zM56 731q24 0 39.5 -15.5t15.5 -41.5q0 -25 -15.5 -41t-39.5 -16t-39 16t-15 41q0 26 15 41.5t39 15.5zM213 529v-529h-95v529h95z" />
    <glyph glyph-name="uni0458" unicode="&#x458;" horiz-adv-x="286" 
d="M15 0zM209 529v-588q0 -53 -13.5 -83t-38.5 -44.5t-61 -18t-81 -3.5v86q56 0 77.5 14.5t21.5 58.5v578h95zM162 731q24 0 39.5 -15.5t15.5 -41.5q0 -25 -15.5 -41t-39.5 -16t-39 16t-15 41q0 26 15 41.5t39 15.5z" />
    <glyph glyph-name="uni0459" unicode="&#x459;" horiz-adv-x="915" 
d="M548 529v-190h126q91 0 145.5 -42t54.5 -127t-54.5 -127.5t-145.5 -42.5h-221v450h-115q-5 -43 -12 -89t-16.5 -90.5t-22 -84t-27.5 -69.5q-29 -56 -76 -86.5t-115 -30.5h-44v78h44q78 0 120 82q16 32 28.5 76.5t21.5 94t15.5 101t11.5 97.5h282zM548 78h126q50 0 80 23
t30 70q0 48 -30 70t-80 22h-126v-185z" />
    <glyph glyph-name="uni045A" unicode="&#x45a;" horiz-adv-x="881" 
d="M171 529v-190h248v190h95v-190h126q91 0 145.5 -42t54.5 -127t-54.5 -127.5t-145.5 -42.5h-221v261h-248v-261h-95v529h95zM514 78h126q50 0 80 23t30 70q0 48 -30 70t-80 22h-126v-185z" />
    <glyph glyph-name="uni045B" unicode="&#x45b;" horiz-adv-x="586" 
d="M10 0zM76 664v43l95 32v-75h253v-67h-253v-127q60 72 162 72q40 0 73.5 -11.5t57.5 -36.5t37 -64.5t13 -94.5v-335h-95v325q0 69 -31.5 98t-84.5 29q-42 0 -76 -20t-56 -73v-359h-95v597h-66v67h66z" />
    <glyph glyph-name="uni045C" unicode="&#x45c;" horiz-adv-x="516" 
d="M76 0zM383 777l-135 -204l-49 31l116 218zM473 529l-207 -229l236 -300h-105l-226 284v-284h-95v529h95v-219l200 219h102z" />
    <glyph glyph-name="uni045D" unicode="&#x45d;" horiz-adv-x="604" 
d="M76 0zM250 822l116 -218l-48 -31l-136 204zM171 529v-389l263 389h95v-529h-95v386l-263 -386h-95v529h95z" />
    <glyph glyph-name="uni045E" unicode="&#x45e;" horiz-adv-x="534" 
d="M14 0zM112 529l151 -402l162 402h96l-288 -715h-96l80 199l-203 516h98zM171 767v-20q0 -51 28 -76.5t67 -25.5t67.5 25.5t28.5 76.5v20h66v-20q0 -41 -13 -71.5t-35 -51t-51.5 -31t-62.5 -10.5t-62 10.5t-51 31t-35 51t-13 71.5v20h66z" />
    <glyph glyph-name="uni045F" unicode="&#x45f;" horiz-adv-x="590" 
d="M171 529v-451h248v451h95v-529h-173v-176l-95 -32v208h-170v529h95z" />
    <glyph glyph-name="uni0490" unicode="&#x490;" horiz-adv-x="562" 
d="M442 692v176l95 32v-303h-354v-597h-102v692h361z" />
    <glyph glyph-name="uni0491" unicode="&#x491;" horiz-adv-x="434" 
d="M313 529v176l95 32v-286h-237v-451h-95v529h237z" />
    <glyph glyph-name="uni0492" unicode="&#x492;" horiz-adv-x="562" 
d="M537 692v-95h-354v-227h234v-67h-234v-303h-102v303h-78v67h78v322h456z" />
    <glyph glyph-name="uni0493" unicode="&#x493;" horiz-adv-x="455" 
d="M416 529v-78h-237v-167h240v-67h-240v-217h-95v217h-79v67h79v245h332z" />
    <glyph glyph-name="uni0496" unicode="&#x496;" horiz-adv-x="1088" 
d="M928 692l-281 -300l241 -297h169v-271l-95 -32v208h-116l-305 374v-374h-103v374l-305 -374h-119l316 392l-279 300h117l270 -288v288h103v-288l271 288h116z" />
    <glyph glyph-name="uni0497" unicode="&#x497;" horiz-adv-x="894" 
d="M742 529l-207 -229l175 -222h152v-254l-95 -32v208h-101l-226 284v-284h-96v283l-226 -283h-104l234 300l-206 229h102l200 -218v218h96v-219l200 219h102z" />
    <glyph glyph-name="uni049A" unicode="&#x49a;" horiz-adv-x="731" 
d="M571 692l-281 -300l241 -297h168v-271l-95 -32v208h-115l-306 375v-375h-102v692h102v-289l272 289h116z" />
    <glyph glyph-name="uni049B" unicode="&#x49b;" horiz-adv-x="625" 
d="M473 529l-207 -229l175 -222h153v-254l-95 -32v208h-102l-226 284v-284h-95v529h95v-219l200 219h102z" />
    <glyph glyph-name="uni04A2" unicode="&#x4a2;" horiz-adv-x="753" 
d="M183 692v-291h317v291h102v-597h119v-271l-95 -32v208h-126v306h-317v-306h-102v692h102z" />
    <glyph glyph-name="uni04A3" unicode="&#x4a3;" horiz-adv-x="664" 
d="M171 529v-218h248v218h95v-451h118v-254l-95 -32v208h-118v233h-248v-233h-95v529h95z" />
    <glyph glyph-name="uni04AE" unicode="&#x4ae;" horiz-adv-x="642" 
d="M10 0zM128 692l194 -344l196 344h114l-260 -437v-255h-101v255l-261 437h118z" />
    <glyph glyph-name="uni04AF" unicode="&#x4af;" horiz-adv-x="526" 
d="M110 529l153 -419l152 419h97l-202 -529v-176l-95 -32v208l-201 529h96z" />
    <glyph glyph-name="uni04B0" unicode="&#x4b0;" horiz-adv-x="642" 
d="M271 220v35l-261 437h118l194 -344l196 344h114l-260 -437v-35h156v-67h-156v-153h-101v153h-157v67h157z" />
    <glyph glyph-name="uni04B1" unicode="&#x4b1;" horiz-adv-x="526" 
d="M110 529l153 -419l152 419h97l-196 -512h153v-67h-159v-126l-95 -32v158h-160v67h153l-194 512h96z" />
    <glyph glyph-name="uni04B2" unicode="&#x4b2;" horiz-adv-x="713" 
d="M618 692l-231 -334l180 -263h114v-271l-95 -32v208h-75l-191 284l-187 -284h-118l249 368l-229 324h117l177 -259l175 259h114z" />
    <glyph glyph-name="uni04B3" unicode="&#x4b3;" horiz-adv-x="620" 
d="M512 529l-179 -244l149 -207h106v-254l-95 -32v208h-62l-156 222l-155 -222h-106l206 291l-172 238h103l129 -180l128 180h104z" />
    <glyph glyph-name="uni04B6" unicode="&#x4b6;" horiz-adv-x="745" 
d="M594 692v-597h119v-271l-95 -32v208h-126v304q-29 -24 -72 -42t-106 -18q-54 0 -98 16t-75 48.5t-48 82t-17 115.5v186h103v-186q0 -88 39.5 -128.5t115.5 -40.5q89 0 158 52v303h102z" />
    <glyph glyph-name="uni04B7" unicode="&#x4b7;" horiz-adv-x="670" 
d="M519 529v-451h119v-254l-95 -32v208h-119v222q-33 -27 -78.5 -46t-100.5 -19q-79 0 -127 44.5t-48 137.5v190h95v-174q0 -57 28.5 -83t79.5 -26q35 0 74 12.5t77 38.5v232h95z" />
    <glyph glyph-name="uni04BA" unicode="&#x4ba;" horiz-adv-x="676" 
d="M82 0v692h102v-304q29 24 72 42t106 18q54 0 98 -16t75 -48.5t48 -82t17 -115.5v-186h-103v186q0 88 -39.5 128.5t-115.5 40.5q-89 0 -158 -52v-303h-102z" />
    <glyph glyph-name="uni04BB" unicode="&#x4bb;" horiz-adv-x="595" 
d="M76 0v529h95v-222q33 27 78.5 46t100.5 19q79 0 127 -44.5t48 -137.5v-190h-95v174q0 57 -28.5 83t-79.5 26q-35 0 -74 -12.5t-77 -38.5v-232h-95z" />
    <glyph glyph-name="uni04C0" unicode="&#x4c0;" horiz-adv-x="265" 
d="M81 0zM184 692v-692h-103v692h103z" />
    <glyph glyph-name="uni04C3" unicode="&#x4c3;" horiz-adv-x="622" 
d="M571 692l-281 -300l318 -392q0 -75 -13.5 -117t-38.5 -62t-61 -24.5t-81 -4.5v86q28 0 47 3.5t30.5 13.5t16.5 28t5 48l-330 404v-375h-102v692h102v-289l272 289h116z" />
    <glyph glyph-name="uni04C4" unicode="&#x4c4;" horiz-adv-x="516" 
d="M473 529l-207 -229l236 -300q0 -75 -13.5 -117t-38.5 -62t-61 -24.5t-81 -4.5v86q28 0 47 3t30.5 14t16.5 32.5t5 57.5l-236 299v-284h-95v529h95v-219l200 219h102z" />
    <glyph glyph-name="uni04C7" unicode="&#x4c7;" horiz-adv-x="683" 
d="M602 692v-751q0 -53 -14.5 -83t-41 -44.5t-63.5 -18t-82 -3.5v86q56 0 77.5 14.5t21.5 58.5v355h-317v-306h-102v692h102v-291h317v291h102z" />
    <glyph glyph-name="uni04C8" unicode="&#x4c8;" horiz-adv-x="590" 
d="M171 529v-218h248v218h95v-588q0 -53 -13.5 -83t-38.5 -44.5t-61 -18t-81 -3.5v86q56 0 77.5 14.5t21.5 58.5v282h-248v-233h-95v529h95z" />
    <glyph glyph-name="uni04CF" unicode="&#x4cf;" horiz-adv-x="247" 
d="M76 0zM171 739v-739h-95v707z" />
    <glyph glyph-name="uni04D8" unicode="&#x4d8;" horiz-adv-x="729" 
d="M64 0zM559 383q-5 59 -23 102.5t-45 71.5t-61.5 41.5t-72.5 13.5q-32 0 -58 -8.5t-48 -23.5t-40 -34.5t-33 -41.5l-75 55q15 25 38.5 50.5t56 46.5t74 34.5t92.5 13.5q63 0 118 -23t95 -68.5t63 -114t23 -158.5q0 -85 -21 -151t-59 -111t-92.5 -68t-120.5 -23
q-67 0 -123 23.5t-96.5 68.5t-63.5 111t-23 152q0 15 0.5 23t1.5 18h493zM370 81q81 0 131 56t58 160h-390q12 -106 66 -161t135 -55z" />
    <glyph glyph-name="uni04D9" unicode="&#x4d9;" horiz-adv-x="561" 
d="M57 0zM415 297q-4 41 -17 71t-32.5 49.5t-44 29t-50.5 9.5q-39 0 -68.5 -18t-47.5 -44l-63 55q11 15 27.5 31.5t39 30t51.5 22.5t65 9q47 0 89 -17.5t73 -52.5t49 -87.5t18 -122.5q0 -66 -16.5 -117.5t-46 -86.5t-70.5 -53t-90 -18t-90 18t-71 53t-46.5 86.5t-16.5 117.5
q0 10 0.5 18.5t1.5 16.5h356zM280 73q55 0 91 39.5t44 113.5h-269q8 -76 44 -114.5t90 -38.5z" />
    <glyph glyph-name="uni04E8" unicode="&#x4e8;" horiz-adv-x="729" 
d="M363 705q66 0 121.5 -23t95.5 -68.5t62.5 -113t22.5 -155.5t-22.5 -155t-62.5 -112t-95.5 -68t-121.5 -23t-121 23t-94.5 68t-62 112t-22.5 155t22.5 155.5t62 113t94.5 68.5t121 23zM363 81q41 0 76 14.5t61 43t42 71t20 98.5h-396q8 -113 61 -170t136 -57zM363 610
q-79 0 -131.5 -52.5t-63.5 -157.5h393q-12 105 -65 157.5t-133 52.5z" />
    <glyph glyph-name="uni04E9" unicode="&#x4e9;" horiz-adv-x="561" 
d="M281 542q48 0 89 -18t71 -53t46.5 -86.5t16.5 -119.5t-16.5 -120t-46 -87t-70.5 -53t-90 -18q-50 0 -91 18t-70.5 53t-46 87t-16.5 120t16.5 119.5t46.5 86.5t71 53t90 18zM281 75q54 0 90 40t42 119h-264q6 -79 41 -119t91 -40zM281 454q-54 0 -89 -39t-43 -114h263
q-8 75 -43 114t-88 39z" />
    <glyph glyph-name="uni04EE" unicode="&#x4ee;" horiz-adv-x="630" 
d="M10 0zM522 870v-67h-414v67h414zM122 692l189 -407l198 407h111l-285 -572q-18 -36 -35 -59.5t-38 -37t-47.5 -18.5t-62.5 -5h-57v95h63q16 0 28.5 2t23.5 9t21 20.5t22 37.5l5 12l-248 516h112z" />
    <glyph glyph-name="uni04EF" unicode="&#x4ef;" horiz-adv-x="534" 
d="M14 0zM112 529l151 -402l162 402h96l-288 -715h-96l80 199l-203 516h98zM474 724v-67h-414v67h414z" />
    <glyph glyph-name="uni0512" unicode="&#x512;" horiz-adv-x="679" 
d="M597 692v-751q0 -53 -14.5 -83t-41 -44.5t-63.5 -18t-82 -3.5v86q56 0 77.5 14.5t21.5 58.5v646h-127q-5 -57 -13 -118t-18.5 -120.5t-24.5 -112.5t-31 -93q-32 -75 -83.5 -114t-124.5 -39h-48v95h48q84 0 131 109q18 43 31.5 101.5t23.5 124t17 133.5t13 129h308z" />
    <glyph glyph-name="uni0513" unicode="&#x513;" horiz-adv-x="624" 
d="M548 529v-588q0 -53 -13.5 -83t-38.5 -44.5t-61 -18t-81 -3.5v86q56 0 77.5 14.5t21.5 58.5v499h-115q-5 -43 -12 -89t-16.5 -90.5t-22 -84t-27.5 -69.5q-29 -56 -76 -86.5t-115 -30.5h-44v78h44q78 0 120 82q16 32 28.5 76.5t21.5 94t15.5 101t11.5 97.5h282z" />
    <glyph glyph-name="uni058F" unicode="&#x58f;" horiz-adv-x="643" 
d="M605 331v-67h-95v-99h95v-67h-95v-101h-102v101h-217v67h217v99h-217v67h217v99q0 81 -42 126t-111 45q-50 0 -92.5 -28t-65.5 -85l-77 57q14 36 38 64t55 47t66.5 29t73.5 10q58 0 105.5 -20t81 -55.5t52 -84t18.5 -105.5v-99h95z" />
    <glyph glyph-name="uni1E0C" unicode="&#x1e0c;" horiz-adv-x="705" 
d="M81 0zM284 692q75 0 140.5 -24t114 -68.5t76 -108t27.5 -143.5t-28 -144.5t-76.5 -109.5t-113.5 -69.5t-140 -24.5h-203v692h203zM184 94h101q53 0 99 17t80.5 49.5t54.5 79.5t20 107q0 59 -19.5 105.5t-54 78.5t-81 49t-99.5 17h-101v-503zM309 -86q24 0 39.5 -15.5
t15.5 -41.5q0 -25 -15.5 -41t-39.5 -16t-39 16t-15 41q0 26 15 41.5t39 15.5z" />
    <glyph glyph-name="uni1E0D" unicode="&#x1e0d;" horiz-adv-x="584" 
d="M58 0zM508 739v-739h-89v68q-26 -35 -66 -58t-95 -23t-93 24t-62 63t-34.5 89t-10.5 101t10.5 101t34.5 89.5t62 63.5t93 24q52 0 90.5 -21t64.5 -53v239zM282 75q47 0 78.5 23.5t52.5 61.5v209q-21 37 -52.5 61.5t-79.5 24.5q-38 0 -63 -16t-41 -42.5t-22.5 -61
t-6.5 -71.5t6.5 -71t22.5 -60.5t41.5 -42t63.5 -15.5zM289 -86q24 0 39.5 -15.5t15.5 -41.5q0 -25 -15.5 -41t-39.5 -16t-39 16t-15 41q0 26 15 41.5t39 15.5z" />
    <glyph glyph-name="uni1E12" unicode="&#x1e12;" horiz-adv-x="705" 
d="M81 0zM284 692q75 0 140.5 -24t114 -68.5t76 -108t27.5 -143.5t-28 -144.5t-76.5 -109.5t-113.5 -69.5t-140 -24.5h-203v692h203zM184 94h101q53 0 99 17t80.5 49.5t54.5 79.5t20 107q0 59 -19.5 105.5t-54 78.5t-81 49t-99.5 17h-101v-503zM275 -19h73l145 -156l-44 -44
l-137 126l-138 -126l-44 44z" />
    <glyph glyph-name="uni1E13" unicode="&#x1e13;" horiz-adv-x="584" 
d="M58 0zM508 739v-739h-89v68q-26 -35 -66 -58t-95 -23t-93 24t-62 63t-34.5 89t-10.5 101t10.5 101t34.5 89.5t62 63.5t93 24q52 0 90.5 -21t64.5 -53v239zM282 75q47 0 78.5 23.5t52.5 61.5v209q-21 37 -52.5 61.5t-79.5 24.5q-38 0 -63 -16t-41 -42.5t-22.5 -61
t-6.5 -71.5t6.5 -71t22.5 -60.5t41.5 -42t63.5 -15.5zM259 -19h73l145 -156l-44 -44l-137 126l-138 -126l-44 44z" />
    <glyph glyph-name="uni1E24" unicode="&#x1e24;" horiz-adv-x="683" 
d="M81 0zM183 692v-291h317v291h102v-692h-102v306h-317v-306h-102v692h102zM340 -86q24 0 39.5 -15.5t15.5 -41.5q0 -25 -15.5 -41t-39.5 -16t-39 16t-15 41q0 26 15 41.5t39 15.5z" />
    <glyph glyph-name="uni1E25" unicode="&#x1e25;" horiz-adv-x="586" 
d="M76 0zM171 739v-269q60 72 162 72q40 0 73.5 -11.5t57.5 -36.5t37 -64.5t13 -94.5v-335h-95v325q0 69 -31.5 98t-84.5 29q-42 0 -76 -20t-56 -73v-359h-95v707zM295 -86q24 0 39.5 -15.5t15.5 -41.5q0 -25 -15.5 -41t-39.5 -16t-39 16t-15 41q0 26 15 41.5t39 15.5z" />
    <glyph glyph-name="uni1E3C" unicode="&#x1e3c;" horiz-adv-x="562" 
d="M81 0zM183 692v-597h354v-95h-456v692h102zM272 -19h73l145 -156l-44 -44l-137 126l-138 -126l-44 44z" />
    <glyph glyph-name="uni1E3D" unicode="&#x1e3d;" horiz-adv-x="326" 
d="M0 0zM211 739v-739h-95v707zM127 -19h73l145 -156l-44 -44l-137 126l-138 -126l-44 44z" />
    <glyph glyph-name="uni1E44" unicode="&#x1e44;" horiz-adv-x="686" 
d="M81 0zM183 692l330 -510v510h102v-692h-95l-337 505v-505h-102v692h102zM344 890q24 0 39.5 -15.5t15.5 -41.5q0 -25 -15.5 -41t-39.5 -16t-39 16t-15 41q0 26 15 41.5t39 15.5z" />
    <glyph glyph-name="uni1E45" unicode="&#x1e45;" horiz-adv-x="586" 
d="M76 0zM166 529v-65q60 78 167 78q40 0 73.5 -11.5t57.5 -36.5t37 -64.5t13 -94.5v-335h-95v325q0 69 -31.5 98t-84.5 29q-42 0 -76 -20t-56 -73v-359h-95v529h90zM294 731q24 0 39.5 -15.5t15.5 -41.5q0 -25 -15.5 -41t-39.5 -16t-39 16t-15 41q0 26 15 41.5t39 15.5z
" />
    <glyph glyph-name="uni1E4A" unicode="&#x1e4a;" horiz-adv-x="686" 
d="M81 0zM183 692l330 -510v510h102v-692h-95l-337 505v-505h-102v692h102zM306 -19h73l145 -156l-44 -44l-137 126l-138 -126l-44 44z" />
    <glyph glyph-name="uni1E4B" unicode="&#x1e4b;" horiz-adv-x="586" 
d="M76 0zM166 529v-65q60 78 167 78q40 0 73.5 -11.5t57.5 -36.5t37 -64.5t13 -94.5v-335h-95v325q0 69 -31.5 98t-84.5 29q-42 0 -76 -20t-56 -73v-359h-95v529h90zM256 -19h73l145 -156l-44 -44l-137 126l-138 -126l-44 44z" />
    <glyph glyph-name="uni1E5A" unicode="&#x1e5a;" horiz-adv-x="653" 
d="M81 0zM364 692q52 0 95 -13.5t74 -40t47.5 -66.5t16.5 -93q0 -83 -39 -133t-106 -69l178 -277h-116l-166 266h-165v-266h-102v692h283zM183 354h183q60 0 97 30t37 93t-37 92.5t-97 29.5h-183v-245zM323 -86q24 0 39.5 -15.5t15.5 -41.5q0 -25 -15.5 -41t-39.5 -16
t-39 16t-15 41q0 26 15 41.5t39 15.5z" />
    <glyph glyph-name="uni1E5B" unicode="&#x1e5b;" horiz-adv-x="429" 
d="M71 0zM376 426q-14 14 -33 20t-43 6q-41 0 -73.5 -19.5t-55.5 -75.5v-357h-95v529h90v-64q57 77 152 77q35 0 57 -9.5t36 -22.5zM125 -86q24 0 39.5 -15.5t15.5 -41.5q0 -25 -15.5 -41t-39.5 -16t-39 16t-15 41q0 26 15 41.5t39 15.5z" />
    <glyph glyph-name="uni1E62" unicode="&#x1e62;" horiz-adv-x="635" 
d="M31 0zM107 179q36 -43 90.5 -70t129.5 -27q78 0 125 31t47 89q0 39 -21 59t-54 32q-24 9 -52.5 15.5t-58 13t-59.5 14t-58 18.5q-55 22 -86.5 57.5t-31.5 95.5q0 42 16.5 77t48 60.5t78 40t105.5 14.5q50 0 90 -9.5t71.5 -25.5t55 -35.5t38.5 -39.5l-71 -63
q-30 34 -76 57.5t-112 23.5q-68 0 -107 -26t-39 -70q0 -33 20 -50.5t46 -28.5q24 -9 52.5 -15.5t58.5 -12.5t60.5 -13.5t59.5 -18.5q25 -10 47.5 -23.5t39.5 -34t27.5 -47.5t10.5 -64q0 -53 -21 -92.5t-58.5 -65.5t-88 -39.5t-109.5 -13.5q-104 0 -176.5 36t-113.5 89z
M325 -86q24 0 39.5 -15.5t15.5 -41.5q0 -25 -15.5 -41t-39.5 -16t-39 16t-15 41q0 26 15 41.5t39 15.5z" />
    <glyph glyph-name="uni1E63" unicode="&#x1e63;" horiz-adv-x="476" 
d="M27 0zM404 390q-26 28 -68.5 47.5t-93.5 19.5t-75 -19t-24 -46q0 -20 12 -33t33 -22q18 -8 40.5 -14t46.5 -13t49 -15t47 -19q41 -20 60.5 -48.5t19.5 -74.5q0 -47 -18 -78.5t-48 -51t-68 -28t-77 -8.5q-36 0 -68.5 6t-59.5 16.5t-48.5 24t-36.5 28.5l37 80
q29 -27 75 -47t100 -20q51 0 84.5 20t33.5 58q0 22 -13.5 36t-43.5 26q-21 9 -45 16t-47.5 13.5t-45 13.5t-38.5 15q-34 17 -54.5 45t-20.5 72q0 36 15 64.5t41 48t62.5 29.5t78.5 10q68 0 117 -22t76 -48zM239 -86q24 0 39.5 -15.5t15.5 -41.5q0 -25 -15.5 -41t-39.5 -16
t-39 16t-15 41q0 26 15 41.5t39 15.5z" />
    <glyph glyph-name="uni1E6C" unicode="&#x1e6c;" horiz-adv-x="571" 
d="M25 0zM545 692v-95h-208v-597h-102v597h-210v95h520zM285 -86q24 0 39.5 -15.5t15.5 -41.5q0 -25 -15.5 -41t-39.5 -16t-39 16t-15 41q0 26 15 41.5t39 15.5z" />
    <glyph glyph-name="uni1E6D" unicode="&#x1e6d;" horiz-adv-x="356" 
d="M22 0zM82 529v143l95 31v-174h135v-78h-135v-300q0 -64 62 -64q21 0 39.5 7.5t36.5 24.5l-16 -87q-14 -17 -41.5 -27t-56.5 -10q-49 0 -84 33.5t-35 101.5v321h-60v78h60zM181 -86q24 0 39.5 -15.5t15.5 -41.5q0 -25 -15.5 -41t-39.5 -16t-39 16t-15 41q0 26 15 41.5
t39 15.5z" />
    <glyph glyph-name="Wgrave" unicode="&#x1e80;" horiz-adv-x="884" 
d="M16 0zM124 692l123 -507l146 507h99l144 -507l126 507h106l-174 -692h-99l-153 507l-158 -507h-97l-171 692h108zM389 981l116 -218l-48 -31l-136 204z" />
    <glyph glyph-name="wgrave" unicode="&#x1e81;" horiz-adv-x="694" 
d="M16 0zM106 529l91 -372l113 372h76l111 -372l93 372h89l-133 -529h-83l-116 383l-118 -383h-83l-130 529h90zM295 822l116 -218l-48 -31l-136 204z" />
    <glyph glyph-name="Wacute" unicode="&#x1e82;" horiz-adv-x="884" 
d="M16 0zM124 692l123 -507l146 507h99l144 -507l126 507h106l-174 -692h-99l-153 507l-158 -507h-97l-171 692h108zM562 936l-135 -204l-49 31l116 218z" />
    <glyph glyph-name="wacute" unicode="&#x1e83;" horiz-adv-x="694" 
d="M16 0zM106 529l91 -372l113 372h76l111 -372l93 372h89l-133 -529h-83l-116 383l-118 -383h-83l-130 529h90zM467 777l-135 -204l-49 31l116 218z" />
    <glyph glyph-name="Wdieresis" unicode="&#x1e84;" horiz-adv-x="884" 
d="M16 0zM124 692l123 -507l146 507h99l144 -507l126 507h106l-174 -692h-99l-153 507l-158 -507h-97l-171 692h108zM550 890q24 0 39 -15.5t15 -41.5q0 -25 -15 -41t-39 -16t-39.5 16t-15.5 41q0 26 15.5 41.5t39.5 15.5zM332 890q24 0 39.5 -15.5t15.5 -41.5
q0 -25 -15.5 -41t-39.5 -16t-39 16t-15 41q0 26 15 41.5t39 15.5z" />
    <glyph glyph-name="wdieresis" unicode="&#x1e85;" horiz-adv-x="694" 
d="M16 0zM106 529l91 -372l113 372h76l111 -372l93 372h89l-133 -529h-83l-116 383l-118 -383h-83l-130 529h90zM457 731q24 0 39 -15.5t15 -41.5q0 -25 -15 -41t-39 -16t-39.5 16t-15.5 41q0 26 15.5 41.5t39.5 15.5zM239 731q24 0 39.5 -15.5t15.5 -41.5q0 -25 -15.5 -41
t-39.5 -16t-39 16t-15 41q0 26 15 41.5t39 15.5z" />
    <glyph glyph-name="uni1E92" unicode="&#x1e92;" horiz-adv-x="591" 
d="M59 0zM535 692v-98l-355 -499h355v-95h-476v101l361 496h-346v95h461zM299 -86q24 0 39.5 -15.5t15.5 -41.5q0 -25 -15.5 -41t-39.5 -16t-39 16t-15 41q0 26 15 41.5t39 15.5z" />
    <glyph glyph-name="uni1E93" unicode="&#x1e93;" horiz-adv-x="527" 
d="M57 0zM469 529v-80l-300 -371h305v-78h-417v82l304 369h-291v78h399zM266 -86q24 0 39.5 -15.5t15.5 -41.5q0 -25 -15.5 -41t-39.5 -16t-39 16t-15 41q0 26 15 41.5t39 15.5z" />
    <glyph glyph-name="uni1EA0" unicode="&#x1ea0;" horiz-adv-x="668" 
d="M15 0zM387 692l266 -692h-108l-55 149h-313l-54 -149h-108l263 692h109zM210 240h246l-124 335zM332 -86q24 0 39.5 -15.5t15.5 -41.5q0 -25 -15.5 -41t-39.5 -16t-39 16t-15 41q0 26 15 41.5t39 15.5z" />
    <glyph glyph-name="uni1EA1" unicode="&#x1ea1;" horiz-adv-x="559" 
d="M53 0zM93 486q29 22 76 39t113 17q45 0 82.5 -10.5t65 -34.5t42.5 -63.5t15 -97.5v-336h-88v38q-68 -45 -156 -45q-40 0 -74.5 10t-60 31t-40.5 53t-15 76q0 43 15 76.5t42 55.5t64 33.5t81 11.5q35 0 71 -7t68 -21v18q0 35 -8.5 58.5t-24.5 37.5t-39 20t-51 6
q-42 0 -76.5 -11t-63.5 -31zM264 72q32 0 66.5 8t63.5 23v147q-27 10 -57.5 15t-58.5 5q-57 0 -96 -24.5t-39 -77.5q0 -26 9.5 -44t26 -29.5t38.5 -17t47 -5.5zM277 -86q24 0 39.5 -15.5t15.5 -41.5q0 -25 -15.5 -41t-39.5 -16t-39 16t-15 41q0 26 15 41.5t39 15.5z" />
    <glyph glyph-name="uni1EA2" unicode="&#x1ea2;" horiz-adv-x="668" 
d="M15 0zM387 692l266 -692h-108l-55 149h-313l-54 -149h-108l263 692h109zM210 240h246l-124 335zM212 919q17 26 47 44t78 18q58 0 89 -27.5t31 -76.5q0 -36 -15 -55t-37 -36q-12 -10 -20.5 -17t-13.5 -13.5t-7.5 -14.5t-2.5 -20h-53q1 32 14 51t33 36q17 15 29 27.5
t12 34.5q0 53 -65 53q-27 0 -45 -10t-32 -32z" />
    <glyph glyph-name="uni1EA3" unicode="&#x1ea3;" horiz-adv-x="559" 
d="M53 0zM93 486q29 22 76 39t113 17q45 0 82.5 -10.5t65 -34.5t42.5 -63.5t15 -97.5v-336h-88v38q-68 -45 -156 -45q-40 0 -74.5 10t-60 31t-40.5 53t-15 76q0 43 15 76.5t42 55.5t64 33.5t81 11.5q35 0 71 -7t68 -21v18q0 35 -8.5 58.5t-24.5 37.5t-39 20t-51 6
q-42 0 -76.5 -11t-63.5 -31zM264 72q32 0 66.5 8t63.5 23v147q-27 10 -57.5 15t-58.5 5q-57 0 -96 -24.5t-39 -77.5q0 -26 9.5 -44t26 -29.5t38.5 -17t47 -5.5zM162 760q17 26 47 44t78 18q58 0 89 -27.5t31 -76.5q0 -36 -15 -55t-37 -36q-12 -10 -20.5 -17t-13.5 -13.5
t-7.5 -14.5t-2.5 -20h-53q1 32 14 51t33 36q17 15 29 27.5t12 34.5q0 53 -65 53q-27 0 -45 -10t-32 -32z" />
    <glyph glyph-name="uni1EA4" unicode="&#x1ea4;" horiz-adv-x="668" 
d="M15 0zM387 692l266 -692h-108l-55 149h-313l-54 -149h-108l263 692h109zM210 240h246l-124 335zM680 1023l-135 -204l-49 31l116 218zM364 968l151 -197l-43 -43l-139 150l-137 -150l-44 43l151 197h61z" />
    <glyph glyph-name="uni1EA5" unicode="&#x1ea5;" horiz-adv-x="559" 
d="M53 0zM93 486q29 22 76 39t113 17q45 0 82.5 -10.5t65 -34.5t42.5 -63.5t15 -97.5v-336h-88v38q-68 -45 -156 -45q-40 0 -74.5 10t-60 31t-40.5 53t-15 76q0 43 15 76.5t42 55.5t64 33.5t81 11.5q35 0 71 -7t68 -21v18q0 35 -8.5 58.5t-24.5 37.5t-39 20t-51 6
q-42 0 -76.5 -11t-63.5 -31zM264 72q32 0 66.5 8t63.5 23v147q-27 10 -57.5 15t-58.5 5q-57 0 -96 -24.5t-39 -77.5q0 -26 9.5 -44t26 -29.5t38.5 -17t47 -5.5zM588 923l-135 -204l-49 31l116 218zM310 822l151 -197l-43 -43l-139 150l-137 -150l-44 43l151 197h61z" />
    <glyph glyph-name="uni1EA6" unicode="&#x1ea6;" horiz-adv-x="668" 
d="M0 0zM387 692l266 -692h-108l-55 149h-313l-54 -149h-108l263 692h109zM210 240h246l-124 335zM55 1068l116 -218l-48 -31l-136 204zM364 968l151 -197l-43 -43l-139 150l-137 -150l-44 43l151 197h61z" />
    <glyph glyph-name="uni1EA7" unicode="&#x1ea7;" horiz-adv-x="559" 
d="M0 0zM93 486q29 22 76 39t113 17q45 0 82.5 -10.5t65 -34.5t42.5 -63.5t15 -97.5v-336h-88v38q-68 -45 -156 -45q-40 0 -74.5 10t-60 31t-40.5 53t-15 76q0 43 15 76.5t42 55.5t64 33.5t81 11.5q35 0 71 -7t68 -21v18q0 35 -8.5 58.5t-24.5 37.5t-39 20t-51 6
q-42 0 -76.5 -11t-63.5 -31zM264 72q32 0 66.5 8t63.5 23v147q-27 10 -57.5 15t-58.5 5q-57 0 -96 -24.5t-39 -77.5q0 -26 9.5 -44t26 -29.5t38.5 -17t47 -5.5zM35 968l116 -218l-48 -31l-136 204zM310 822l151 -197l-43 -43l-139 150l-137 -150l-44 43l151 197h61z" />
    <glyph glyph-name="uni1EA8" unicode="&#x1ea8;" horiz-adv-x="668" 
d="M15 0zM387 692l266 -692h-108l-55 149h-313l-54 -149h-108l263 692h109zM210 240h246l-124 335zM364 968l151 -197l-43 -43l-139 150l-137 -150l-44 43l151 197h61zM417 1026q17 26 47 44t78 18q58 0 89 -27.5t31 -76.5q0 -36 -15 -55t-37 -36q-12 -10 -20.5 -17
t-13.5 -13.5t-7.5 -14.5t-2.5 -20h-53q1 32 14 51t33 36q17 15 29 27.5t12 34.5q0 53 -65 53q-27 0 -45 -10t-32 -32z" />
    <glyph glyph-name="uni1EA9" unicode="&#x1ea9;" horiz-adv-x="559" 
d="M53 0zM93 486q29 22 76 39t113 17q45 0 82.5 -10.5t65 -34.5t42.5 -63.5t15 -97.5v-336h-88v38q-68 -45 -156 -45q-40 0 -74.5 10t-60 31t-40.5 53t-15 76q0 43 15 76.5t42 55.5t64 33.5t81 11.5q35 0 71 -7t68 -21v18q0 35 -8.5 58.5t-24.5 37.5t-39 20t-51 6
q-42 0 -76.5 -11t-63.5 -31zM264 72q32 0 66.5 8t63.5 23v147q-27 10 -57.5 15t-58.5 5q-57 0 -96 -24.5t-39 -77.5q0 -26 9.5 -44t26 -29.5t38.5 -17t47 -5.5zM310 822l151 -197l-43 -43l-139 150l-137 -150l-44 43l151 197h61zM345 906q17 26 47 44t78 18q58 0 89 -27.5
t31 -76.5q0 -36 -15 -55t-37 -36q-12 -10 -20.5 -17t-13.5 -13.5t-7.5 -14.5t-2.5 -20h-53q1 32 14 51t33 36q17 15 29 27.5t12 34.5q0 53 -65 53q-27 0 -45 -10t-32 -32z" />
    <glyph glyph-name="uni1EAA" unicode="&#x1eaa;" horiz-adv-x="668" 
d="M15 0zM387 692l266 -692h-108l-55 149h-313l-54 -149h-108l263 692h109zM210 240h246l-124 335zM128 1012q19 37 47.5 58t66.5 21q29 0 52.5 -10t44.5 -22t41 -22t42 -10q26 0 43.5 16t29.5 46l45 -44q-20 -42 -49.5 -62t-64.5 -20q-29 0 -52.5 10t-44.5 22t-42 22
t-43 10q-26 0 -42.5 -15.5t-28.5 -44.5zM364 950l151 -197l-43 -43l-139 150l-137 -150l-44 43l151 197h61z" />
    <glyph glyph-name="uni1EAB" unicode="&#x1eab;" horiz-adv-x="559" 
d="M53 0zM93 486q29 22 76 39t113 17q45 0 82.5 -10.5t65 -34.5t42.5 -63.5t15 -97.5v-336h-88v38q-68 -45 -156 -45q-40 0 -74.5 10t-60 31t-40.5 53t-15 76q0 43 15 76.5t42 55.5t64 33.5t81 11.5q35 0 71 -7t68 -21v18q0 35 -8.5 58.5t-24.5 37.5t-39 20t-51 6
q-42 0 -76.5 -11t-63.5 -31zM264 72q32 0 66.5 8t63.5 23v147q-27 10 -57.5 15t-58.5 5q-57 0 -96 -24.5t-39 -77.5q0 -26 9.5 -44t26 -29.5t38.5 -17t47 -5.5zM81 893q19 37 47.5 58t66.5 21q29 0 52.5 -10t44.5 -22t41 -22t42 -10q26 0 43.5 16t29.5 46l45 -44
q-20 -42 -49.5 -62t-64.5 -20q-29 0 -52.5 10t-44.5 22t-42 22t-43 10q-26 0 -42.5 -15.5t-28.5 -44.5zM318 812l151 -197l-43 -43l-139 150l-137 -150l-44 43l151 197h61z" />
    <glyph glyph-name="uni1EAC" unicode="&#x1eac;" horiz-adv-x="668" 
d="M15 0zM387 692l266 -692h-108l-55 149h-313l-54 -149h-108l263 692h109zM210 240h246l-124 335zM332 -86q24 0 39.5 -15.5t15.5 -41.5q0 -25 -15.5 -41t-39.5 -16t-39 16t-15 41q0 26 15 41.5t39 15.5zM364 981l151 -197l-43 -43l-139 150l-137 -150l-44 43l151 197h61z
" />
    <glyph glyph-name="uni1EAD" unicode="&#x1ead;" horiz-adv-x="559" 
d="M53 0zM93 486q29 22 76 39t113 17q45 0 82.5 -10.5t65 -34.5t42.5 -63.5t15 -97.5v-336h-88v38q-68 -45 -156 -45q-40 0 -74.5 10t-60 31t-40.5 53t-15 76q0 43 15 76.5t42 55.5t64 33.5t81 11.5q35 0 71 -7t68 -21v18q0 35 -8.5 58.5t-24.5 37.5t-39 20t-51 6
q-42 0 -76.5 -11t-63.5 -31zM264 72q32 0 66.5 8t63.5 23v147q-27 10 -57.5 15t-58.5 5q-57 0 -96 -24.5t-39 -77.5q0 -26 9.5 -44t26 -29.5t38.5 -17t47 -5.5zM278 -86q24 0 39.5 -15.5t15.5 -41.5q0 -25 -15.5 -41t-39.5 -16t-39 16t-15 41q0 26 15 41.5t39 15.5zM310 822
l151 -197l-43 -43l-139 150l-137 -150l-44 43l151 197h61z" />
    <glyph glyph-name="uni1EAE" unicode="&#x1eae;" horiz-adv-x="668" 
d="M15 0zM387 692l266 -692h-108l-55 149h-313l-54 -149h-108l263 692h109zM210 240h246l-124 335zM461 1080l-135 -204l-49 31l116 218zM238 913v-20q0 -51 28 -76.5t67 -25.5t67.5 25.5t28.5 76.5v20h66v-20q0 -41 -13 -71.5t-35 -51t-51.5 -31t-62.5 -10.5t-62 10.5
t-51 31t-35 51t-13 71.5v20h66z" />
    <glyph glyph-name="uni1EAF" unicode="&#x1eaf;" horiz-adv-x="559" 
d="M53 0zM93 486q29 22 76 39t113 17q45 0 82.5 -10.5t65 -34.5t42.5 -63.5t15 -97.5v-336h-88v38q-68 -45 -156 -45q-40 0 -74.5 10t-60 31t-40.5 53t-15 76q0 43 15 76.5t42 55.5t64 33.5t81 11.5q35 0 71 -7t68 -21v18q0 35 -8.5 58.5t-24.5 37.5t-39 20t-51 6
q-42 0 -76.5 -11t-63.5 -31zM264 72q32 0 66.5 8t63.5 23v147q-27 10 -57.5 15t-58.5 5q-57 0 -96 -24.5t-39 -77.5q0 -26 9.5 -44t26 -29.5t38.5 -17t47 -5.5zM429 953l-135 -204l-49 31l116 218zM184 767v-20q0 -51 28 -76.5t67 -25.5t67.5 25.5t28.5 76.5v20h66v-20
q0 -41 -13 -71.5t-35 -51t-51.5 -31t-62.5 -10.5t-62 10.5t-51 31t-35 51t-13 71.5v20h66z" />
    <glyph glyph-name="uni1EB0" unicode="&#x1eb0;" horiz-adv-x="668" 
d="M15 0zM387 692l266 -692h-108l-55 149h-313l-54 -149h-108l263 692h109zM210 240h246l-124 335zM238 913v-20q0 -51 28 -76.5t67 -25.5t67.5 25.5t28.5 76.5v20h66v-20q0 -41 -13 -71.5t-35 -51t-51.5 -31t-62.5 -10.5t-62 10.5t-51 31t-35 51t-13 71.5v20h66zM275 1125
l116 -218l-48 -31l-136 204z" />
    <glyph glyph-name="uni1EB1" unicode="&#x1eb1;" horiz-adv-x="559" 
d="M53 0zM93 486q29 22 76 39t113 17q45 0 82.5 -10.5t65 -34.5t42.5 -63.5t15 -97.5v-336h-88v38q-68 -45 -156 -45q-40 0 -74.5 10t-60 31t-40.5 53t-15 76q0 43 15 76.5t42 55.5t64 33.5t81 11.5q35 0 71 -7t68 -21v18q0 35 -8.5 58.5t-24.5 37.5t-39 20t-51 6
q-42 0 -76.5 -11t-63.5 -31zM264 72q32 0 66.5 8t63.5 23v147q-27 10 -57.5 15t-58.5 5q-57 0 -96 -24.5t-39 -77.5q0 -26 9.5 -44t26 -29.5t38.5 -17t47 -5.5zM184 767v-20q0 -51 28 -76.5t67 -25.5t67.5 25.5t28.5 76.5v20h66v-20q0 -41 -13 -71.5t-35 -51t-51.5 -31
t-62.5 -10.5t-62 10.5t-51 31t-35 51t-13 71.5v20h66zM205 998l116 -218l-48 -31l-136 204z" />
    <glyph glyph-name="uni1EB2" unicode="&#x1eb2;" horiz-adv-x="668" 
d="M15 0zM387 692l266 -692h-108l-55 149h-313l-54 -149h-108l263 692h109zM210 240h246l-124 335zM238 913v-20q0 -51 28 -76.5t67 -25.5t67.5 25.5t28.5 76.5v20h66v-20q0 -41 -13 -71.5t-35 -51t-51.5 -31t-62.5 -10.5t-62 10.5t-51 31t-35 51t-13 71.5v20h66zM209 1070
q17 26 47 44t78 18q58 0 89 -27.5t31 -76.5q0 -36 -15 -55t-37 -36q-12 -10 -20.5 -17t-13.5 -13.5t-7.5 -14.5t-2.5 -20h-53q1 32 14 51t33 36q17 15 29 27.5t12 34.5q0 53 -65 53q-27 0 -45 -10t-32 -32z" />
    <glyph glyph-name="uni1EB3" unicode="&#x1eb3;" horiz-adv-x="559" 
d="M53 0zM93 486q29 22 76 39t113 17q45 0 82.5 -10.5t65 -34.5t42.5 -63.5t15 -97.5v-336h-88v38q-68 -45 -156 -45q-40 0 -74.5 10t-60 31t-40.5 53t-15 76q0 43 15 76.5t42 55.5t64 33.5t81 11.5q35 0 71 -7t68 -21v18q0 35 -8.5 58.5t-24.5 37.5t-39 20t-51 6
q-42 0 -76.5 -11t-63.5 -31zM264 72q32 0 66.5 8t63.5 23v147q-27 10 -57.5 15t-58.5 5q-57 0 -96 -24.5t-39 -77.5q0 -26 9.5 -44t26 -29.5t38.5 -17t47 -5.5zM184 767v-20q0 -51 28 -76.5t67 -25.5t67.5 25.5t28.5 76.5v20h66v-20q0 -41 -13 -71.5t-35 -51t-51.5 -31
t-62.5 -10.5t-62 10.5t-51 31t-35 51t-13 71.5v20h66zM154 936q17 26 47 44t78 18q58 0 89 -27.5t31 -76.5q0 -36 -15 -55t-37 -36q-12 -10 -20.5 -17t-13.5 -13.5t-7.5 -14.5t-2.5 -20h-53q1 32 14 51t33 36q17 15 29 27.5t12 34.5q0 53 -65 53q-27 0 -45 -10t-32 -32z" />
    <glyph glyph-name="uni1EB4" unicode="&#x1eb4;" horiz-adv-x="668" 
d="M15 0zM387 692l266 -692h-108l-55 149h-313l-54 -149h-108l263 692h109zM210 240h246l-124 335zM238 913v-20q0 -51 28 -76.5t67 -25.5t67.5 25.5t28.5 76.5v20h66v-20q0 -41 -13 -71.5t-35 -51t-51.5 -31t-62.5 -10.5t-62 10.5t-51 31t-35 51t-13 71.5v20h66zM128 1012
q19 37 47.5 58t66.5 21q29 0 52.5 -10t44.5 -22t41 -22t42 -10q26 0 43.5 16t29.5 46l45 -44q-20 -42 -49.5 -62t-64.5 -20q-29 0 -52.5 10t-44.5 22t-42 22t-43 10q-26 0 -42.5 -15.5t-28.5 -44.5z" />
    <glyph glyph-name="uni1EB5" unicode="&#x1eb5;" horiz-adv-x="559" 
d="M53 0zM93 486q29 22 76 39t113 17q45 0 82.5 -10.5t65 -34.5t42.5 -63.5t15 -97.5v-336h-88v38q-68 -45 -156 -45q-40 0 -74.5 10t-60 31t-40.5 53t-15 76q0 43 15 76.5t42 55.5t64 33.5t81 11.5q35 0 71 -7t68 -21v18q0 35 -8.5 58.5t-24.5 37.5t-39 20t-51 6
q-42 0 -76.5 -11t-63.5 -31zM264 72q32 0 66.5 8t63.5 23v147q-27 10 -57.5 15t-58.5 5q-57 0 -96 -24.5t-39 -77.5q0 -26 9.5 -44t26 -29.5t38.5 -17t47 -5.5zM184 767v-20q0 -51 28 -76.5t67 -25.5t67.5 25.5t28.5 76.5v20h66v-20q0 -41 -13 -71.5t-35 -51t-51.5 -31
t-62.5 -10.5t-62 10.5t-51 31t-35 51t-13 71.5v20h66zM73 853q19 37 47.5 58t66.5 21q29 0 52.5 -10t44.5 -22t41 -22t42 -10q26 0 43.5 16t29.5 46l45 -44q-20 -42 -49.5 -62t-64.5 -20q-29 0 -52.5 10t-44.5 22t-42 22t-43 10q-26 0 -42.5 -15.5t-28.5 -44.5z" />
    <glyph glyph-name="uni1EB6" unicode="&#x1eb6;" horiz-adv-x="668" 
d="M15 0zM387 692l266 -692h-108l-55 149h-313l-54 -149h-108l263 692h109zM210 240h246l-124 335zM238 926v-20q0 -51 28 -76.5t67 -25.5t67.5 25.5t28.5 76.5v20h66v-20q0 -41 -13 -71.5t-35 -51t-51.5 -31t-62.5 -10.5t-62 10.5t-51 31t-35 51t-13 71.5v20h66zM332 -86
q24 0 39.5 -15.5t15.5 -41.5q0 -25 -15.5 -41t-39.5 -16t-39 16t-15 41q0 26 15 41.5t39 15.5z" />
    <glyph glyph-name="uni1EB7" unicode="&#x1eb7;" horiz-adv-x="559" 
d="M53 0zM93 486q29 22 76 39t113 17q45 0 82.5 -10.5t65 -34.5t42.5 -63.5t15 -97.5v-336h-88v38q-68 -45 -156 -45q-40 0 -74.5 10t-60 31t-40.5 53t-15 76q0 43 15 76.5t42 55.5t64 33.5t81 11.5q35 0 71 -7t68 -21v18q0 35 -8.5 58.5t-24.5 37.5t-39 20t-51 6
q-42 0 -76.5 -11t-63.5 -31zM264 72q32 0 66.5 8t63.5 23v147q-27 10 -57.5 15t-58.5 5q-57 0 -96 -24.5t-39 -77.5q0 -26 9.5 -44t26 -29.5t38.5 -17t47 -5.5zM184 767v-20q0 -51 28 -76.5t67 -25.5t67.5 25.5t28.5 76.5v20h66v-20q0 -41 -13 -71.5t-35 -51t-51.5 -31
t-62.5 -10.5t-62 10.5t-51 31t-35 51t-13 71.5v20h66zM280 -86q24 0 39.5 -15.5t15.5 -41.5q0 -25 -15.5 -41t-39.5 -16t-39 16t-15 41q0 26 15 41.5t39 15.5z" />
    <glyph glyph-name="uni1EB8" unicode="&#x1eb8;" horiz-adv-x="574" 
d="M81 0zM518 692v-95h-335v-197h249v-92h-249v-213h342v-95h-444v692h437zM303 -86q24 0 39.5 -15.5t15.5 -41.5q0 -25 -15.5 -41t-39.5 -16t-39 16t-15 41q0 26 15 41.5t39 15.5z" />
    <glyph glyph-name="uni1EB9" unicode="&#x1eb9;" horiz-adv-x="561" 
d="M57 0zM146 232q4 -41 17 -71t32.5 -49.5t44 -29t50.5 -9.5q39 0 68.5 18t47.5 44l63 -55q-11 -15 -27.5 -31.5t-39 -30t-51.5 -22.5t-65 -9q-47 0 -89 17.5t-73 52.5t-49 87.5t-18 122.5q0 66 16.5 117.5t46 86.5t70.5 53t90 18t90 -18t71 -53t46.5 -86.5t16.5 -117.5
q0 -10 -0.5 -18.5t-1.5 -16.5h-356zM281 456q-55 0 -91 -39.5t-44 -113.5h269q-8 76 -44 114.5t-90 38.5zM280 -86q24 0 39.5 -15.5t15.5 -41.5q0 -25 -15.5 -41t-39.5 -16t-39 16t-15 41q0 26 15 41.5t39 15.5z" />
    <glyph glyph-name="uni1EBA" unicode="&#x1eba;" horiz-adv-x="574" 
d="M81 0zM518 692v-95h-335v-197h249v-92h-249v-213h342v-95h-444v692h437zM178 919q17 26 47 44t78 18q58 0 89 -27.5t31 -76.5q0 -36 -15 -55t-37 -36q-12 -10 -20.5 -17t-13.5 -13.5t-7.5 -14.5t-2.5 -20h-53q1 32 14 51t33 36q17 15 29 27.5t12 34.5q0 53 -65 53
q-27 0 -45 -10t-32 -32z" />
    <glyph glyph-name="uni1EBB" unicode="&#x1ebb;" horiz-adv-x="561" 
d="M57 0zM146 232q4 -41 17 -71t32.5 -49.5t44 -29t50.5 -9.5q39 0 68.5 18t47.5 44l63 -55q-11 -15 -27.5 -31.5t-39 -30t-51.5 -22.5t-65 -9q-47 0 -89 17.5t-73 52.5t-49 87.5t-18 122.5q0 66 16.5 117.5t46 86.5t70.5 53t90 18t90 -18t71 -53t46.5 -86.5t16.5 -117.5
q0 -10 -0.5 -18.5t-1.5 -16.5h-356zM281 456q-55 0 -91 -39.5t-44 -113.5h269q-8 76 -44 114.5t-90 38.5zM160 760q17 26 47 44t78 18q58 0 89 -27.5t31 -76.5q0 -36 -15 -55t-37 -36q-12 -10 -20.5 -17t-13.5 -13.5t-7.5 -14.5t-2.5 -20h-53q1 32 14 51t33 36
q17 15 29 27.5t12 34.5q0 53 -65 53q-27 0 -45 -10t-32 -32z" />
    <glyph glyph-name="uni1EBC" unicode="&#x1ebc;" horiz-adv-x="574" 
d="M81 0zM518 692v-95h-335v-197h249v-92h-249v-213h342v-95h-444v692h437zM99 823q19 37 47.5 58t66.5 21q29 0 52.5 -10t44.5 -22t41 -22t42 -10q26 0 43.5 16t29.5 46l45 -44q-20 -42 -49.5 -62t-64.5 -20q-29 0 -52.5 10t-44.5 22t-42 22t-43 10q-26 0 -42.5 -15.5
t-28.5 -44.5z" />
    <glyph glyph-name="uni1EBD" unicode="&#x1ebd;" horiz-adv-x="561" 
d="M57 0zM146 232q4 -41 17 -71t32.5 -49.5t44 -29t50.5 -9.5q39 0 68.5 18t47.5 44l63 -55q-11 -15 -27.5 -31.5t-39 -30t-51.5 -22.5t-65 -9q-47 0 -89 17.5t-73 52.5t-49 87.5t-18 122.5q0 66 16.5 117.5t46 86.5t70.5 53t90 18t90 -18t71 -53t46.5 -86.5t16.5 -117.5
q0 -10 -0.5 -18.5t-1.5 -16.5h-356zM281 456q-55 0 -91 -39.5t-44 -113.5h269q-8 76 -44 114.5t-90 38.5zM74 677q19 37 47.5 58t66.5 21q29 0 52.5 -10t44.5 -22t41 -22t42 -10q26 0 43.5 16t29.5 46l45 -44q-20 -42 -49.5 -62t-64.5 -20q-29 0 -52.5 10t-44.5 22t-42 22
t-43 10q-26 0 -42.5 -15.5t-28.5 -44.5z" />
    <glyph glyph-name="uni1EBE" unicode="&#x1ebe;" horiz-adv-x="574" 
d="M81 0zM518 692v-95h-335v-197h249v-92h-249v-213h342v-95h-444v692h437zM651 1023l-135 -204l-49 31l116 218zM336 968l151 -197l-43 -43l-139 150l-137 -150l-44 43l151 197h61z" />
    <glyph glyph-name="uni1EBF" unicode="&#x1ebf;" horiz-adv-x="561" 
d="M57 0zM146 232q4 -41 17 -71t32.5 -49.5t44 -29t50.5 -9.5q39 0 68.5 18t47.5 44l63 -55q-11 -15 -27.5 -31.5t-39 -30t-51.5 -22.5t-65 -9q-47 0 -89 17.5t-73 52.5t-49 87.5t-18 122.5q0 66 16.5 117.5t46 86.5t70.5 53t90 18t90 -18t71 -53t46.5 -86.5t16.5 -117.5
q0 -10 -0.5 -18.5t-1.5 -16.5h-356zM281 456q-55 0 -91 -39.5t-44 -113.5h269q-8 76 -44 114.5t-90 38.5zM589 923l-135 -204l-49 31l116 218zM311 822l151 -197l-43 -43l-139 150l-137 -150l-44 43l151 197h61z" />
    <glyph glyph-name="uni1EC0" unicode="&#x1ec0;" horiz-adv-x="574" 
d="M0 0zM518 692v-95h-335v-197h249v-92h-249v-213h342v-95h-444v692h437zM27 1068l116 -218l-48 -31l-136 204zM336 968l151 -197l-43 -43l-139 150l-137 -150l-44 43l151 197h61z" />
    <glyph glyph-name="uni1EC1" unicode="&#x1ec1;" horiz-adv-x="561" 
d="M0 0zM146 232q4 -41 17 -71t32.5 -49.5t44 -29t50.5 -9.5q39 0 68.5 18t47.5 44l63 -55q-11 -15 -27.5 -31.5t-39 -30t-51.5 -22.5t-65 -9q-47 0 -89 17.5t-73 52.5t-49 87.5t-18 122.5q0 66 16.5 117.5t46 86.5t70.5 53t90 18t90 -18t71 -53t46.5 -86.5t16.5 -117.5
q0 -10 -0.5 -18.5t-1.5 -16.5h-356zM281 456q-55 0 -91 -39.5t-44 -113.5h269q-8 76 -44 114.5t-90 38.5zM37 968l116 -218l-48 -31l-136 204zM311 822l151 -197l-43 -43l-139 150l-137 -150l-44 43l151 197h61z" />
    <glyph glyph-name="uni1EC2" unicode="&#x1ec2;" horiz-adv-x="574" 
d="M81 0zM518 692v-95h-335v-197h249v-92h-249v-213h342v-95h-444v692h437zM336 968l151 -197l-43 -43l-139 150l-137 -150l-44 43l151 197h61zM391 1026q17 26 47 44t78 18q58 0 89 -27.5t31 -76.5q0 -36 -15 -55t-37 -36q-12 -10 -20.5 -17t-13.5 -13.5t-7.5 -14.5
t-2.5 -20h-53q1 32 14 51t33 36q17 15 29 27.5t12 34.5q0 53 -65 53q-27 0 -45 -10t-32 -32z" />
    <glyph glyph-name="uni1EC3" unicode="&#x1ec3;" horiz-adv-x="561" 
d="M57 0zM146 232q4 -41 17 -71t32.5 -49.5t44 -29t50.5 -9.5q39 0 68.5 18t47.5 44l63 -55q-11 -15 -27.5 -31.5t-39 -30t-51.5 -22.5t-65 -9q-47 0 -89 17.5t-73 52.5t-49 87.5t-18 122.5q0 66 16.5 117.5t46 86.5t70.5 53t90 18t90 -18t71 -53t46.5 -86.5t16.5 -117.5
q0 -10 -0.5 -18.5t-1.5 -16.5h-356zM281 456q-55 0 -91 -39.5t-44 -113.5h269q-8 76 -44 114.5t-90 38.5zM311 822l151 -197l-43 -43l-139 150l-137 -150l-44 43l151 197h61zM345 906q17 26 47 44t78 18q58 0 89 -27.5t31 -76.5q0 -36 -15 -55t-37 -36q-12 -10 -20.5 -17
t-13.5 -13.5t-7.5 -14.5t-2.5 -20h-53q1 32 14 51t33 36q17 15 29 27.5t12 34.5q0 53 -65 53q-27 0 -45 -10t-32 -32z" />
    <glyph glyph-name="uni1EC4" unicode="&#x1ec4;" horiz-adv-x="574" 
d="M81 0zM518 692v-95h-335v-197h249v-92h-249v-213h342v-95h-444v692h437zM99 1043q19 37 47.5 58t66.5 21q29 0 52.5 -10t44.5 -22t41 -22t42 -10q26 0 43.5 16t29.5 46l45 -44q-20 -42 -49.5 -62t-64.5 -20q-29 0 -52.5 10t-44.5 22t-42 22t-43 10q-26 0 -42.5 -15.5
t-28.5 -44.5zM336 968l151 -197l-43 -43l-139 150l-137 -150l-44 43l151 197h61z" />
    <glyph glyph-name="uni1EC5" unicode="&#x1ec5;" horiz-adv-x="561" 
d="M57 0zM146 232q4 -41 17 -71t32.5 -49.5t44 -29t50.5 -9.5q39 0 68.5 18t47.5 44l63 -55q-11 -15 -27.5 -31.5t-39 -30t-51.5 -22.5t-65 -9q-47 0 -89 17.5t-73 52.5t-49 87.5t-18 122.5q0 66 16.5 117.5t46 86.5t70.5 53t90 18t90 -18t71 -53t46.5 -86.5t16.5 -117.5
q0 -10 -0.5 -18.5t-1.5 -16.5h-356zM281 456q-55 0 -91 -39.5t-44 -113.5h269q-8 76 -44 114.5t-90 38.5zM74 893q19 37 47.5 58t66.5 21q29 0 52.5 -10t44.5 -22t41 -22t42 -10q26 0 43.5 16t29.5 46l45 -44q-20 -42 -49.5 -62t-64.5 -20q-29 0 -52.5 10t-44.5 22t-42 22
t-43 10q-26 0 -42.5 -15.5t-28.5 -44.5zM311 812l151 -197l-43 -43l-139 150l-137 -150l-44 43l151 197h61z" />
    <glyph glyph-name="uni1EC6" unicode="&#x1ec6;" horiz-adv-x="574" 
d="M81 0zM518 692v-95h-335v-197h249v-92h-249v-213h342v-95h-444v692h437zM300 -86q24 0 39.5 -15.5t15.5 -41.5q0 -25 -15.5 -41t-39.5 -16t-39 16t-15 41q0 26 15 41.5t39 15.5zM336 981l151 -197l-43 -43l-139 150l-137 -150l-44 43l151 197h61z" />
    </font>
</defs>
</svg>
